<svg xmlns="http://www.w3.org/2000/svg" fill="currentColor" xmlns:xlink="http://www.w3.org/1999/xlink" version="1.1" x="0px" y="0px" viewBox="0 0 91 91" enable-background="new 0 0 91 91" xml:space="preserve"><g><path d="M40.258,34.704c-0.169-0.571-0.692-0.966-1.289-0.973c-0.004,0-0.009,0-0.013,0c-0.591,0-1.115,0.384-1.294,0.949   l-2.992,9.446c-0.155,0.488-0.022,1.021,0.342,1.379l2.892,2.835c0.265,0.258,0.607,0.389,0.952,0.389   c0.341,0,0.685-0.129,0.949-0.389l2.897-2.834c0.359-0.35,0.497-0.873,0.353-1.355L40.258,34.704z M38.856,45.471l-1.346-1.319   l1.401-4.425l1.306,4.412L38.856,45.471z"/><path d="M42.42,25.685c0.609-0.437,0.749-1.285,0.312-1.895s-1.283-0.751-1.895-0.313c-1.974,1.416-3.727,0.182-3.928,0.03   c-0.587-0.455-1.438-0.352-1.899,0.236c-0.462,0.587-0.362,1.441,0.228,1.905c0.707,0.556,2.06,1.211,3.66,1.211   C40,26.859,41.217,26.549,42.42,25.685z"/><path d="M35.886,21.462c0.855,0,1.55-0.694,1.55-1.547c0-0.854-0.694-1.548-1.55-1.548c-0.853,0-1.546,0.694-1.546,1.548   C34.339,20.768,35.033,21.462,35.886,21.462z"/><path d="M41.816,21.462c0.853,0,1.548-0.694,1.548-1.547c0-0.854-0.695-1.548-1.548-1.548c-0.852,0-1.544,0.694-1.544,1.548   C40.271,20.768,40.964,21.462,41.816,21.462z"/><path d="M62.628,28.021c-0.465,0.59-0.36,1.444,0.228,1.907c0.708,0.556,2.061,1.208,3.662,1.208c1.101,0,2.317-0.308,3.521-1.171   c0.609-0.438,0.75-1.285,0.312-1.896c-0.437-0.609-1.283-0.75-1.895-0.311c-1.974,1.413-3.732,0.178-3.931,0.029   C63.935,27.332,63.088,27.436,62.628,28.021z"/><circle cx="63.505" cy="24.193" r="1.547"/><path d="M69.433,25.74c0.855,0,1.551-0.693,1.551-1.545c0-0.854-0.695-1.549-1.551-1.549c-0.851,0-1.543,0.694-1.543,1.549   C67.89,25.047,68.582,25.74,69.433,25.74z"/><path d="M15.262,45.722c-0.439-0.606-1.284-0.748-1.896-0.312c-1.318,0.951-2.477,0.194-2.701,0.027   c-0.587-0.453-1.437-0.348-1.895,0.237c-0.463,0.588-0.362,1.443,0.228,1.906c0.587,0.463,1.713,1.007,3.041,1.007   c0.912,0,1.92-0.257,2.915-0.97C15.56,47.179,15.7,46.331,15.262,45.722z"/><path d="M9.687,44.386c0.832,0,1.508-0.676,1.508-1.505s-0.676-1.505-1.508-1.505c-0.828,0-1.502,0.676-1.502,1.505   S8.859,44.386,9.687,44.386z"/><circle cx="14.307" cy="42.881" r="1.505"/><path d="M81.688,31.169c-1.683,0-3.288,0.467-4.688,1.325c1.015-1.791,1.604-3.829,1.604-5.971c0-6.691-5.443-12.134-12.135-12.134   c-6.692,0-12.137,5.443-12.137,12.134c0,3.566,1.559,6.836,4.093,9.085c-2.95,1.702-5.219,6.213-5.262,6.288   c-0.538-2.442-1.122-4.414-1.505-5.186c-1.084-2.175-2.751-4.04-4.766-5.39c2.555-2.265,4.095-5.547,4.095-9.074   c0-6.692-5.444-12.137-12.136-12.137c-6.691,0-12.134,5.445-12.134,12.137c0,3.566,1.557,6.834,4.091,9.084   c-2.012,1.348-3.671,3.211-4.75,5.38c-0.608,1.217-3.594,9.475-4.058,15.136c-0.219,0.168-1.285,0.493-3.445,0.044   c1.991-1.818,3.192-4.41,3.192-7.195c0-5.374-4.374-9.747-9.75-9.747c-5.375,0-9.75,4.373-9.75,9.747   c0,2.729,1.141,5.243,3.01,7.037c-1.468,1.059-2.681,2.467-3.494,4.093c-0.897,1.802-2.431,9.485-0.624,12.346   c0.526,0.833,1.317,1.289,2.228,1.289c0.016,0,0.032,0,0.048,0c1.015-0.014,1.602-0.482,1.985-0.972v8.084   c0,2.201,1.789,3.991,3.988,3.991c1.009,0,1.923-0.39,2.626-1.011c0.703,0.621,1.615,1.011,2.625,1.011c2.2,0,3.99-1.79,3.99-3.991   V60.26c0.426,0.048,0.905,0.061,1.428,0.083c7.112,0.293,8.979-6.666,10.709-12.135v27.621c0,2.611,2.123,4.734,4.732,4.734   c1.322,0,2.514-0.546,3.374-1.419c0.86,0.873,2.054,1.419,3.374,1.419c2.613,0,4.738-2.123,4.738-4.734v-24.7   c0.737,3.014,1.61,5.251,1.61,5.251c0.428,0.761,1.07,1.908,2.786,1.94c0.016,0,0.031,0,0.047,0c0.184,0,0.356-0.032,0.529-0.068   c0.226,0.433,0.669,0.735,1.19,0.735c0.008,0,0.016,0,0.023,0c1.886-0.033,2.696-1.438,3.128-2.185   c0.336-0.574,1.852-4.197,1.932-4.388c0.008,0.018,0.022,0.03,0.03,0.046l-2.06,12.355c-0.065,0.391,0.045,0.795,0.304,1.1   c0.258,0.305,0.637,0.48,1.036,0.48h0.842v9.433c0,2.611,2.123,4.734,4.734,4.734c1.32,0,2.514-0.546,3.375-1.419   c0.858,0.873,2.052,1.419,3.372,1.419c2.613,0,4.737-2.123,4.737-4.734v-9.433h1.655c0.403,0,0.788-0.181,1.045-0.492   c0.259-0.313,0.364-0.724,0.288-1.121c0,0-1.504-7.638-1.532-7.714l1.57-1.573c0.007,0.002,0.014,0.006,0.021,0.007   c0.205,0.051,0.422,0.116,0.643,0.182c0.654,0.195,1.415,0.422,2.209,0.422c0.397,0,0.803-0.058,1.209-0.202   c1.08-0.389,1.871-1.165,2.284-2.243c0.569-1.485,0.319-3.321-0.136-4.749c1.564-0.39,3.025-1.186,4.2-2.358   c1.701-1.701,2.64-3.964,2.64-6.372c0-2.407-0.938-4.669-2.64-6.371C86.358,32.107,84.095,31.169,81.688,31.169z M17.629,57.341   c0,0-0.6-0.207-1.193,0.24c-0.495,0.371-0.52,1.07-0.52,1.07v17.921c0,0.703-0.572,1.274-1.273,1.274   c-0.69,0-1.246-0.554-1.266-1.239c0-0.013,0.003-0.022,0.003-0.035v-9.044c0-0.75-0.606-1.358-1.358-1.358   c-0.75,0-1.358,0.608-1.358,1.358v8.992c0,0.017-0.011,0.033-0.011,0.052c0,0.013,0.005,0.022,0.005,0.035   c-0.021,0.686-0.577,1.239-1.268,1.239c-0.702,0-1.272-0.571-1.272-1.274V60.078c0-0.749-0.607-1.357-1.358-1.357   c-0.462,0-0.851,0.245-1.096,0.6c-0.06,0.053-0.132,0.089-0.183,0.153c-0.585,0.729-0.87,2.093-1.286,4.25   c-0.172,0.881-0.428,2.212-0.584,2.517l-0.135,0.236c-0.031,0.054-0.066,0.115-0.1,0.172c-0.787-1.29-0.146-7.674,0.819-9.612   c0.763-1.526,2.001-2.791,3.488-3.619c0.589,0.293,1.202,0.548,1.857,0.718c0.115,0.03,0.23,0.043,0.342,0.043   c0.604,0,1.154-0.406,1.313-1.018c0.188-0.726-0.247-1.467-0.975-1.654c-3.094-0.804-5.257-3.604-5.257-6.811   c0-3.877,3.154-7.03,7.033-7.03s7.034,3.152,7.034,7.03c0,2.778-1.64,5.305-4.177,6.434c0,0-0.711,0.277-0.753,1.168   c-0.042,0.892,0.828,1.346,0.828,1.346l0,0c2.136,0.799,4.06,1.199,5.627,1.199c0.55,0,1.039-0.065,1.495-0.166   c0.097,0.645,0.259,1.21,0.522,1.63c0.16,0.252,0.358,0.451,0.572,0.625C20.866,58.163,17.666,57.351,17.629,57.341z    M51.333,55.602c-0.005-0.002-0.735,0.256-1.968-6.179c-0.952-4.966-1.788-7.149-2.429-7.954c-0.148-0.188-0.556-0.967-1.437-0.724   c-0.887,0.244-1.23,1.195-1.23,1.573v33.512c0,1.113-0.906,2.018-2.021,2.018c-1.098,0-1.992-0.881-2.016-1.972   c0-0.016,0.004-0.03,0.004-0.046V54.607c0-0.75-0.608-1.358-1.358-1.358c-0.751,0-1.358,0.608-1.358,1.358v21.176   c-0.001,0.017-0.009,0.03-0.009,0.046s0.003,0.03,0.005,0.046c-0.027,1.091-0.917,1.972-2.016,1.972   c-1.112,0-2.017-0.904-2.017-2.018V42.002c0-0.75-0.607-1.357-1.357-1.357c-0.478,0-0.877,0.261-1.12,0.633   c-0.077,0.06-1.724,3.186-3.673,8.308c-0.751,1.973-1.685,4.428-1.945,4.874c-0.106,0.181-0.192,0.361-0.582,0.295   c-1.046-1.965,2.005-13.474,3.68-16.833c1.035-2.079,2.733-3.803,4.783-4.903c0.791,0.411,1.631,0.745,2.521,0.976   c0.114,0.03,0.229,0.042,0.343,0.042c0.603,0,1.155-0.406,1.313-1.017c0.188-0.726-0.248-1.466-0.973-1.654   c-4.146-1.075-7.041-4.824-7.041-9.119c0-5.194,4.226-9.42,9.418-9.42c5.195,0,9.42,4.226,9.42,9.42   c0,3.721-2.195,7.101-5.595,8.61c-0.685,0.305-0.994,1.108-0.69,1.793c0.303,0.682,1.102,0.993,1.793,0.689   c0.222-0.099,0.422-0.23,0.634-0.339c2.062,1.095,3.771,2.83,4.814,4.92c0.737,1.482,1.588,5.322,2.104,9.063   c0.003,0.016,0.005,0.03,0.006,0.046C51.877,50.942,52.048,54.737,51.333,55.602z M57.049,26.523c0-5.192,4.227-9.418,9.421-9.418   c5.193,0,9.42,4.226,9.42,9.418c0,3.721-2.196,7.101-5.593,8.611c-0.686,0.305-0.994,1.107-0.689,1.794   c0.305,0.685,1.108,0.995,1.792,0.688c0.771-0.341,1.473-0.781,2.14-1.263c-0.404,0.86-0.673,1.772-0.791,2.706   c-0.332,0.137-5.39,4.008-12.39-1.127c-0.08-0.06-0.158-0.109-0.24-0.16c0.254-0.164,0.505-0.331,0.771-0.475   c0.79,0.411,1.631,0.744,2.521,0.974c0.113,0.032,0.229,0.044,0.343,0.044c0.603,0,1.154-0.406,1.313-1.017   c0.188-0.726-0.247-1.467-0.974-1.654C59.945,34.568,57.049,30.817,57.049,26.523z M70.855,57.491   c-1.807,0.531-3.834,0.112-5.255-1.311c-1.002-1.001-1.556-2.334-1.556-3.751c0-1.419,0.554-2.752,1.556-3.754l3.59-3.589   c0.04-0.039,0.089-0.065,0.13-0.104L70.855,57.491z M65.143,75.783c-0.002,0.017-0.011,0.03-0.011,0.046s0.006,0.03,0.006,0.046   c-0.025,1.091-0.918,1.972-2.018,1.972c-1.113,0-2.019-0.904-2.019-2.018v-9.433h4.041V75.783z M71.889,75.829   c0,1.113-0.906,2.018-2.021,2.018c-1.098,0-1.989-0.881-2.014-1.972c0-0.016,0.005-0.03,0.005-0.046v-9.433h4.03V75.829z    M59.147,63.681l1.633-11.404c0.064-0.387,0.035-5.682,0.035-5.682s0.178-0.897-0.926-1.258c-0.947-0.312-1.493,0.41-1.493,0.41   c-0.632,0.792-1.559,2.959-2.9,6.174c-0.412,0.99-0.832,1.994-1.148,2.702c0.283-2.107,0.105-4.931-0.288-7.749   c0.527-2.004,2.096-5.588,4.073-7.514c0.064,0.18,0.162,0.349,0.306,0.492c2.323,2.325,5.371,3.525,8.452,3.525   c0.062,0,0.121-0.011,0.18-0.011l-3.392,3.39c-1.515,1.516-2.35,3.529-2.35,5.674c0,2.144,0.835,4.158,2.35,5.672   c1.564,1.565,3.62,2.347,5.674,2.347c1.53,0,3.061-0.438,4.39-1.306l0.872,4.538H59.147z M74.488,51.234   c-0.2,0.915,0.05,1.963,0.751,2.814l-1.845,1.846l-0.854-6.957h3.973C75.385,49.384,74.695,50.283,74.488,51.234z M81.459,52.688   c-0.129,0.343-0.329,0.538-0.666,0.66c-0.379,0.134-2.251-0.423-2.5-0.482c-0.852-0.208-1.229-0.697-1.151-1.053   c0.074-0.338,0.66-0.583,1.633-0.396c0.738,0.136,1.447-0.34,1.591-1.075c0.105-0.542-0.132-1.065-0.553-1.363   c0.415,0.089,0.833,0.146,1.252,0.173C81.488,50.166,81.817,51.755,81.459,52.688z M86.14,44.634   c-1.584,1.583-3.908,2.21-6.073,1.633c-0.151-0.039-7.858-0.046-7.858-0.046l-0.314-2.563c0.457-0.091,0.923-0.146,1.396-0.113   c0.018,0.001,0.03-0.006,0.047-0.006c0.161,0.398,0.338,0.794,0.559,1.174c0.377,0.648,1.208,0.865,1.858,0.489   c0.647-0.378,0.865-1.209,0.49-1.858c-1.438-2.46-1.028-5.593,0.991-7.613c1.189-1.189,2.77-1.844,4.452-1.844   c1.682,0,3.263,0.655,4.452,1.844c1.189,1.19,1.845,2.771,1.845,4.451C87.984,41.863,87.329,43.444,86.14,44.634z"/><path d="M81.783,41.795c-1.595-0.311-1.838-1.675-1.87-1.951c-0.075-0.739-0.729-1.28-1.474-1.216   c-0.747,0.067-1.299,0.728-1.232,1.475c0.115,1.255,1.109,3.783,4.057,4.359c0.087,0.018,0.176,0.025,0.261,0.025   c0.637,0,1.205-0.45,1.332-1.1C83,42.653,82.52,41.939,81.783,41.795z"/><path d="M81.078,38.859c0.854,0,1.55-0.694,1.55-1.547c0-0.854-0.695-1.549-1.55-1.549c-0.852,0-1.544,0.695-1.544,1.549   C79.534,38.165,80.227,38.859,81.078,38.859z"/><circle cx="84.271" cy="40.744" r="1.547"/></g></svg>
