<svg xmlns="http://www.w3.org/2000/svg" xmlns:xlink="http://www.w3.org/1999/xlink" version="1.1" x="0px" y="0px" viewBox="0 0 91 91" enable-background="new 0 0 91 91" xml:space="preserve"><g><path d="M10.586,83.818c0.41,0.549,1.052,0.857,1.715,0.857c0.216,0,0.433-0.031,0.644-0.099c0.87-0.275,1.468-1.068,1.495-1.979   c0.119-4.021,0.699-11.179,1.749-13.278c1.123-2.254,2.911-4.139,5.054-5.463c0.991,0.506,2.041,0.922,3.152,1.21   c0.181,0.045,0.361,0.069,0.54,0.069c0.951,0,1.819-0.64,2.07-1.604c0.299-1.144-0.389-2.313-1.533-2.611   c-4.958-1.286-8.418-5.768-8.418-10.898c0-6.206,5.05-11.256,11.259-11.256c6.208,0,11.257,5.05,11.257,11.256   c0,4.449-2.624,8.489-6.685,10.292c-1.083,0.481-1.571,1.745-1.089,2.827c0.479,1.078,1.748,1.568,2.825,1.087   c0.289-0.13,0.548-0.298,0.828-0.442c2.195,1.324,4.028,3.238,5.173,5.537c1.004,2.009,2.037,11.635,2.451,17.827   c0.075,1.131,1.016,1.998,2.133,1.998c0.048,0,0.095-0.002,0.144-0.006c1.182-0.078,2.071-1.098,1.996-2.277   c-0.177-2.635-1.143-15.947-2.893-19.456c-1.24-2.483-3.074-4.653-5.287-6.316c2.923-2.874,4.687-6.823,4.687-11.07   c0-8.566-6.97-15.539-15.541-15.539c-8.57,0-15.542,6.973-15.542,15.539c0,4.328,1.792,8.313,4.742,11.172   c-2.158,1.65-3.945,3.78-5.159,6.215c-0.974,1.946-1.526,5.828-1.832,9.176l-4.425-5.911c-0.711-0.95-2.054-1.14-2.999-0.434   c-0.943,0.71-1.135,2.052-0.431,2.999L10.586,83.818z"/><path d="M30.09,56.209c1.449,0,3.053-0.407,4.636-1.542c0.96-0.691,1.179-2.028,0.489-2.989c-0.69-0.962-2.028-1.18-2.99-0.489   c-2.173,1.559-4.117,0.212-4.347,0.04c-0.931-0.715-2.265-0.548-2.988,0.375c-0.729,0.93-0.569,2.276,0.36,3.006   C26.186,55.346,27.976,56.209,30.09,56.209z"/><path d="M28.714,47.126c0-1.311-1.064-2.377-2.376-2.377c-1.309,0-2.375,1.066-2.375,2.377c0,1.308,1.066,2.375,2.375,2.375   C27.649,49.501,28.714,48.434,28.714,47.126z"/><path d="M36.089,47.126c0-1.311-1.067-2.377-2.376-2.377c-1.313,0-2.379,1.066-2.379,2.377c0,1.308,1.066,2.375,2.379,2.375   C35.022,49.501,36.089,48.434,36.089,47.126z"/><path d="M17.807,76.294v12.48c0,1.183,0.959,2.141,2.142,2.141c1.183,0,2.141-0.958,2.141-2.141v-12.48   c0-1.181-0.958-2.14-2.141-2.14C18.766,74.154,17.807,75.113,17.807,76.294z"/><path d="M36.737,90.915c1.184,0,2.142-0.958,2.142-2.141V72.869c0-1.184-0.958-2.141-2.142-2.141s-2.142,0.957-2.142,2.141v15.905   C34.596,89.957,35.554,90.915,36.737,90.915z"/><path d="M84.143,87.162c0.082,1.127,1.02,1.986,2.134,1.986c0.052,0,0.104-0.002,0.158-0.006c1.18-0.086,2.066-1.113,1.98-2.292   c-0.193-2.63-1.239-15.938-2.984-19.441c-1.242-2.483-3.075-4.653-5.289-6.316c2.925-2.874,4.688-6.823,4.688-11.07   c0-8.566-6.971-15.539-15.542-15.539c-8.569,0-15.541,6.973-15.541,15.539c0,4.328,1.792,8.313,4.743,11.172   c-2.158,1.65-3.946,3.78-5.159,6.215c-1.772,3.548-2.196,17.095-2.267,19.775c-0.027,1.183,0.905,2.165,2.09,2.194   c0.017,0,0.035,0,0.054,0c1.159,0,2.109-0.924,2.14-2.087c0.155-6.269,0.826-15.987,1.817-17.972   c1.124-2.254,2.91-4.139,5.056-5.463c0.989,0.506,2.042,0.922,3.151,1.21c0.18,0.045,0.36,0.069,0.54,0.069   c0.95,0,1.82-0.64,2.071-1.604c0.297-1.144-0.392-2.313-1.534-2.611c-4.956-1.286-8.419-5.768-8.419-10.898   c0-6.206,5.053-11.256,11.258-11.256c6.209,0,11.259,5.05,11.259,11.256c0,4.449-2.625,8.489-6.686,10.292   c-1.082,0.481-1.569,1.745-1.09,2.827c0.481,1.078,1.747,1.568,2.826,1.087c0.289-0.13,0.55-0.298,0.827-0.442   c2.197,1.324,4.028,3.238,5.177,5.537C82.604,71.336,83.69,80.966,84.143,87.162z"/><path d="M67.639,56.209c1.45,0,3.054-0.407,4.635-1.542c0.962-0.691,1.18-2.028,0.491-2.989c-0.691-0.962-2.03-1.18-2.991-0.489   c-2.171,1.559-4.116,0.212-4.346,0.04c-0.93-0.715-2.264-0.548-2.988,0.375c-0.73,0.93-0.571,2.276,0.359,3.006   C63.732,55.346,65.523,56.209,67.639,56.209z"/><path d="M66.265,47.126c0-1.311-1.067-2.377-2.377-2.377c-1.309,0-2.375,1.066-2.375,2.377c0,1.308,1.066,2.375,2.375,2.375   C65.197,49.501,66.265,48.434,66.265,47.126z"/><path d="M73.638,47.126c0-1.311-1.064-2.377-2.376-2.377c-1.311,0-2.378,1.066-2.378,2.377c0,1.308,1.067,2.375,2.378,2.375   C72.573,49.501,73.638,48.434,73.638,47.126z"/><path d="M63.065,88.774V72.869c0-1.184-0.959-2.141-2.144-2.141c-1.181,0-2.141,0.957-2.141,2.141v15.905   c0,1.183,0.96,2.141,2.141,2.141C62.106,90.915,63.065,89.957,63.065,88.774z"/><path d="M77.713,70.729c-1.182,0-2.141,0.957-2.141,2.141v15.905c0,1.183,0.959,2.141,2.141,2.141c1.183,0,2.14-0.958,2.14-2.141   V72.869C79.853,71.686,78.896,70.729,77.713,70.729z"/><path d="M64.083,21.287c0-1.184-0.961-2.141-2.142-2.141h-29.66c-0.818,0-1.566,0.466-1.926,1.202l-3.931,8.065   c-0.516,1.063-0.076,2.347,0.987,2.863c0.304,0.148,0.623,0.217,0.938,0.217c0.792,0,1.556-0.443,1.928-1.202l3.343-6.863h28.322   C63.122,23.429,64.083,22.471,64.083,21.287z"/><path d="M14.728,23.429h8.419c1.181,0,2.142-0.958,2.142-2.142s-0.96-2.141-2.142-2.141h-8.419c-1.181,0-2.142-0.962-2.142-2.144   V6.511c0-1.181,0.961-2.14,2.142-2.14h67.043c1.183,0,2.145,0.959,2.145,2.14v10.492c0,1.181-0.962,2.144-2.145,2.144H71.495   c-0.82,0-1.572,0.47-1.928,1.212l-3.885,8.063c-0.513,1.067-0.065,2.347,1.002,2.859c0.298,0.144,0.614,0.213,0.927,0.213   c0.796,0,1.561-0.447,1.93-1.212l3.3-6.853h8.931c3.541,0,6.428-2.882,6.428-6.426V6.511c0-3.542-2.887-6.423-6.428-6.423H14.728   c-3.542,0-6.425,2.881-6.425,6.423v10.492C8.303,20.547,11.186,23.429,14.728,23.429z"/><path d="M45.079,11.09c0-1.183-0.96-2.141-2.142-2.141H21.2c-1.183,0-2.141,0.958-2.141,2.141c0,1.184,0.958,2.142,2.141,2.142   h21.737C44.119,13.232,45.079,12.274,45.079,11.09z"/><path d="M55.296,8.95c-1.181,0-2.141,0.958-2.141,2.141c0,1.184,0.96,2.142,2.141,2.142h1.713c1.184,0,2.142-0.958,2.142-2.142   c0-1.183-0.958-2.141-2.142-2.141H55.296z"/><path d="M69.831,11.09c0-1.183-0.957-2.141-2.142-2.141h-3.051c-1.181,0-2.141,0.958-2.141,2.141c0,1.184,0.96,2.142,2.141,2.142   h3.051C68.874,13.232,69.831,12.274,69.831,11.09z"/><path d="M77.032,13.232c1.185,0,2.143-0.958,2.143-2.142c0-1.183-0.958-2.141-2.143-2.141H75.32c-1.182,0-2.142,0.958-2.142,2.141   c0,1.184,0.96,2.142,2.142,2.142H77.032z"/></g></svg>
