<svg version="1.2" baseProfile="tiny" id="Logo" xmlns="http://www.w3.org/2000/svg" xmlns:xlink="http://www.w3.org/1999/xlink" x="0px" y="0px" width="220px" height="38px" viewBox="0 0 220 38" xml:space="preserve">
<path fill="#0056A4" d="M0,16.04v-5.063h20.424v5.063h-7.313v20.808H7.313V16.04H0z"/>
<path fill="#0056A4" d="M27.64,10.976h5.248l11.088,25.872h-5.951l-2.365-5.766H24.72l-2.366,5.766h-5.803L27.64,10.976z   M33.745,26.35l-3.555-9.02l-3.579,9.02H33.745z"/>
<path fill="#0056A4" d="M45.266,10.976h11.827c3.276,0,5.79,0.875,7.54,2.624c1.478,1.479,2.216,3.45,2.216,5.916v0.072  c0,2.094-0.51,3.801-1.533,5.119c-1.022,1.318-2.359,2.285-4.01,2.9l6.328,9.24h-6.66l-5.59-8.349h-0.028h-4.398v8.349h-5.691  L45.266,10.976L45.266,10.976z M56.723,23.543c1.405,0,2.482-0.334,3.234-0.998c0.751-0.666,1.127-1.553,1.127-2.662v-0.072  c0-1.23-0.394-2.157-1.183-2.771c-0.789-0.615-1.885-0.924-3.29-0.924h-5.655v7.43L56.723,23.543L56.723,23.543z"/>
<path fill="#0056A4" d="M69.43,10.976h5.592v25.872H69.43V10.976z"/>
<path fill="#0056A4" d="M109.799,37.291c-1.897,0-3.658-0.346-5.285-1.035c-1.625-0.689-3.031-1.633-4.213-2.826  c-1.184-1.195-2.107-2.604-2.772-4.234c-0.665-1.625-0.998-3.358-0.998-5.209v-0.071c0-1.853,0.333-3.578,0.998-5.193  c0.665-1.613,1.589-3.031,2.772-4.25c1.182-1.22,2.598-2.18,4.25-2.883c1.65-0.702,3.475-1.053,5.47-1.053  c1.208,0,2.31,0.099,3.308,0.295c0.998,0.198,1.903,0.468,2.717,0.813s1.563,0.764,2.255,1.256c0.688,0.493,1.299,1.035,1.889,1.626  l-3.59,4.177c-1.01-0.911-2.039-1.626-3.084-2.144c-1.05-0.518-2.226-0.776-3.532-0.776c-1.084,0-2.088,0.209-3.012,0.628  c-0.924,0.42-1.719,0.999-2.384,1.738c-0.666,0.739-1.183,1.596-1.553,2.568c-0.369,0.975-0.554,2.018-0.554,3.123v0.074  c0,1.105,0.185,2.154,0.554,3.145c0.37,0.982,0.881,1.846,1.534,2.586c0.653,0.736,1.441,1.322,2.365,1.754  c0.924,0.435,1.94,0.646,3.049,0.646c1.478,0,2.729-0.271,3.751-0.813c1.021-0.541,2.039-1.278,3.05-2.217l3.622,3.656  c-0.666,0.717-1.355,1.355-2.07,1.922c-0.715,0.568-1.497,1.057-2.348,1.463c-0.85,0.404-1.779,0.715-2.789,0.924  S111.057,37.291,109.799,37.291z"/>
<polygon fill="#0056A4" points="122.341,10.976 128.033,10.976 128.033,21.287 138.529,21.287 138.529,10.976 144.221,10.976   144.221,36.848 138.529,36.848 138.529,26.35 128.033,26.35 128.033,36.848 122.341,36.848 "/>
<path fill="#0056A4" d="M146.805,10.976h19.355v5.063h-13.739v5.248h12.448v5.063h-12.448v5.437h13.739v5.063h-19.355V10.976z"/>
<path fill="#0056A4" d="M180.719,37.291c-1.898,0-3.658-0.346-5.283-1.035c-1.629-0.689-3.031-1.633-4.215-2.826  c-1.183-1.195-2.107-2.604-2.771-4.234c-0.664-1.625-0.997-3.358-0.997-5.209v-0.071c0-1.853,0.333-3.578,0.997-5.193  c0.663-1.613,1.591-3.031,2.771-4.25c1.182-1.219,2.6-2.18,4.25-2.883c1.65-0.702,3.475-1.053,5.471-1.053  c1.205,0,2.312,0.099,3.31,0.295c0.998,0.198,1.901,0.468,2.716,0.813c0.813,0.345,1.566,0.764,2.258,1.256  c0.688,0.493,1.328,1.035,1.922,1.626l-3.623,4.177c-1.012-0.911-2.039-1.626-3.086-2.144s-2.226-0.776-3.527-0.776  c-1.086,0-2.09,0.209-3.014,0.628c-0.924,0.42-1.721,0.999-2.387,1.738c-0.664,0.739-1.182,1.596-1.552,2.568  c-0.37,0.975-0.558,2.018-0.558,3.123v0.074c0,1.105,0.188,2.154,0.558,3.145c0.37,0.982,0.882,1.846,1.534,2.586  c0.65,0.736,1.438,1.322,2.361,1.754c0.926,0.435,1.941,0.646,3.051,0.646c1.479,0,2.729-0.271,3.75-0.813  c1.023-0.541,2.039-1.278,3.054-2.217l3.62,3.656c-0.665,0.717-1.354,1.355-2.068,1.922c-0.715,0.568-1.494,1.057-2.348,1.463  c-0.852,0.404-1.779,0.715-2.791,0.924C183.107,37.188,181.977,37.291,180.719,37.291z"/>
<polygon fill="#0056A4" points="77.603,36.848 83.294,36.848 83.294,26.35 93.95,26.35 93.95,21.287 83.294,21.287 83.294,16.04   95.24,16.04 95.24,10.976 77.603,10.976 "/>
<polygon fill="#F98600" points="213.118,0.709 199.749,24.061 199.749,10.976 193.296,10.976 193.296,36.848 199.318,36.848   220,0.709 "/>
<polygon fill="#0056A4" points="205.488,30.576 210.066,36.848 217.419,36.848 208.708,24.951 "/>
</svg>