<svg width="136px" height="34px" viewBox="0 0 136 34" version="1.1" xmlns="http://www.w3.org/2000/svg" xmlns:xlink="http://www.w3.org/1999/xlink">
    <defs>
        <path d="M25.2736875,0 C13.8258521,4.90481875 3.29491875,23.3785063 0.576547917,31.6632083 C-0.0272708333,33.5038125 -0.559158333,35.5183125 1.1846875,32.3053125 C2.22990417,30.3793542 4.81648958,27.6685625 10.7147813,26.6958792 C15.4334146,25.917775 17.409275,24.9069479 20.4353813,21.4679896 C19.0402833,21.9682146 17.2383188,23.0137854 13.3916083,21.8153563 C18.7257125,22.2836708 22.4014667,19.1225917 23.8375771,14.6248521 C20.3157083,16.2227458 17.3352188,15.1047125 16.5544583,14.6936667 C21.3585875,14.8145792 25.4104667,11.7590771 26.3849563,6.67012708 C26.9531458,3.70362708 26.0430438,0.9726125 25.2736875,0 Z" id="path-1"/>
    </defs>
    <g stroke="none" stroke-width="1" fill="none" fill-rule="evenodd">
        <g id="feather-colour">
            <path d="M38.0300625,16.7022521 L36.125,16.7022521 C35.5381458,16.7022521 35.0625,16.2265354 35.0625,15.6397521 L35.0625,14.7970125 C35.0625,14.2101938 35.5381458,13.7345125 36.125,13.7345125 L38.0300625,13.7345125 L38.0300625,11.5622667 C38.0300625,9.21662083 38.570875,7.41150417 39.6517917,6.14691667 C40.75325,4.88229375 42.3338958,4.25 44.3940833,4.25 C44.9855417,4.25 45.5872708,4.3112 46.1992708,4.43356458 C46.5155417,4.48463542 46.8066667,4.54845625 47.0719375,4.62502708 C47.5121667,4.75203125 47.7515833,5.19930833 47.6949167,5.65373958 L47.589375,6.49743542 C47.504375,7.1776125 46.80525,7.59531667 46.131625,7.46841875 C45.6775833,7.3828875 45.2207083,7.34010417 44.761,7.34010417 C43.6393542,7.34010417 42.8233542,7.70726875 42.3137083,8.44152708 C41.8037083,9.17582083 41.5487083,10.3384437 41.5487083,11.9293958 L41.5487083,13.7345125 L44.9529583,13.7345125 C45.5398125,13.7345125 46.0154583,14.2101938 46.0154583,14.7970125 L46.0154583,15.6397521 C46.0154583,16.2265354 45.5398125,16.7022521 44.9529583,16.7022521 L41.5487083,16.7022521 L41.5487083,28.1226042 C41.5487083,28.7094583 41.0730625,29.1851042 40.4862083,29.1851042 L39.0925625,29.1851042 C38.5060625,29.1851042 38.0300625,28.7094583 38.0300625,28.1226042 L38.0300625,16.7022521 Z" id="Path" fill="#4C4C53" fill-rule="nonzero"/>
            <path d="M83.8301875,16.7022521 L81.6495833,16.7022521 C81.0627292,16.7022521 80.5870833,16.2265354 80.5870833,15.6397521 L80.5870833,14.7970125 C80.5870833,14.2101938 81.0627292,13.7345125 81.6495833,13.7345125 L83.8301875,13.7345125 L83.8301875,7.42358125 C83.8301875,6.8367625 84.3058333,6.36108125 84.8926875,6.36108125 L86.2863333,6.36108125 C86.8728333,6.36108125 87.3488333,6.8367625 87.3488333,7.42358125 L87.3488333,13.7345125 L90.2328125,13.7345125 C90.8196667,13.7345125 91.2953125,14.2101938 91.2953125,14.7970125 L91.2953125,15.6397521 C91.2953125,16.2265354 90.8196667,16.7022521 90.2328125,16.7022521 L87.3488333,16.7022521 L87.3488333,28.1226042 C87.3488333,28.7094583 86.8728333,29.1851042 86.2863333,29.1851042 L84.8926875,29.1851042 C84.3058333,29.1851042 83.8301875,28.7094583 83.8301875,28.1226042 L83.8301875,16.7022521 Z" id="Path" fill="#4C4C53" fill-rule="nonzero"/>
            <path d="M92.9552917,7.30118125 C92.9552917,6.71439792 93.4309375,6.23868125 94.0177917,6.23868125 L95.4110833,6.23868125 C95.9979375,6.23868125 96.4735833,6.71439792 96.4735833,7.30118125 L96.4735833,15.5396292 C96.9223125,14.8053354 97.5445833,14.2444417 98.3400417,13.8568771 C99.1560417,13.4489479 100.094229,13.2449833 101.154604,13.2449833 C103.010792,13.2449833 104.428521,13.8161125 105.407438,14.9583354 C106.406896,16.0801583 106.906625,17.701675 106.906625,19.8229563 L106.906625,28.1226042 C106.906625,28.7094583 106.430979,29.1851042 105.844125,29.1851042 L104.450833,29.1851042 C103.863979,29.1851042 103.388333,28.7094583 103.388333,28.1226042 L103.388333,20.46545 C103.388333,19.0784625 103.123063,18.0484396 102.592875,17.3753458 C102.082875,16.7022521 101.287417,16.3656875 100.2065,16.3656875 C99.0232292,16.3656875 98.1055833,16.7532521 97.4528542,17.5283104 C96.800125,18.3034042 96.4735833,19.3844271 96.4735833,20.7714146 L96.4735833,28.1226042 C96.4735833,28.7094583 95.9979375,29.1851042 95.4110833,29.1851042 L94.0177917,29.1851042 C93.4309375,29.1851042 92.9552917,28.7094583 92.9552917,28.1226042 L92.9552917,7.30118125 Z" id="Path" fill="#4C4C53" fill-rule="nonzero"/>
            <path d="M126.362417,14.7970125 C126.362417,14.2101938 126.838417,13.7345125 127.424917,13.7345125 L128.677958,13.7345125 C129.259854,13.7345125 129.733729,14.2026146 129.740458,14.7845104 L129.758521,16.3350875 C130.187062,15.4172292 130.778521,14.7135708 131.53325,14.2240417 C132.308167,13.7345125 133.195354,13.4897479 134.194813,13.4897479 C134.460083,13.4897479 134.766083,13.5203479 135.112813,13.5815479 C135.157438,13.589375 135.201,13.5975563 135.243854,13.6060917 C135.703208,13.6975729 135.967771,14.1451688 135.919958,14.6112521 L135.810167,15.6920625 C135.737208,16.4053896 134.980708,16.8450167 134.266354,16.7824 C134.122208,16.7697563 133.975938,16.7634521 133.827896,16.7634521 C132.583708,16.7634521 131.614708,17.2223458 130.92125,18.1402042 C130.227792,19.0376625 129.881063,20.2920854 129.881063,21.9034375 L129.881063,28.1226042 C129.881063,28.7094583 129.405417,29.1851042 128.818563,29.1851042 L127.424917,29.1851042 C126.838417,29.1851042 126.362417,28.7094583 126.362417,28.1226042 L126.362417,14.7970125 Z" id="Path" fill="#4C4C53" fill-rule="nonzero"/>
            <path d="M76.5010625,27.2166458 C75.1453125,28.4402917 73.3489792,29.1851042 71.37875,29.1851042 C67.1546042,29.1851042 63.7301667,25.7606667 63.7301667,21.5363438 C63.7301667,17.3120208 67.1546042,13.8875479 71.37875,13.8875479 C73.3489792,13.8875479 75.1453125,14.6324667 76.5010625,15.8559708 L76.5393125,14.9075833 C76.5619792,14.3377646 77.0305417,13.8875479 77.60075,13.8875479 L78.5768333,13.8875479 C79.1636875,13.8875479 79.6393333,14.3632646 79.6393333,14.9500479 L79.6393333,28.1226042 C79.6393333,28.7094583 79.1636875,29.1851042 78.5768333,29.1851042 L77.60075,29.1851042 C77.0305417,29.1851042 76.5619792,28.7349583 76.5393125,28.1651042 L76.5010625,27.2166458 Z M76.0859792,21.5363438 C76.0859792,24.1359271 73.9783333,26.2432896 71.37875,26.2432896 C68.7791667,26.2432896 66.671875,24.1359271 66.671875,21.5363438 C66.671875,18.9367604 68.7791667,16.8293979 71.37875,16.8293979 C73.9783333,16.8293979 76.0859792,18.9367604 76.0859792,21.5363438 Z" id="Shape" fill="#4C4C53"/>
            <path d="M124.308604,21.3030896 C124.308604,21.3408083 124.308604,21.35965 124.305417,21.4024333 C124.26575,21.8918562 123.821271,22.3361583 123.331813,22.3757542 C123.289313,22.379225 123.250354,22.379225 123.172438,22.379225 L112.041688,22.379225 C112.25525,23.5232542 112.808813,24.4345604 113.702375,25.1132146 C114.615417,25.7724958 115.742021,26.1021188 117.082542,26.1021188 C118.175146,26.1021188 119.144854,25.8723708 119.991313,25.4129104 C120.576042,25.0955417 120.868583,24.9368396 121.026542,24.905425 C121.349542,24.84125 121.51175,24.8704688 121.791542,25.0433021 C121.928958,25.1279125 122.084792,25.3068375 122.396813,25.6647229 C122.627021,25.9289313 122.742125,26.0610708 122.809771,26.2427938 C122.907875,26.5066125 122.869271,26.9205625 122.724063,27.16175 C122.623833,27.3275 122.522188,27.4075417 122.318896,27.5679792 C121.813854,27.9657083 121.243646,28.2915417 120.608271,28.545125 C119.53975,28.9718958 118.335583,29.1851042 116.995063,29.1851042 C115.2855,29.1851042 113.780292,28.8458125 112.478729,28.1672292 C111.177167,27.4886458 110.167083,26.5480854 109.448125,25.3459021 C108.749,24.1243458 108.399083,22.7476292 108.399083,21.2158229 C108.399083,19.703425 108.739083,18.3461167 109.419083,17.1439333 C110.118563,15.9223771 111.080125,14.9722542 112.303771,14.2936 C113.527771,13.6149458 114.906896,13.2756187 116.4415,13.2756187 C117.956625,13.2756187 119.306708,13.6149458 120.49175,14.2936 C121.695917,14.9528458 122.628438,15.8932646 123.288958,17.1148562 C123.968958,18.3170396 124.308604,19.7130937 124.308604,21.3030896 Z M116.4415,16.1841417 C115.275938,16.1841417 114.285333,16.5331375 113.469333,17.2312 C112.672813,17.9098187 112.18725,18.8211604 112.012292,19.9651896 L120.841313,19.9651896 C120.685833,18.8405688 120.209833,17.9292271 119.413667,17.2312 C118.617146,16.5331375 117.626542,16.1841417 116.4415,16.1841417 Z" id="Shape" fill="#4C4C53" fill-rule="nonzero"/>
            <path d="M62.5065208,21.3030896 C62.5065208,21.3408083 62.5065208,21.35965 62.5029792,21.4024333 C62.4633125,21.8918562 62.0191875,22.3361583 61.5297292,22.3757542 C61.486875,22.379225 61.4479167,22.379225 61.3703542,22.379225 L50.23925,22.379225 C50.4528125,23.5232542 51.0067292,24.4345604 51.9002917,25.1132146 C52.8129792,25.7724958 53.9399375,26.1021188 55.2801042,26.1021188 C56.3727083,26.1021188 57.3424167,25.8723708 58.1892292,25.4129104 C58.7739583,25.0955417 59.0661458,24.9368396 59.2244583,24.905425 C59.5471042,24.84125 59.7093125,24.8704688 59.9894583,25.0433021 C60.1265208,25.1279125 60.2823542,25.3068375 60.594375,25.6647229 C60.8249375,25.9289313 60.9400417,26.0610708 61.0076875,26.2427938 C61.1057917,26.5066125 61.0668333,26.9205625 60.921625,27.16175 C60.8213958,27.3275 60.71975,27.4075417 60.5168125,27.5679792 C60.0117708,27.9657083 59.4415625,28.2915417 58.8058333,28.545125 C57.7376667,28.9718958 56.5331458,29.1851042 55.192625,29.1851042 C53.4834167,29.1851042 51.9778542,28.8458125 50.6762917,28.1672292 C49.3747292,27.4886458 48.3646458,26.5480854 47.6460417,25.3459021 C46.9465625,24.1243458 46.597,22.7476292 46.597,21.2158229 C46.597,19.703425 46.937,18.3461167 47.617,17.1439333 C48.316125,15.9223771 49.2776875,14.9722542 50.5016875,14.2936 C51.7253333,13.6149458 53.1044583,13.2756187 54.6390625,13.2756187 C56.1541875,13.2756187 57.5042708,13.6149458 58.6893125,14.2936 C59.8938333,14.9528458 60.826,15.8932646 61.4865208,17.1148562 C62.1665208,18.3170396 62.5065208,19.7130937 62.5065208,21.3030896 Z M54.6390625,16.1841417 C53.4735,16.1841417 52.4828958,16.5331375 51.6668958,17.2312 C50.8707292,17.9098187 50.3848125,18.8211604 50.2102083,19.9651896 L59.038875,19.9651896 C58.88375,18.8405688 58.40775,17.9292271 57.6112292,17.2312 C56.8147083,16.5331375 55.8241042,16.1841417 54.6390625,16.1841417 Z" id="Shape" fill="#4C4C53" fill-rule="nonzero"/>
            <g id="Clipped">
                <mask id="mask-2" fill="white">
                    <use xlink:href="#path-1"/>
                </mask>
                <g id="Path"/>
                <g id="Group" mask="url(#mask-2)">
                    <g transform="translate(-5.666667, -13.458333)">
                        <path d="M29.9575417,13.9134021 C18.8947208,19.4147438 8.88359792,37.0745208 6.24321458,45.1215417 C5.63939583,46.9621458 5.10750833,48.9766458 6.85135417,45.7636458 C7.89657083,43.8376875 10.4831563,41.1268958 16.3814479,40.1542125 C20.3014,39.5078229 22.3284729,38.7008188 24.63725,36.4745625 C25.0459938,36.0804813 25.262,35.2627104 24.7222146,35.4387667 C24.0965083,35.6429083 23.4517833,34.7826021 24.0540083,34.5170833 C26.2372333,33.5543875 27.8903771,31.7890083 28.9252521,29.5688438 C29.1846792,29.0123417 28.596125,28.4618958 28.0015854,28.61525 C26.9311521,28.8913938 25.9372896,28.9350271 25.0779396,28.8631667 C24.3314979,28.8007625 24.4413958,27.9047563 25.1691375,27.727425 C27.3722667,27.1905792 29.5715354,26.0919188 30.8377875,24.7130417 C32.0157104,23.4303208 31.6735854,22.1025854 32.0516229,20.1284604 C32.4883104,17.8479813 32.0515521,15.7066542 31.4766333,14.3963792 C31.2195792,13.8104813 30.5304063,13.6285104 29.9575417,13.9134021 Z" id="Path" fill="#6160A2" fill-rule="nonzero"/>
                        <path d="M40.2042917,20.4161854 C40.2042917,31.5189563 31.3228896,40.6632917 20.1911833,40.6632917 C9.05947708,40.6632917 0.17796875,31.5189563 0.17796875,20.4161854 C0.17796875,9.31337917 9.05947708,0.169185417 20.1911833,0.169185417 C31.3228896,0.169185417 40.2042917,9.31337917 40.2042917,20.4161854 Z M20.1911833,35.35065 C28.3101708,35.35065 34.8917917,28.6642667 34.8917917,20.4161854 C34.8917917,12.1680688 28.3101708,5.48167479 20.1911833,5.48167479 C12.0721958,5.48167479 5.49046875,12.1680688 5.49046875,20.4161854 C5.49046875,28.6642667 12.0721958,35.35065 20.1911833,35.35065 Z" id="Shape" fill="#90DF9B" fill-rule="evenodd"/>
                        <path d="M34.8917917,20.41615 C34.8917917,28.6642667 28.3101708,35.35065 20.1911833,35.35065 C12.0721958,35.35065 5.49046875,28.6642667 5.49046875,20.41615 C5.49046875,12.1680688 12.0721958,5.48167125 20.1911833,5.48167125 C28.3101708,5.48167125 34.8917917,12.1680688 34.8917917,20.41615 Z" id="Path" fill="#8E8CEE" fill-rule="nonzero"/>
                    </g>
                </g>
            </g>
        </g>
    </g>
</svg>