<svg width="150px" height="57px" viewBox="0 0 169 64">
    <path fill="#178BFF" d="M27.681 28.686c.067 0 .1 0 .121-.02.02-.021.02-.055.02-.121v-3.827c0-1.03-.348-1.935-1.046-2.715-.67-.78-1.522-1.17-2.555-1.17-1.033 0-1.899.39-2.597 1.17-.67.808-1.005 1.713-1.005 2.715v3.827c0 .066 0 .1.02.12.021.021.055.021.122.021h6.92z"/><path fill="#178BFF" fill-rule="evenodd" d="M64 32c0 17.673-14.327 32-32 32C14.327 64 0 49.673 0 32 0 14.327 14.327 0 32 0c17.673 0 32 14.327 32 32zm-13.54-3.314c1.354 0 2.031 0 2.452.42.42.421.42 1.098.42 2.452v.564c0 1.353 0 2.03-.42 2.45-.42.421-1.098.421-2.451.421h-.131c-.067 0-.1 0-.12.021-.022.02-.022.054-.022.12v9.236c0 1.354 0 2.031-.42 2.452-.42.42-1.098.42-2.451.42h-1.838c-1.353 0-2.03 0-2.45-.42-.421-.42-.421-1.098-.421-2.452v-9.235c0-.067 0-.1-.021-.12-.02-.022-.054-.022-.12-.022h-6.922c-.067 0-.1 0-.12.021-.021.02-.021.054-.021.12v9.236c0 1.354 0 2.031-.42 2.452-.421.42-1.098.42-2.452.42h-1.837c-1.354 0-2.031 0-2.452-.42-.42-.42-.42-1.098-.42-2.452v-9.235c0-.067 0-.1-.02-.12-.022-.022-.055-.022-.122-.022h-6.92c-.067 0-.1 0-.121.021-.021.02-.021.054-.021.12v9.236c0 1.354 0 2.031-.42 2.452-.421.42-1.098.42-2.452.42H15.91c-1.354 0-2.03 0-2.451-.42-.42-.42-.42-1.098-.42-2.452v-9.249c0-.053 0-.08-.015-.099a.068.068 0 0 0-.015-.015c-.018-.014-.045-.014-.099-.014-1.086 0-1.63 0-2.009-.279a1.436 1.436 0 0 1-.306-.306c-.28-.38-.28-.923-.28-2.01v-1.117c0-1.087 0-1.63.28-2.01.086-.117.19-.22.306-.306.38-.279.923-.279 2.01-.279.053 0 .08 0 .098-.014a.068.068 0 0 0 .015-.015c.014-.018.014-.045.014-.099v-3.84c0-2.896 1.145-5.346 3.435-7.351 2.233-1.894 4.816-2.84 7.748-2.84 1.368 0 2.666.222 3.895.668a12.728 12.728 0 0 1 3.389 1.813c.042.032.063.048.087.047.024 0 .045-.016.087-.048a11.494 11.494 0 0 1 3.348-1.812c1.228-.446 2.555-.669 3.979-.669 2.96 0 5.542.947 7.748 2.84 2.29 1.95 3.434 4.4 3.434 7.352v.54c0 .198 0 .297-.061.36-.062.06-.161.06-.36.06H43.03c-.199 0-.298 0-.36-.06-.061-.063-.061-.162-.061-.36v-.54c0-1.114-.335-2.047-1.006-2.799a2.853 2.853 0 0 0-1.172-.835 3.817 3.817 0 0 0-1.424-.25c-1.034 0-1.9.39-2.597 1.17-.556.665-.89 1.385-1.004 2.161a.145.145 0 0 0-.001.01v4.37c0 .066 0 .1.02.12.021.021.054.021.121.021h14.916z" clip-rule="evenodd"/><path fill="#178BFF" d="M69.76 24.546c-.718 0-1.077 0-1.319.15a.983.983 0 0 0-.397.47c-.109.263-.048.624.073 1.346.263 1.575.587 3.795.644 5.488.085 2.524-.353 5.94-.676 8.055-.11.716-.165 1.073-.055 1.334a.982.982 0 0 0 .398.463c.24.148.596.148 1.307.148h1.943c.598 0 .897 0 1.122-.124a1 1 0 0 0 .395-.394c.123-.225.123-.524.123-1.122v-8.69c0-.575.103-1.075.307-1.5a2.34 2.34 0 0 1 .875-.977 2.35 2.35 0 0 1 1.284-.352c.72 0 1.3.235 1.739.704.44.47.659 1.11.659 1.92v8.895c0 .598 0 .897.123 1.122a1 1 0 0 0 .395.394c.225.124.524.124 1.122.124h2.06c.599 0 .897 0 1.122-.124a1 1 0 0 0 .395-.394c.124-.225.124-.524.124-1.122v-8.78c0-.834.216-1.497.648-1.99.439-.5 1.041-.75 1.806-.75.712 0 1.292.232 1.739.694.447.455.67 1.117.67 1.989v8.837c0 .598 0 .897.124 1.122a1 1 0 0 0 .395.394c.225.124.523.124 1.121.124h2.277c.598 0 .897 0 1.122-.124a1 1 0 0 0 .395-.394c.123-.225.123-.524.123-1.122V30.25c0-1.84-.515-3.288-1.545-4.34-1.03-1.061-2.371-1.592-4.023-1.592-1.288 0-2.405.315-3.352.943-.947.622-1.584 1.451-1.91 2.489h-.181a4.082 4.082 0 0 0-1.648-2.5c-.864-.621-1.901-.932-3.114-.932-1.197 0-2.227.307-3.09.92-.864.614-1.478 1.451-1.841 2.512h-.194v-1.564c0-.598 0-.897-.123-1.122a1.001 1.001 0 0 0-.395-.395c-.225-.123-.524-.123-1.121-.123H69.76zm40.528 0c-.598 0-.897 0-1.122.123a1.007 1.007 0 0 0-.395.395c-.123.225-.123.524-.123 1.122v8.28c0 .674-.133 1.25-.398 1.727-.258.47-.61.83-1.057 1.08a3.025 3.025 0 0 1-1.488.363c-.849 0-1.519-.272-2.012-.818-.492-.545-.742-1.291-.75-2.238v-8.394c0-.598 0-.897-.124-1.122a.998.998 0 0 0-.394-.395c-.225-.123-.524-.123-1.122-.123h-2.277c-.597 0-.896 0-1.121.123a1 1 0 0 0-.395.395c-.124.225-.124.524-.124 1.122v9.484c.008 1.319.262 2.47.762 3.455.5.977 1.2 1.739 2.102 2.284.902.546 1.947.818 3.136.818 1.311 0 2.428-.31 3.353-.931a5.078 5.078 0 0 0 1.977-2.546h.182v1.61c0 .598 0 .897.123 1.122.092.166.229.303.395.394.225.124.524.124 1.122.124h2.015c.598 0 .897 0 1.122-.124a.998.998 0 0 0 .394-.394c.124-.225.124-.524.124-1.122V26.186c0-.598 0-.897-.124-1.122a.998.998 0 0 0-.394-.395c-.225-.123-.524-.123-1.122-.123h-2.265zm15.723 4.09c.597 0 .896 0 1.121-.123a1 1 0 0 0 .395-.395c.124-.225.124-.524.124-1.122v-.81c0-.598 0-.897-.124-1.122a1 1 0 0 0-.395-.395c-.225-.123-.524-.123-1.121-.123h-1.69v-.978c0-.5.121-.894.364-1.182.242-.287.689-.431 1.341-.431.257 0 .53.022.818.068.406.062.826-.18.914-.582l.391-1.794c.116-.537.175-.805.095-1.058a1.067 1.067 0 0 0-.323-.477c-.206-.167-.462-.21-.975-.294a12.467 12.467 0 0 0-2.182-.182c-1.182 0-2.223.224-3.125.67a4.808 4.808 0 0 0-2.113 2c-.508.887-.762 2.005-.762 3.353v.887h-.701c-.598 0-.896 0-1.121.123a.994.994 0 0 0-.395.395c-.124.225-.124.524-.124 1.122v.81c0 .598 0 .897.124 1.122a.994.994 0 0 0 .395.395c.225.123.523.123 1.121.123h.701V40.36c0 .598 0 .897.124 1.122a.998.998 0 0 0 .394.394c.225.124.524.124 1.122.124h2.277c.598 0 .897 0 1.122-.124a.998.998 0 0 0 .394-.394c.124-.225.124-.524.124-1.122V28.636h1.69zm12.593 0c.598 0 .897 0 1.122-.123.166-.092.303-.229.395-.395.123-.225.123-.524.123-1.122v-.81c0-.598 0-.897-.123-1.122a1.007 1.007 0 0 0-.395-.395c-.225-.123-.524-.123-1.122-.123h-1.689v-.978c0-.5.121-.894.363-1.182.243-.287.69-.431 1.341-.431.258 0 .531.022.819.068.406.062.826-.18.913-.582l.391-1.794c.117-.537.176-.805.096-1.058a1.067 1.067 0 0 0-.323-.477c-.206-.167-.463-.21-.975-.294a12.467 12.467 0 0 0-2.182-.182c-1.182 0-2.224.224-3.125.67a4.81 4.81 0 0 0-2.114 2c-.507.887-.761 2.005-.761 3.353v.887h-.701c-.598 0-.897 0-1.122.123a.998.998 0 0 0-.394.395c-.124.225-.124.524-.124 1.122v.81c0 .598 0 .897.124 1.122a.998.998 0 0 0 .394.395c.225.123.524.123 1.122.123h.701V40.36c0 .598 0 .897.124 1.122a.998.998 0 0 0 .394.394c.225.124.524.124 1.122.124h2.277c.598 0 .897 0 1.122-.124a.998.998 0 0 0 .394-.394c.124-.225.124-.524.124-1.122V28.636h1.689zm5.954-4.09c-.598 0-.897 0-1.122.123a1.007 1.007 0 0 0-.395.395c-.123.225-.123.524-.123 1.122V40.36c0 .598 0 .897.123 1.122.092.166.229.303.395.394.225.124.524.124 1.122.124h2.276c.598 0 .897 0 1.122-.124.166-.091.303-.228.395-.394.123-.225.123-.524.123-1.122V26.186c0-.598 0-.897-.123-1.122a1.007 1.007 0 0 0-.395-.395c-.225-.123-.524-.123-1.122-.123h-2.276zm-.868-2.807c.561.515 1.231.772 2.012.772.788 0 1.458-.257 2.011-.772.561-.523.841-1.152.841-1.887 0-.727-.28-1.348-.841-1.863-.553-.523-1.223-.785-2.011-.785-.781 0-1.451.262-2.012.785-.56.515-.841 1.136-.841 1.863 0 .735.281 1.364.841 1.887zM155.928 42c.598 0 .897 0 1.122-.124a.998.998 0 0 0 .394-.394c.124-.225.124-.524.124-1.122v-8.315c.008-.666.129-1.234.364-1.704.242-.47.583-.83 1.023-1.08.447-.257.962-.386 1.545-.386.879 0 1.564.273 2.057.818.5.546.746 1.303.738 2.273v8.394c0 .598 0 .897.124 1.122a1 1 0 0 0 .395.394c.225.124.524.124 1.121.124h2.277c.598 0 .897 0 1.122-.124.166-.091.303-.228.395-.394.123-.225.123-.524.123-1.122v-9.485c.008-1.31-.242-2.454-.75-3.432-.5-.985-1.204-1.75-2.113-2.295-.902-.553-1.966-.83-3.194-.83-1.287 0-2.397.307-3.329.92a4.903 4.903 0 0 0-1.977 2.512h-.194v-1.564c0-.598 0-.897-.123-1.122a1.007 1.007 0 0 0-.395-.395c-.225-.123-.524-.123-1.122-.123h-2.004c-.597 0-.896 0-1.121.123a.994.994 0 0 0-.395.395c-.124.225-.124.524-.124 1.122V40.36c0 .598 0 .897.124 1.122a.994.994 0 0 0 .395.394c.225.124.524.124 1.121.124h2.277z"/>
</svg>