<?xml version="1.0" encoding="UTF-8"?>
<svg xmlns="http://www.w3.org/2000/svg" id="Ebene_1" data-name="Ebene 1" viewBox="0 0 1920 1080">
  <defs>
    <clipPath id="clip-path">
      <path class="cls-1" d="M1768 1146V-66H152v1212zm-148.89-413.62l-251.37 250.74-906 .32-178.93-178.82-.32-397.62 288.38-289 776.12.88 272.12 271.55v342z"></path>
    </clipPath>
    <clipPath id="clip-path-2">
      <path clip-path="url(#clip-path)" fill="none" d="M0 0h1920v1080H0z"></path>
    </clipPath>
    <clipPath id="clip-path-3">
      <path class="cls-1" d="M1619.11 732.38v-342L1347 118.86 570.87 118 282.49 407l.32 397.62 178.93 178.82 906-.32 251.38-250.74zm-348-79.26l-74.74 72.72H642.86l-60.6-60.6v-252.5l68.41-66.91 543.79.3 76.62 74.69v232.3z"></path>
    </clipPath>
    <clipPath id="clip-path-4">
      <path class="cls-1" d="M586.38 415.78l67.16-65.66 539.48.3 74.02 71.68v229.52l-71.85 70.18-549.41-.29-59.48-57.79.08-247.94z"></path>
    </clipPath>
    <style>.cls-1,.cls-14,.cls-16,.cls-17,.cls-18,.cls-24{fill:none}.cls-24{stroke:#fff}.cls-6{fill:#fff}.cls-16{stroke:#59821f}.cls-14,.cls-16,.cls-17,.cls-18{stroke-miterlimit:3.86}.cls-14{stroke-width:1.51px}.cls-17{stroke:#008291}.cls-14,.cls-18{stroke:#bf5900}.cls-24{stroke-miterlimit:10}.cls-16,.cls-17,.cls-18,.cls-24{stroke-width:2.02px}.cls-19{fill:#bf5900}.cls-20{fill:#1a1a1a}.cls-21{fill:#008291}.cls-22{fill:#59821f}.cls-23{fill:#f0d722}</style>
  </defs>
  <path fill="#dee6d2" d="M0 0v1080h1920V0H0z"></path>
  <path fill="#cce6e9" d="M1367.74 983.12l251.37-250.74V390.41l-272.12-271.55-776.12-.88L282.49 407l.32 397.62 178.93 178.82 906-.32z"></path>
  <path stroke-linejoin="round" stroke-width="8.08" stroke="#fff" fill="none" d="M1367.74 983.12l251.37-250.74V390.41l-272.12-271.55-776.12-.88L282.49 407l.32 397.62 178.93 178.82 906-.32h0z"></path>
  <path class="cls-6" d="M575.04 407.89l69.33-69.4 556.98.32 76.41 75.76v242.6l-74.18 74.19-567.22-.31-61.41-61.08.09-262.08z"></path>
  <path fill="#f2decc" d="M586.38 415.78l67.16-65.66 539.48.3 74.02 71.68v229.52l-71.85 70.18-549.41-.29-59.48-57.79.08-247.94z"></path>
  <g clip-path="url(#clip-path-2)">
    <path d="M1165.17 563l-27.34 27.6a9.1 9.1 0 01-2.24 1.8 9.27 9.27 0 01-3 .49H746.64m3.08 0h-44.29v-5.73M497.75 471.58l-5.33 4.69 31.82 31.87a6.08 6.08 0 005.16 2.2l167.8.31a7.06 7.06 0 015.13 2.15l78.13 78.08a9.93 9.93 0 002.12 1.53 10.2 10.2 0 003.19.5h3.39m47.37-.28h2.83a11.2 11.2 0 012.87.55 10.94 10.94 0 012.24 1.45l9.09 9.14a11.1 11.1 0 002.19 1.64 10.94 10.94 0 003.07.63h6.76a6.17 6.17 0 005-2.14l4.37-4.37a10.17 10.17 0 001.59-2.23 10.5 10.5 0 00.52-3.19V550a11.51 11.51 0 01.53-2.83 11.91 11.91 0 011.62-2.46l7.66-7.77a9.52 9.52 0 012.23-1.69 9.66 9.66 0 013-.49h154.38a10 10 0 003-.52 10.29 10.29 0 002.38-1.77l39.77-39.69a12.42 12.42 0 001.53-2.44 12.21 12.21 0 00.56-2.9v-7.94m-572 371.6l-4.32-4.78 251.26-251.69a6.43 6.43 0 015.94-1.72m29.31 0a6.54 6.54 0 00-5 2 7.9 7.9 0 00-2.15 5.15v122.77m73.21-272.73l.13 8.94 35.91 35.75m190.56-12.71a12.11 12.11 0 002.37 1.57 11.83 11.83 0 003 .6h73.36a10.69 10.69 0 012.92.55 10.41 10.41 0 012.21 1.55l43.81 43.68a11.37 11.37 0 002.3 1.61 11.81 11.81 0 002.92.61h152.79a7 7 0 015.11 2l31 30.7a7.61 7.61 0 005.19 2.1h3.45a6.66 6.66 0 005.21-2.15l176.45-176.46-4.89-5.12m-932.5-214L977.49 476a6 6 0 012 4.82v328.26m3.6-1.33h-3.91m271.34 110l-6 5.42-73.52-73.45a10.83 10.83 0 01-1.65-2.36 11.35 11.35 0 01-.56-3.12l-.12-159.84a11.85 11.85 0 00-.57-2.69 11.29 11.29 0 00-1.58-2.39l-34.8-34.8a10.6 10.6 0 00-2.39-1.66 10.4 10.4 0 00-2.7-.5H983.74a10.39 10.39 0 01-2.84-.52 10.6 10.6 0 01-2.18-1.51l-5-5a11.21 11.21 0 01-1.39-2 11.84 11.84 0 01-.71-3.12l-.08-26.4a6.71 6.71 0 00-2.09-5.14l-3.58-3.59a7.44 7.44 0 00-6-2.22m-32 .07a6.6 6.6 0 00-5.13 2.11l-3.74 3.82a9.85 9.85 0 00-1.75 2.38 10 10 0 00-.49 3l.08 25.45a10.07 10.07 0 01-.48 2.94 9.76 9.76 0 01-1.5 2.17l-42.39 42.32a10.5 10.5 0 01-2.4 1.7 10.25 10.25 0 01-2.69.47h-168.9a9.36 9.36 0 01-2.8-.42 9.08 9.08 0 01-2.28-1.72L654 638a10.25 10.25 0 01-1.62-2.28 10.56 10.56 0 01-.52-3V388.91a10.85 10.85 0 00-.49-2.72 10.67 10.67 0 00-1.52-2.28L615 349.07a7.93 7.93 0 00-5-2.06H502.34a12.21 12.21 0 00-3 .65 12.38 12.38 0 00-2.41 1.63l-76 75.91a10.61 10.61 0 00-1.83 2.6 11 11 0 00-.47 2.66l.07 9.66m647.59 11.65l-4.3-4.24a6.83 6.83 0 01-2.16-5.25l.31-210.18m43.12 487.35l-.07-114.23-.09-69.54a10.26 10.26 0 01.39-2.58 10.11 10.11 0 011.76-2.59l15-15a7.33 7.33 0 001.85-4.87 6.81 6.81 0 00-2.16-5L794.51 180.26a14.56 14.56 0 01-2.06-2.82 14.52 14.52 0 01-.87-4v-14a10.45 10.45 0 01.55-2.77 10.71 10.71 0 011.69-2.32l3.19-3.19a10.54 10.54 0 012.16-1.51 10.38 10.38 0 012.88-.55l47.39.08m-130.54 669l5.21-4.92a11 11 0 001.48-2.24 10.78 10.78 0 00.53-2.86l.35-247.87a6.58 6.58 0 012.31-5.36l60-60a12.08 12.08 0 001.53-2.29 12.59 12.59 0 00.56-4.31l.2-144.2a6.82 6.82 0 012.06-5.13l79.95-80M755.57 55.67l236.17 236.21c1.24 1.2 2.52 3.38.73 5.21L962.53 327a9.26 9.26 0 00-1.63 2.26 9.4 9.4 0 00-.41 2.88v108.38a11.31 11.31 0 01-.44 3.09 11 11 0 01-1.68 2.56l-74.46 74.31a9.81 9.81 0 00-1.64 2.32 9.53 9.53 0 00-.42 2.77v18.22a10 10 0 00.57 3.32 10.24 10.24 0 001.67 2.23l25.09 25.09a9.93 9.93 0 011.57 2.28 10.06 10.06 0 01.45 2.89v50.26a10.57 10.57 0 01-.54 2.87 10.69 10.69 0 01-1.55 2.26L646.84 896a6.74 6.74 0 01-5.14 2.16h-92.37a6.76 6.76 0 01-5.23-2.16l-37-36.94a6.26 6.26 0 00-5.12-2.1l-43.87.06a16.3 16.3 0 00-11.82 5l-47 47.08m484.5-110.8a14.42 14.42 0 01-.61 2.57 14.12 14.12 0 01-1.43 2.43l-161 161.49m.16-.16l-25.21 25.61a11.33 11.33 0 01-2.4 1.63 10.91 10.91 0 01-2.78.52h-45.66v7.16m296.13 14L940.71 861a10.14 10.14 0 00-.5-3 10 10 0 00-1.7-2.32l-52.71-52.23a10.68 10.68 0 01-1.43-2 10.25 10.25 0 01-.6-3l-.08-135.22a7.52 7.52 0 012.16-5l5.17-4.95m-11.68-473.74a7.54 7.54 0 00-5.28-2.13l-184.43.05a9.52 9.52 0 01-2.81-.4 9.33 9.33 0 01-2.34-1.74l-73.94-73.66m1021.12 521.39l-265.29.17a13.51 13.51 0 01-3.23-.7c-1.1-.49-6.8-6-2.55-1.74l-50.31-50.33a7.46 7.46 0 00-5.16-2.05l-15.16.11m1.32 424L1417.8 866a6.09 6.09 0 002.2-5.26l-.17-51a10.12 10.12 0 00-.29-2.35 10.52 10.52 0 00-1.74-2.82m-45-45.12l160.3 160.64M987.59 302l233.65-233.19m235.68 685.9v7.16h-78.64l-2.78-.36-2.24-1.56-34.87-34.27a6.31 6.31 0 00-5.19-2.34l-157.07.16M717.15 555c3.93 0 5.41.31 7.19-1.47l96.75-96.88c5.45-5.45 6.51-7.14 13.8-7.21l220.24.07a12.06 12.06 0 012.93.62 11.65 11.65 0 012.18 1.41l114.7 114.87a10.35 10.35 0 002.12 1.48 10.11 10.11 0 002.89.53h119.87a7.25 7.25 0 005.53-2.54l58.79-58.65a7.91 7.91 0 015.27-2.3h283.34a7.37 7.37 0 005.64-2.72l33.56-34a10.24 10.24 0 001.61-2.35 10.46 10.46 0 00.45-2.83l-.09-116.79h-5.73M1435 411.89a11.91 11.91 0 01.65-2.75 12.44 12.44 0 011.63-2.32l92.52-92.67M414.31 441.25h7.38c3 0 5.75.25 8 2.47l66.69 66.47 41.91 41.91a14.69 14.69 0 002.52 1.86 14.33 14.33 0 004.08 1l172.3.11m-167-.22c-4.41 0-9.87.67-13 3.84L429.07 666c-3.18 3.17-3.65 7.25-3.65 11.37l.07 200.63c0 4.53-1.06 6.1-4 9.08l-57 57.2c-4.86 4.87-5.31 6.6-13 6.6h-60.12m1124.18-446h4.51a6.81 6.81 0 005.18-2.36l7.6-7.6a12.29 12.29 0 001.51-2.31 12.42 12.42 0 00.63-2.94V304.52a10 10 0 00-.5-2.83 10.25 10.25 0 00-1.67-2.34l-89.34-89.18 6.64-6.25M783.45 83.71l22.43 22.57a11.46 11.46 0 002.14 1.46 11.3 11.3 0 002.93.63h10a10 10 0 003-.54 9.83 9.83 0 002.34-1.84l2.9-2.9a6.21 6.21 0 015.27-2.08l246.68-.12a12.11 12.11 0 012.81.59 12.23 12.23 0 012.42 1.55l40.51 40.38a11.1 11.1 0 011.55 2.26 10.94 10.94 0 01.51 2.94v8.89a8.83 8.83 0 01-.37 2.92 9.23 9.23 0 01-1.59 2.21l-2 2.05m-143.49 143.2l-3.38 3.34c-3.05 3-2.78 5.77-.49 8.11l26.87 26.55a6.36 6.36 0 005.18 2.21h4.13m254.43 304.07a11.27 11.27 0 00.63 3 11.5 11.5 0 001.59 2.26l70.46 70.48" stroke-width="1.51" stroke-miterlimit="3.86" stroke="#59821f" fill="none"></path>
  </g>
  <g clip-path="url(#clip-path-3)">
    <path d="M1165.17 563l-27.34 27.6a9.1 9.1 0 01-2.24 1.8 9.27 9.27 0 01-3 .49H746.64m3.08 0h-44.29v-5.73M497.75 471.58l-5.33 4.69 31.82 31.87a6.08 6.08 0 005.16 2.2l167.8.31a7.06 7.06 0 015.13 2.15l78.13 78.08a9.93 9.93 0 002.12 1.53 10.2 10.2 0 003.19.5h3.39m47.37-.28h2.83a11.2 11.2 0 012.87.55 10.94 10.94 0 012.24 1.45l9.09 9.14a11.1 11.1 0 002.19 1.64 10.94 10.94 0 003.07.63h6.76a6.17 6.17 0 005-2.14l4.37-4.37a10.17 10.17 0 001.59-2.23 10.5 10.5 0 00.52-3.19V550a11.51 11.51 0 01.53-2.83 11.91 11.91 0 011.62-2.46l7.66-7.77a9.52 9.52 0 012.23-1.69 9.66 9.66 0 013-.49h154.38a10 10 0 003-.52 10.29 10.29 0 002.38-1.77l39.77-39.69a12.42 12.42 0 001.53-2.44 12.21 12.21 0 00.56-2.9v-7.94m-572 371.6l-4.32-4.78 251.26-251.69a6.43 6.43 0 015.94-1.72m29.31 0a6.54 6.54 0 00-5 2 7.9 7.9 0 00-2.15 5.15v122.77m73.21-272.73l.13 8.94 35.91 35.75m190.56-12.71a12.11 12.11 0 002.37 1.57 11.83 11.83 0 003 .6h73.36a10.69 10.69 0 012.92.55 10.41 10.41 0 012.21 1.55l43.81 43.68a11.37 11.37 0 002.3 1.61 11.81 11.81 0 002.92.61h152.79a7 7 0 015.11 2l31 30.7a7.61 7.61 0 005.19 2.1h3.45a6.66 6.66 0 005.21-2.15l176.45-176.46-4.89-5.12m-932.5-214L977.49 476a6 6 0 012 4.82v328.26m3.6-1.33h-3.91m271.34 110l-6 5.42-73.52-73.45a10.83 10.83 0 01-1.65-2.36 11.35 11.35 0 01-.56-3.12l-.12-159.84a11.85 11.85 0 00-.57-2.69 11.29 11.29 0 00-1.58-2.39l-34.8-34.8a10.6 10.6 0 00-2.39-1.66 10.4 10.4 0 00-2.7-.5H983.74a10.39 10.39 0 01-2.84-.52 10.6 10.6 0 01-2.18-1.51l-5-5a11.21 11.21 0 01-1.39-2 11.84 11.84 0 01-.71-3.12l-.08-26.4a6.71 6.71 0 00-2.09-5.14l-3.58-3.59a7.44 7.44 0 00-6-2.22m-32 .07a6.6 6.6 0 00-5.13 2.11l-3.74 3.82a9.85 9.85 0 00-1.75 2.38 10 10 0 00-.49 3l.08 25.45a10.07 10.07 0 01-.48 2.94 9.76 9.76 0 01-1.5 2.17l-42.39 42.32a10.5 10.5 0 01-2.4 1.7 10.25 10.25 0 01-2.69.47h-168.9a9.36 9.36 0 01-2.8-.42 9.08 9.08 0 01-2.28-1.72L654 638a10.25 10.25 0 01-1.62-2.28 10.56 10.56 0 01-.52-3V388.91a10.85 10.85 0 00-.49-2.72 10.67 10.67 0 00-1.52-2.28L615 349.07a7.93 7.93 0 00-5-2.06H502.34a12.21 12.21 0 00-3 .65 12.38 12.38 0 00-2.41 1.63l-76 75.91a10.61 10.61 0 00-1.83 2.6 11 11 0 00-.47 2.66l.07 9.66m647.59 11.65l-4.3-4.24a6.83 6.83 0 01-2.16-5.25l.31-210.18m43.12 487.35l-.07-114.23-.09-69.54a10.26 10.26 0 01.39-2.58 10.11 10.11 0 011.76-2.59l15-15a7.33 7.33 0 001.85-4.87 6.81 6.81 0 00-2.16-5L794.51 180.26a14.56 14.56 0 01-2.06-2.82 14.52 14.52 0 01-.87-4v-14a10.45 10.45 0 01.55-2.77 10.71 10.71 0 011.69-2.32l3.19-3.19a10.54 10.54 0 012.16-1.51 10.38 10.38 0 012.88-.55l47.39.08m-130.54 669l5.21-4.92a11 11 0 001.48-2.24 10.78 10.78 0 00.53-2.86l.35-247.87a6.58 6.58 0 012.31-5.36l60-60a12.08 12.08 0 001.53-2.29 12.59 12.59 0 00.56-4.31l.2-144.2a6.82 6.82 0 012.06-5.13l79.95-80M755.57 55.67l236.17 236.21c1.24 1.2 2.52 3.38.73 5.21L962.53 327a9.26 9.26 0 00-1.63 2.26 9.4 9.4 0 00-.41 2.88v108.38a11.31 11.31 0 01-.44 3.09 11 11 0 01-1.68 2.56l-74.46 74.31a9.81 9.81 0 00-1.64 2.32 9.53 9.53 0 00-.42 2.77v18.22a10 10 0 00.57 3.32 10.24 10.24 0 001.67 2.23l25.09 25.09a9.93 9.93 0 011.57 2.28 10.06 10.06 0 01.45 2.89v50.26a10.57 10.57 0 01-.54 2.87 10.69 10.69 0 01-1.55 2.26L646.84 896a6.74 6.74 0 01-5.14 2.16h-92.37a6.76 6.76 0 01-5.23-2.16l-37-36.94a6.26 6.26 0 00-5.12-2.1l-43.87.06a16.3 16.3 0 00-11.82 5l-47 47.08m484.5-110.8a14.42 14.42 0 01-.61 2.57 14.12 14.12 0 01-1.43 2.43l-161 161.49m.16-.16l-25.21 25.61a11.33 11.33 0 01-2.4 1.63 10.91 10.91 0 01-2.78.52h-45.66v7.16m296.13 14L940.71 861a10.14 10.14 0 00-.5-3 10 10 0 00-1.7-2.32l-52.71-52.23a10.68 10.68 0 01-1.43-2 10.25 10.25 0 01-.6-3l-.08-135.22a7.52 7.52 0 012.16-5l5.17-4.95m-11.68-473.74a7.54 7.54 0 00-5.28-2.13l-184.43.05a9.52 9.52 0 01-2.81-.4 9.33 9.33 0 01-2.34-1.74l-73.94-73.66m1021.12 521.39l-265.29.17a13.51 13.51 0 01-3.23-.7c-1.1-.49-6.8-6-2.55-1.74l-50.31-50.33a7.46 7.46 0 00-5.16-2.05l-15.16.11m1.32 424L1417.8 866a6.09 6.09 0 002.2-5.26l-.17-51a10.12 10.12 0 00-.29-2.35 10.52 10.52 0 00-1.74-2.82m-45-45.12l160.3 160.64M987.59 302l233.65-233.19m235.68 685.9v7.16h-78.64l-2.78-.36-2.24-1.56-34.87-34.27a6.31 6.31 0 00-5.19-2.34l-157.07.16M717.15 555c3.93 0 5.41.31 7.19-1.47l96.75-96.88c5.45-5.45 6.51-7.14 13.8-7.21l220.24.07a12.06 12.06 0 012.93.62 11.65 11.65 0 012.18 1.41l114.7 114.87a10.35 10.35 0 002.12 1.48 10.11 10.11 0 002.89.53h119.87a7.25 7.25 0 005.53-2.54l58.79-58.65a7.91 7.91 0 015.27-2.3h283.34a7.37 7.37 0 005.64-2.72l33.56-34a10.24 10.24 0 001.61-2.35 10.46 10.46 0 00.45-2.83l-.09-116.79h-5.73M1435 411.89a11.91 11.91 0 01.65-2.75 12.44 12.44 0 011.63-2.32l92.52-92.67M414.31 441.25h7.38c3 0 5.75.25 8 2.47l66.69 66.47 41.91 41.91a14.69 14.69 0 002.52 1.86 14.33 14.33 0 004.08 1l172.3.11m-167-.22c-4.41 0-9.87.67-13 3.84L429.07 666c-3.18 3.17-3.65 7.25-3.65 11.37l.07 200.63c0 4.53-1.06 6.1-4 9.08l-57 57.2c-4.86 4.87-5.31 6.6-13 6.6h-60.12m1124.18-446h4.51a6.81 6.81 0 005.18-2.36l7.6-7.6a12.29 12.29 0 001.51-2.31 12.42 12.42 0 00.63-2.94V304.52a10 10 0 00-.5-2.83 10.25 10.25 0 00-1.67-2.34l-89.34-89.18 6.64-6.25M783.45 83.71l22.43 22.57a11.46 11.46 0 002.14 1.46 11.3 11.3 0 002.93.63h10a10 10 0 003-.54 9.83 9.83 0 002.34-1.84l2.9-2.9a6.21 6.21 0 015.27-2.08l246.68-.12a12.11 12.11 0 012.81.59 12.23 12.23 0 012.42 1.55l40.51 40.38a11.1 11.1 0 011.55 2.26 10.94 10.94 0 01.51 2.94v8.89a8.83 8.83 0 01-.37 2.92 9.23 9.23 0 01-1.59 2.21l-2 2.05m-143.49 143.2l-3.38 3.34c-3.05 3-2.78 5.77-.49 8.11l26.87 26.55a6.36 6.36 0 005.18 2.21h4.13m254.43 304.07a11.27 11.27 0 00.63 3 11.5 11.5 0 001.59 2.26l70.46 70.48" stroke="#008291" stroke-width="1.51" stroke-miterlimit="3.86" fill="none"></path>
  </g>
  <path d="M582.51 412.71l67.56-66.4.59-.58h.82l542.69.3h.83l.58.58 74.42 72.48.61.59v233.81l-.61.6-72.27 71-.59.58h-.83l-552.67-.29h-.82l-.59-.58-59.83-58.44-.61-.6v-.85l.08-250.73v-.85l.6-.59zM586 415l66.36-65.23 541 .31 73.26 71.31V651.8l-71.09 69.8-551-.29L585.87 664q0-124.51.08-249z" stroke-width="2.02" stroke-miterlimit="10" stroke="#bf5900" fill="none"></path>
  <g clip-path="url(#clip-path-4)">
    <path class="cls-14" d="M1165.17 563l-27.34 27.6a9.1 9.1 0 01-2.24 1.8 9.27 9.27 0 01-3 .49H746.64m3.08 0h-44.29v-5.73M497.75 471.58l-5.33 4.69 31.82 31.87a6.08 6.08 0 005.16 2.2l167.8.31a7.06 7.06 0 015.13 2.15l78.13 78.08a9.93 9.93 0 002.12 1.53 10.2 10.2 0 003.19.5h3.39m47.37-.28h2.83a11.2 11.2 0 012.87.55 10.94 10.94 0 012.24 1.45l9.09 9.14a11.1 11.1 0 002.19 1.64 10.94 10.94 0 003.07.63h6.76a6.17 6.17 0 005-2.14l4.37-4.37a10.17 10.17 0 001.59-2.23 10.5 10.5 0 00.52-3.19V550a11.51 11.51 0 01.53-2.83 11.91 11.91 0 011.62-2.46l7.66-7.77a9.52 9.52 0 012.23-1.69 9.66 9.66 0 013-.49h154.38a10 10 0 003-.52 10.29 10.29 0 002.38-1.77l39.77-39.69a12.42 12.42 0 001.53-2.44 12.21 12.21 0 00.56-2.9v-7.94m-572 371.6l-4.32-4.78 251.26-251.69a6.43 6.43 0 015.94-1.72m29.31 0a6.54 6.54 0 00-5 2 7.9 7.9 0 00-2.15 5.15v122.77m73.21-272.73l.13 8.94 35.91 35.75m190.56-12.71a12.11 12.11 0 002.37 1.57 11.83 11.83 0 003 .6h73.36a10.69 10.69 0 012.92.55 10.41 10.41 0 012.21 1.55l43.81 43.68a11.37 11.37 0 002.3 1.61 11.81 11.81 0 002.92.61h152.79a7 7 0 015.11 2l31 30.7a7.61 7.61 0 005.19 2.1h3.45a6.66 6.66 0 005.21-2.15l176.45-176.46-4.89-5.12m-932.5-214L977.49 476a6 6 0 012 4.82v328.26m3.6-1.33h-3.91m271.34 110l-6 5.42-73.52-73.45a10.83 10.83 0 01-1.65-2.36 11.35 11.35 0 01-.56-3.12l-.12-159.84a11.85 11.85 0 00-.57-2.69 11.29 11.29 0 00-1.58-2.39l-34.8-34.8a10.6 10.6 0 00-2.39-1.66 10.4 10.4 0 00-2.7-.5H983.74a10.39 10.39 0 01-2.84-.52 10.6 10.6 0 01-2.18-1.51l-5-5a11.21 11.21 0 01-1.39-2 11.84 11.84 0 01-.71-3.12l-.08-26.4a6.71 6.71 0 00-2.09-5.14l-3.58-3.59a7.44 7.44 0 00-6-2.22m-32 .07a6.6 6.6 0 00-5.13 2.11l-3.74 3.82a9.85 9.85 0 00-1.75 2.38 10 10 0 00-.49 3l.08 25.45a10.07 10.07 0 01-.48 2.94 9.76 9.76 0 01-1.5 2.17l-42.39 42.32a10.5 10.5 0 01-2.4 1.7 10.25 10.25 0 01-2.69.47h-168.9a9.36 9.36 0 01-2.8-.42 9.08 9.08 0 01-2.28-1.72L654 638a10.25 10.25 0 01-1.62-2.28 10.56 10.56 0 01-.52-3V388.91a10.85 10.85 0 00-.49-2.72 10.67 10.67 0 00-1.52-2.28L615 349.07a7.93 7.93 0 00-5-2.06H502.34a12.21 12.21 0 00-3 .65 12.38 12.38 0 00-2.41 1.63l-76 75.91a10.61 10.61 0 00-1.83 2.6 11 11 0 00-.47 2.66l.07 9.66m647.59 11.65l-4.3-4.24a6.83 6.83 0 01-2.16-5.25l.31-210.18m43.12 487.35l-.07-114.23-.09-69.54a10.26 10.26 0 01.39-2.58 10.11 10.11 0 011.76-2.59l15-15a7.33 7.33 0 001.85-4.87 6.81 6.81 0 00-2.16-5L794.51 180.26a14.56 14.56 0 01-2.06-2.82 14.52 14.52 0 01-.87-4v-14a10.45 10.45 0 01.55-2.77 10.71 10.71 0 011.69-2.32l3.19-3.19a10.54 10.54 0 012.16-1.51 10.38 10.38 0 012.88-.55l47.39.08m-130.54 669l5.21-4.92a11 11 0 001.48-2.24 10.78 10.78 0 00.53-2.86l.35-247.87a6.58 6.58 0 012.31-5.36l60-60a12.08 12.08 0 001.53-2.29 12.59 12.59 0 00.56-4.31l.2-144.2a6.82 6.82 0 012.06-5.13l79.95-80M755.57 55.67l236.17 236.21c1.24 1.2 2.52 3.38.73 5.21L962.53 327a9.26 9.26 0 00-1.63 2.26 9.4 9.4 0 00-.41 2.88v108.38a11.31 11.31 0 01-.44 3.09 11 11 0 01-1.68 2.56l-74.46 74.31a9.81 9.81 0 00-1.64 2.32 9.53 9.53 0 00-.42 2.77v18.22a10 10 0 00.57 3.32 10.24 10.24 0 001.67 2.23l25.09 25.09a9.93 9.93 0 011.57 2.28 10.06 10.06 0 01.45 2.89v50.26a10.57 10.57 0 01-.54 2.87 10.69 10.69 0 01-1.55 2.26L646.84 896a6.74 6.74 0 01-5.14 2.16h-92.37a6.76 6.76 0 01-5.23-2.16l-37-36.94a6.26 6.26 0 00-5.12-2.1l-43.87.06a16.3 16.3 0 00-11.82 5l-47 47.08m484.5-110.8a14.42 14.42 0 01-.61 2.57 14.12 14.12 0 01-1.43 2.43l-161 161.49M941 1013.56L940.71 861a10.14 10.14 0 00-.5-3 10 10 0 00-1.7-2.32l-52.71-52.23a10.68 10.68 0 01-1.43-2 10.25 10.25 0 01-.6-3l-.08-135.22a7.52 7.52 0 012.16-5l5.17-4.95m-11.68-473.74a7.54 7.54 0 00-5.28-2.13l-184.43.05a9.52 9.52 0 01-2.81-.4 9.33 9.33 0 01-2.34-1.74l-73.94-73.66m1021.12 521.39l-265.29.17a13.51 13.51 0 01-3.23-.7c-1.1-.49-6.8-6-2.55-1.74l-50.31-50.33a7.46 7.46 0 00-5.16-2.05l-15.16.11"></path>
    <path d="M1456.92 754.71v7.16h-78.64l-2.78-.36-2.24-1.56-34.87-34.27a6.31 6.31 0 00-5.19-2.34l-157.07.16" stroke="#989b9a" stroke-width="1.51" stroke-miterlimit="3.86" fill="none"></path>
    <path class="cls-14" d="M717.15 555c3.93 0 5.41.31 7.19-1.47l96.75-96.88c5.45-5.45 6.51-7.14 13.8-7.21l220.24.07a12.06 12.06 0 012.93.62 11.65 11.65 0 012.18 1.41l114.7 114.87a10.35 10.35 0 002.12 1.48 10.11 10.11 0 002.89.53h119.87a7.25 7.25 0 005.53-2.54l58.79-58.65a7.91 7.91 0 015.27-2.3h283.34a7.37 7.37 0 005.64-2.72l33.56-34a10.24 10.24 0 001.61-2.35 10.46 10.46 0 00.45-2.83l-.09-116.79h-5.73M1435 411.89a11.91 11.91 0 01.65-2.75 12.44 12.44 0 011.63-2.32l92.52-92.67M414.31 441.25h7.38c3 0 5.75.25 8 2.47l66.69 66.47 41.91 41.91a14.69 14.69 0 002.52 1.86 14.33 14.33 0 004.08 1l172.3.11m-167-.22c-4.41 0-9.87.67-13 3.84L429.07 666c-3.18 3.17-3.65 7.25-3.65 11.37l.07 200.63c0 4.53-1.06 6.1-4 9.08l-57 57.2c-4.86 4.87-5.31 6.6-13 6.6h-60.12m1124.18-446h4.51a6.81 6.81 0 005.18-2.36l7.6-7.6a12.29 12.29 0 001.51-2.31 12.42 12.42 0 00.63-2.94V304.52a10 10 0 00-.5-2.83 10.25 10.25 0 00-1.67-2.34l-89.34-89.18 6.64-6.25M783.45 83.71l22.43 22.57a11.46 11.46 0 002.14 1.46 11.3 11.3 0 002.93.63h10a10 10 0 003-.54 9.83 9.83 0 002.34-1.84l2.9-2.9a6.21 6.21 0 015.27-2.08l246.68-.12a12.11 12.11 0 012.81.59 12.23 12.23 0 012.42 1.55l40.51 40.38a11.1 11.1 0 011.55 2.26 10.94 10.94 0 01.51 2.94v8.89a8.83 8.83 0 01-.37 2.92 9.23 9.23 0 01-1.59 2.21l-2 2.05m-143.49 143.2l-3.38 3.34c-3.05 3-2.78 5.77-.49 8.11l26.87 26.55a6.36 6.36 0 005.18 2.21h4.13m254.43 304.07a11.27 11.27 0 00.63 3 11.5 11.5 0 001.59 2.26l70.46 70.48"></path>
  </g>
  <path class="cls-6" d="M606.08 101.23a4.46 4.46 0 114.46 4.47 4.46 4.46 0 01-4.46-4.47z"></path>
  <path class="cls-16" d="M606.08 101.23a4.46 4.46 0 114.46 4.47 4.46 4.46 0 01-4.46-4.47z"></path>
  <path class="cls-6" d="M749.32 53.71a4.47 4.47 0 114.46 4.46 4.46 4.46 0 01-4.46-4.46z"></path>
  <path class="cls-16" d="M749.32 53.71a4.47 4.47 0 114.46 4.46 4.46 4.46 0 01-4.46-4.46z"></path>
  <path class="cls-6" d="M1217.82 66.41a4.47 4.47 0 114.46 4.46 4.46 4.46 0 01-4.46-4.46z"></path>
  <path class="cls-16" d="M1217.82 66.41a4.47 4.47 0 114.46 4.46 4.46 4.46 0 01-4.46-4.46z"></path>
  <path class="cls-6" d="M1522.65 317.18a4.47 4.47 0 114.46 4.46 4.47 4.47 0 01-4.46-4.46z"></path>
  <path class="cls-17" d="M1522.65 317.18a4.47 4.47 0 114.46 4.46 4.47 4.47 0 01-4.46-4.46z"></path>
  <path class="cls-6" d="M1627.17 623a4.47 4.47 0 114.46 4.47 4.46 4.46 0 01-4.46-4.47z"></path>
  <path class="cls-16" d="M1627.17 623a4.47 4.47 0 114.46 4.47 4.46 4.46 0 01-4.46-4.47z"></path>
  <path class="cls-6" d="M1529 920.52a4.47 4.47 0 114.47 4.46 4.47 4.47 0 01-4.47-4.46z"></path>
  <path class="cls-16" d="M1529 920.52a4.47 4.47 0 114.47 4.46 4.47 4.47 0 01-4.47-4.46z"></path>
  <path class="cls-6" d="M1284.21 995.93a4.47 4.47 0 114.46 4.47 4.46 4.46 0 01-4.46-4.47z"></path>
  <path class="cls-16" d="M1284.21 995.93a4.47 4.47 0 114.46 4.47 4.46 4.46 0 01-4.46-4.47z"></path>
  <path class="cls-6" d="M936.25 1012.58a4.47 4.47 0 114.47 4.46 4.47 4.47 0 01-4.47-4.46z"></path>
  <path class="cls-16" d="M936.25 1012.58a4.47 4.47 0 114.47 4.46 4.47 4.47 0 01-4.47-4.46z"></path>
  <path class="cls-6" d="M286.91 950.54a4.47 4.47 0 114.46 4.47 4.46 4.46 0 01-4.46-4.47z"></path>
  <path class="cls-16" d="M286.91 950.54a4.47 4.47 0 114.46 4.47 4.46 4.46 0 01-4.46-4.47z"></path>
  <path class="cls-6" d="M397.69 905.93a4.47 4.47 0 114.47 4.46 4.47 4.47 0 01-4.47-4.46z"></path>
  <path class="cls-17" d="M397.69 905.93a4.47 4.47 0 114.47 4.46 4.47 4.47 0 01-4.47-4.46z"></path>
  <path class="cls-6" d="M413.74 441.49a4.46 4.46 0 114.46 4.51 4.46 4.46 0 01-4.46-4.47z"></path>
  <path class="cls-17" d="M413.74 441.49a4.46 4.46 0 114.46 4.51 4.46 4.46 0 01-4.46-4.47z"></path>
  <path class="cls-6" d="M669.26 168.6a4.47 4.47 0 114.46 4.46 4.47 4.47 0 01-4.46-4.46z"></path>
  <path class="cls-17" d="M669.26 168.6a4.47 4.47 0 114.46 4.46 4.47 4.47 0 01-4.46-4.46z"></path>
  <path class="cls-6" d="M787.9 177.46a4.47 4.47 0 114.47 4.46 4.47 4.47 0 01-4.47-4.46zM842.93 148.61a4.47 4.47 0 114.47 4.47 4.47 4.47 0 01-4.47-4.47z"></path>
  <path class="cls-17" d="M842.93 148.61a4.47 4.47 0 114.47 4.47 4.47 4.47 0 01-4.47-4.47z"></path>
  <path class="cls-6" d="M803.17 107.72a4.47 4.47 0 114.46 4.47 4.46 4.46 0 01-4.46-4.47zM867.66 259.55a4.47 4.47 0 114.46 4.46 4.47 4.47 0 01-4.46-4.46zM811.67 315.34a4.47 4.47 0 114.47 4.47 4.47 4.47 0 01-4.47-4.47zM1055.16 230.32a4.47 4.47 0 114.47 4.46 4.47 4.47 0 01-4.47-4.46zM1487.62 504.92a4.47 4.47 0 114.46 4.46 4.47 4.47 0 01-4.46-4.46zM1334.8 532.4a4.47 4.47 0 114.47 4.47 4.47 4.47 0 01-4.47-4.47zM647.87 510.71a4.47 4.47 0 114.47 4.47 4.47 4.47 0 01-4.47-4.47zM647.19 554.76a4.47 4.47 0 114.46 4.47 4.47 4.47 0 01-4.46-4.47zM730.7 545.83a4.47 4.47 0 114.47 4.47 4.47 4.47 0 01-4.47-4.47zM721.88 592.72a4.47 4.47 0 114.46 4.46 4.47 4.47 0 01-4.46-4.46zM722.13 636.79a4.47 4.47 0 114.47 4.47 4.47 4.47 0 01-4.47-4.47zM721.82 679.38a4.47 4.47 0 114.46 4.46 4.47 4.47 0 01-4.46-4.46zM685.33 673.56a4.47 4.47 0 114.47 4.44 4.47 4.47 0 01-4.47-4.47zM777 592.72a4.47 4.47 0 114.46 4.46 4.47 4.47 0 01-4.46-4.46zM828.22 592.72a4.47 4.47 0 114.46 4.46 4.47 4.47 0 01-4.46-4.46zM930.44 593a4.47 4.47 0 114.46 4.46 4.47 4.47 0 01-4.46-4.46zM975.1 592.89a4.47 4.47 0 114.46 4.47 4.47 4.47 0 01-4.46-4.47zM948 450.86a4.47 4.47 0 114.47 4.47 4.47 4.47 0 01-4.47-4.47zM1098.9 593.1a4.46 4.46 0 114.46 4.46 4.46 4.46 0 01-4.46-4.46zM1163.6 559.9a4.47 4.47 0 114.46 4.47 4.46 4.46 0 01-4.46-4.47zM1117.21 513.51a4.47 4.47 0 114.46 4.47 4.46 4.46 0 01-4.46-4.47zM1088.91 482.2a4.47 4.47 0 114.47 4.47 4.47 4.47 0 01-4.47-4.47zM716.8 819a4.46 4.46 0 114.46 4.46 4.45 4.45 0 01-4.46-4.46zM721.82 723.4a4.47 4.47 0 114.46 4.46 4.47 4.47 0 01-4.46-4.46zM792.15 679.38a4.46 4.46 0 114.46 4.46 4.46 4.46 0 01-4.46-4.46zM792.15 723.4a4.46 4.46 0 114.46 4.46 4.46 4.46 0 01-4.46-4.46zM816.58 723.4a4.47 4.47 0 114.46 4.46 4.47 4.47 0 01-4.46-4.46zM898.93 643.39a4.47 4.47 0 114.47 4.46 4.47 4.47 0 01-4.47-4.46zM975.22 642.46a4.47 4.47 0 114.46 4.47 4.46 4.46 0 01-4.46-4.47zM975.22 723.38a4.47 4.47 0 114.46 4.47 4.46 4.46 0 01-4.46-4.47zM1098.9 642.89a4.46 4.46 0 114.46 4.47 4.45 4.45 0 01-4.46-4.47zM1098.65 723.38a4.47 4.47 0 114.46 4.47 4.46 4.46 0 01-4.46-4.47zM1164.43 723.38a4.47 4.47 0 114.47 4.47 4.47 4.47 0 01-4.47-4.47zM872.81 592.89a4.47 4.47 0 114.46 4.47 4.46 4.46 0 01-4.46-4.47zM877.27 542.45a4.47 4.47 0 114.47 4.46 4.47 4.47 0 01-4.47-4.46zM975.1 534.35a4.47 4.47 0 114.46 4.46 4.47 4.47 0 01-4.46-4.46zM902.59 497.16a4.47 4.47 0 114.47 4.46 4.47 4.47 0 01-4.47-4.46zM1263.72 532.4a4.47 4.47 0 114.47 4.47 4.47 4.47 0 01-4.47-4.47zM636.63 722.19a4.47 4.47 0 114.46 4.46 4.47 4.47 0 01-4.46-4.46zM846 348.2a4.47 4.47 0 114.47 4.46 4.47 4.47 0 01-4.47-4.46zM1055.53 348a4.46 4.46 0 114.46 4.46 4.46 4.46 0 01-4.46-4.46zM786.28 348a4.47 4.47 0 114.47 4.46 4.47 4.47 0 01-4.47-4.46zM628.13 366.7a4.47 4.47 0 114.47 4.47 4.47 4.47 0 01-4.47-4.47zM577.4 510.47a6.7 6.7 0 116.7 6.7 6.7 6.7 0 01-6.7-6.7z"></path>
  <path class="cls-18" d="M577.4 510.47a6.7 6.7 0 116.7 6.7 6.7 6.7 0 01-6.7-6.7z"></path>
  <path class="cls-6" d="M577.59 554.76a6.7 6.7 0 116.7 6.7 6.7 6.7 0 01-6.7-6.7z"></path>
  <path class="cls-18" d="M577.59 554.76a6.7 6.7 0 116.7 6.7 6.7 6.7 0 01-6.7-6.7z"></path>
  <path class="cls-6" d="M876.56 723a6.7 6.7 0 116.7 6.69 6.7 6.7 0 01-6.7-6.69z"></path>
  <path class="cls-18" d="M876.56 723a6.7 6.7 0 116.7 6.69 6.7 6.7 0 01-6.7-6.69z"></path>
  <path class="cls-6" d="M1261.49 568.29a6.7 6.7 0 116.7 6.7 6.7 6.7 0 01-6.7-6.7z"></path>
  <path class="cls-18" d="M1261.49 568.29a6.7 6.7 0 116.7 6.7 6.7 6.7 0 01-6.7-6.7z"></path>
  <path class="cls-6" d="M954.1 348a6.7 6.7 0 116.7 6.69 6.7 6.7 0 01-6.7-6.69z"></path>
  <path class="cls-18" d="M954.1 348a6.7 6.7 0 116.7 6.69 6.7 6.7 0 01-6.7-6.69z"></path>
  <path class="cls-6" d="M862.87 449.6a6.7 6.7 0 116.69 6.69 6.69 6.69 0 01-6.69-6.69z"></path>
  <path class="cls-18" d="M862.87 449.6a6.7 6.7 0 116.69 6.69 6.69 6.69 0 01-6.69-6.69z"></path>
  <path class="cls-19" d="M1075.45 493c6.93 0 12.54-1.66 12.54-3.7s-5.61-3.71-12.54-3.71-12.53 1.66-12.53 3.71 5.61 3.7 12.53 3.7z"></path>
  <path class="cls-20" d="M1072.12 423.35l-1.76 65.36s4 2.83 10.19 0l-1.77-65.36a8 8 0 01-6.66 0zM1072.42 398.71l-.3 5.86a8.06 8.06 0 016.66 0l-.28-5.85a8 8 0 00-3-.63 8.08 8.08 0 00-3 .62zM1075.45 360.82c-.51 0-.68 30.1-1.79 36.17a8 8 0 011.79-.2 7.9 7.9 0 011.39.12c-.88-3.62-.87-36.09-1.39-36.09z"></path>
  <path d="M1075.45 422.25a8.29 8.29 0 10-8.2-8.29 8.25 8.25 0 008.2 8.29z"></path>
  <path class="cls-21" d="M339.23 452.59a3.85 3.85 0 00-2.38-3.63l-1-.53c-1.76-.91-2.1-1.37-2.1-2.18 0-1 .79-1.72 2-1.72a6 6 0 012.65.67l.08-2.24a8.58 8.58 0 00-3.05-.53c-2.57 0-4.53 1.38-4.53 3.88 0 1.82.57 2.93 3 4.1 2 1 2.45 1.48 2.45 2.49s-.71 1.86-2.23 1.86a6.5 6.5 0 01-2.92-.87l-.12 2.46a10.09 10.09 0 003.35.59c3 0 4.8-1.68 4.8-4.35zm11.47-1c0-3.37-1.31-5.49-3.75-5.49a3 3 0 00-2.75 1.76c0-.29-.06-1.31-.08-1.58h-2.59a17.78 17.78 0 01.11 1.82v13h2.68v-3.88-2a3 3 0 002.77 1.68c2.36 0 3.65-2.28 3.65-5.28zm-2.74-.1c0 2.19-.53 3.44-1.84 3.44s-1.84-1.25-1.84-3.44.63-3.43 1.9-3.43 1.78 1.27 1.78 3.43zm13.14 5.21a17.74 17.74 0 01-.1-2v-4.95c0-1.6-.5-3.7-4-3.7a7.41 7.41 0 00-3.41.77l.14 2.1a4.67 4.67 0 012.85-1c1.6 0 2 .89 2 1.86v.4h-1c-3.59 0-5.13 1.35-5.13 3.54a2.93 2.93 0 003.09 3.17 3.61 3.61 0 003-1.62c0 .24.1 1.17.12 1.41zm-2.52-4.26c0 1.22-.56 2.65-2.14 2.65a1.37 1.37 0 01-1.5-1.54c0-1.21 1-1.94 2.83-1.94h.81v.81zm13.42 4.29v-7.27c0-2.28-1.31-3.33-3.11-3.33a2.87 2.87 0 00-2.79 1.84c0-.31 0-1.44-.06-1.66h-2.54c0 .61.1 1.42.1 2.18v8.24h2.68v-6c0-1.48.63-2.43 1.74-2.43.89 0 1.35.61 1.35 1.92v6.48zm11.33 0c0-.62-.08-1.25-.08-1.87v-13.27h-2.67v6.2a2.94 2.94 0 00-2.77-1.66c-2.38 0-3.65 2.26-3.65 5.27 0 3.38 1.29 5.5 3.75 5.5a3 3 0 002.75-1.78c0 .3.06 1.33.08 1.61zm-2.75-5.25c0 2.17-.6 3.44-1.84 3.44s-1.84-1.27-1.84-3.44.53-3.43 1.84-3.43 1.84 1.27 1.84 3.43zm13.45 5.25a17.74 17.74 0 01-.1-2v-4.95c0-1.6-.51-3.7-4-3.7a7.38 7.38 0 00-3.41.77l.14 2.1a4.67 4.67 0 012.85-1c1.59 0 2 .89 2 1.86v.4h-1c-3.6 0-5.13 1.35-5.13 3.54a2.93 2.93 0 003.09 3.17 3.61 3.61 0 003-1.62c0 .24.1 1.17.12 1.41zm-2.52-4.26c0 1.22-.57 2.65-2.14 2.65a1.37 1.37 0 01-1.5-1.54c0-1.21 1-1.94 2.83-1.94h.81v.81zm13.55 4.26c0-.5-.11-1.25-.11-2v-8.45h-2.66v6.14c0 1.34-.55 2.27-1.74 2.27-.91 0-1.35-.59-1.35-1.92v-6.49h-2.69v7.28c0 2.3 1.31 3.35 3.11 3.35a2.85 2.85 0 002.79-1.86c0 .3 0 1.43.08 1.65zM343.39 440.57l-1.63-5c-.44-1.37-.89-1.77-1.72-2v-.06a3.23 3.23 0 002.75-3.3c0-2-1-3.73-4.24-3.73h-4.63v14.09h2.79v-5.93h.5c1 0 1.54.3 1.92 1.55l1.34 4.38zm-3.43-10a1.93 1.93 0 01-2.08 2h-1.25v-4h1.23a1.87 1.87 0 012.1 2zm13.47 10a18.08 18.08 0 01-.1-2v-4.95c0-1.6-.5-3.7-4-3.7a7.42 7.42 0 00-3.42.77l.14 2.1a4.67 4.67 0 012.85-1c1.6 0 2 .89 2 1.86v.4h-1c-3.59 0-5.13 1.35-5.13 3.54a2.93 2.93 0 003.09 3.17 3.59 3.59 0 003-1.62c0 .24.1 1.17.12 1.42zm-2.52-4.27c0 1.22-.56 2.65-2.14 2.65a1.36 1.36 0 01-1.49-1.54c0-1.21 1-1.94 2.82-1.94h.81v.81zm10.67 4.2l-.05-1.91a2.11 2.11 0 01-.94.2c-.71 0-1.14-.41-1.14-1.44v-5.27h2.08v-1.94h-2.08v-3l-2.66.81v2.16h-1.74v1.94h1.74V438a2.54 2.54 0 002.87 2.79 7.1 7.1 0 001.92-.27zm10.4.06v-7.26c0-2.28-1.31-3.33-3.11-3.33a2.9 2.9 0 00-2.65 1.55v-6.09h-2.68v15.14h2.68v-6c0-1.47.63-2.42 1.74-2.42.89 0 1.35.61 1.35 1.92v6.48zm10.85 0a15.65 15.65 0 01-.11-2v-4.95c0-1.6-.5-3.7-4-3.7a7.42 7.42 0 00-3.42.77l.14 2.1a4.67 4.67 0 012.85-1c1.6 0 2 .89 2 1.86v.4h-1c-3.59 0-5.13 1.35-5.13 3.54a2.94 2.94 0 003.09 3.17 3.58 3.58 0 003-1.62c0 .24.1 1.17.12 1.42zm-2.53-4.27c0 1.22-.56 2.65-2.14 2.65a1.36 1.36 0 01-1.49-1.54c0-1.21 1-1.94 2.82-1.94h.81v.81zm13.61 4.27c0-.51-.1-1.26-.1-2v-8.45h-2.66v6.14c0 1.34-.55 2.27-1.74 2.27-.91 0-1.35-.59-1.35-1.92v-6.49h-2.69v7.28c0 2.3 1.31 3.35 3.11 3.35a2.85 2.85 0 002.79-1.86c0 .3 0 1.43.08 1.66zm9-3.13a2.71 2.71 0 00-2.06-2.79l-.91-.35c-1-.38-1.47-.74-1.47-1.33s.59-1.09 1.49-1.09a6.13 6.13 0 012.31.54l.1-2a8 8 0 00-2.57-.42c-2.6 0-3.85 1.43-3.85 3.23a2.75 2.75 0 002.1 2.81l1.11.44c.93.37 1.25.71 1.25 1.26s-.59 1.09-1.72 1.09a5.4 5.4 0 01-2.6-.75l-.08 2.18a8.3 8.3 0 003 .55c2.72 0 3.89-1.36 3.89-3.33zM596.71 176l-4.54-14.09h-3.07L584.39 176h2.73l1-3.33h4.76l.93 3.33zm-4.4-5.45h-3.62l1.88-6.28 1.7 6.28zM601 176v-15.19h-2.68V176zm8.26-.06v-1.91a2.13 2.13 0 01-1 .2c-.7 0-1.13-.4-1.13-1.44v-5.27h2.08v-1.94h-2.08v-3l-2.66.81v2.16h-1.74v1.94h1.74v5.9a2.54 2.54 0 002.87 2.79 7.37 7.37 0 001.91-.27zm6.43-4.64v-2.12h-4.79v2.12zm8.77-7.19v-2.2h-9.06v2.2h3.13V176h2.8v-11.94zm8.16 7.45v-1c0-2.95-1.44-5.19-4.25-5.19s-4.42 2.32-4.42 5.37 1.31 5.44 4.81 5.44a9.65 9.65 0 003.29-.61l-.08-2a6.19 6.19 0 01-2.73.83c-1.61 0-2.66-.81-2.7-2.83zm-2.51-1.61h-3.61c0-1.92.8-2.79 1.85-2.79s1.76.83 1.76 2.6v.19zm13.56-4.37h-2.53c0 .29-.1 1.36-.1 1.62a3 3 0 00-2.69-1.8c-2.4 0-3.83 2.1-3.83 5.21 0 3.44 1.27 5.45 3.77 5.45a2.92 2.92 0 002.75-1.89v1.19c0 1.88-.77 3.09-2.87 3.09a6 6 0 01-3-.93l-.1 2.3a11.48 11.48 0 003.5.67c3.19 0 5-1.66 5-4.93v-7.8c0-.82.06-1.55.11-2.18zm-2.77 5.17c0 2.15-.44 3.4-1.84 3.4s-1.84-1.28-1.84-3.46.51-3.29 1.8-3.29 1.88 1.19 1.88 3.35zm13.57.81v-1c0-2.95-1.43-5.19-4.24-5.19s-4.42 2.32-4.42 5.37 1.31 5.44 4.8 5.44a9.66 9.66 0 003.3-.61l-.08-2a6.19 6.19 0 01-2.73.83c-1.62 0-2.67-.81-2.71-2.83zM652 169.9h-3.62c0-1.92.81-2.79 1.86-2.79s1.76.83 1.76 2.6v.19zm7.47 6v-15.09h-2.68V176z"></path>
  <path class="cls-22" d="M572.89 84.13V70h-2.79v5.72h-3.94V70h-2.79v14.1h2.79V78h3.94v6.14zm11.25-4.44v-1c0-3-1.44-5.19-4.24-5.19s-4.43 2.32-4.43 5.37 1.32 5.43 4.81 5.43a9.66 9.66 0 003.29-.6l-.08-2a6.32 6.32 0 01-2.73.83c-1.61 0-2.66-.81-2.7-2.83zm-2.51-1.62H578c0-1.92.81-2.79 1.86-2.79s1.75.83 1.75 2.61v.18zm13.21 6.06v-7.27c0-2.28-1.31-3.33-3.11-3.33a2.88 2.88 0 00-2.73 1.83h-.05c0-.3 0-1.43-.06-1.65h-2.59c0 .61.1 1.41.1 2.18v8.24h2.69v-6c0-1.47.62-2.42 1.73-2.42.89 0 1.36.6 1.36 1.92v6.48zm11.09 0v-7.27c0-2.28-1.31-3.33-3.11-3.33a2.9 2.9 0 00-2.82 1.83c0-.3 0-1.43-.06-1.65h-2.54c0 .61.1 1.41.1 2.18v8.24h2.69v-6c0-1.47.62-2.42 1.73-2.42.89 0 1.36.6 1.36 1.92v6.48zm5.36 0V73.71h-2.69v10.42zm.12-13.53a1.48 1.48 0 10-1.48 1.4 1.44 1.44 0 001.48-1.41zm11.33 3.11h-2.52c0 .28-.11 1.35-.11 1.61a3 3 0 00-2.69-1.79c-2.41 0-3.84 2.1-3.84 5.21 0 3.43 1.27 5.45 3.78 5.45a2.94 2.94 0 002.75-1.89v1.19c0 1.87-.76 3.09-2.86 3.09a6 6 0 01-3-.93l-.1 2.3a11.41 11.41 0 003.49.67c3.19 0 5-1.66 5-4.93v-7.8c0-.83.06-1.55.1-2.18zM620 78.88c0 2.14-.44 3.4-1.83 3.4s-1.87-1.28-1.87-3.46.5-3.29 1.79-3.29 1.91 1.19 1.91 3.35zM631.75 81a2.74 2.74 0 00-2.06-2.79l-.91-.34c-1-.38-1.48-.75-1.48-1.33s.59-1.09 1.5-1.09a6 6 0 012.3.54l.1-2a7.92 7.92 0 00-2.56-.42c-2.61 0-3.86 1.43-3.86 3.23a2.76 2.76 0 002.1 2.81L628 80c.93.37 1.25.71 1.25 1.26s-.58 1.09-1.71 1.09a5.44 5.44 0 01-2.61-.75l-.08 2.18a8.36 8.36 0 003 .54c2.73 0 3.9-1.35 3.9-3.33zm10.91 3.13c0-.62-.08-1.25-.08-1.87V69h-2.67v6.18a2.93 2.93 0 00-2.77-1.65c-2.38 0-3.65 2.26-3.65 5.27 0 3.37 1.29 5.49 3.75 5.49a3 3 0 002.76-1.77c0 .3.06 1.33.08 1.61zm-2.75-5.25c0 2.16-.6 3.44-1.84 3.44s-1.84-1.28-1.84-3.44.53-3.43 1.84-3.43 1.84 1.27 1.84 3.43zm14.3 0c0-3-1.41-5.39-4.68-5.39s-4.69 2.36-4.69 5.39 1.39 5.41 4.69 5.41 4.68-2.36 4.68-5.41zm-2.79 0c0 2.06-.48 3.48-1.89 3.48s-1.9-1.42-1.9-3.48.46-3.47 1.9-3.47 1.89 1.43 1.89 3.47zM662.17 76v-2.45a1.62 1.62 0 00-.3 0 2.77 2.77 0 00-2.81 1.88c0-.31 0-1.48-.06-1.7h-2.55c.05.61.11 1.51.11 2.64v7.78h2.68V78.8c0-1.82.87-2.91 2.1-2.91a3.35 3.35 0 01.87.1zm7.67-7a8.4 8.4 0 00-1.83-.2c-2 0-3 1-3 3.09v1.88h-1.76v1.94H665v8.48h2.66v-8.54h1.92v-1.94h-1.92v-1.5c0-1 .33-1.47 1.22-1.47a2.4 2.4 0 01.94.22v-2zM711.72 33.51c0-4.81-2.58-7.19-5.69-7.19s-5.78 2.26-5.78 7.31c0 4.81 2.6 7.19 5.7 7.19s5.77-2.26 5.77-7.31zm-2.88 0c0 3.53-1.16 5.21-2.89 5.21-2 0-2.84-2.26-2.84-5.09 0-3.54 1.18-5.22 2.92-5.22 2 0 2.81 2.29 2.81 5.1zm11-1V30a1.62 1.62 0 00-.3 0 2.77 2.77 0 00-2.81 1.88c0-.3 0-1.47-.06-1.7h-2.54c0 .61.1 1.52.1 2.65v7.77h2.68v-5.32c0-1.82.87-2.91 2.1-2.91a3.3 3.3 0 01.87.1zm9.68 8.14a17.74 17.74 0 01-.1-2v-4.94c0-1.6-.51-3.7-4-3.7a7.42 7.42 0 00-3.42.77l.15 2.1a4.62 4.62 0 012.84-1c1.6 0 2 .89 2 1.86v.4h-1c-3.59 0-5.13 1.35-5.13 3.54a2.94 2.94 0 003.14 3.14 3.58 3.58 0 003-1.62c0 .24.1 1.17.13 1.41zm-2.52-4.3c0 1.22-.56 2.65-2.14 2.65a1.36 1.36 0 01-1.49-1.54c0-1.21 1-1.94 2.83-1.94h.8v.81zm13.51 4.26v-7.27c0-2.28-1.31-3.33-3.11-3.33a2.87 2.87 0 00-2.78 1.84c0-.3 0-1.43-.06-1.66h-2.55c0 .61.1 1.42.1 2.18v8.24h2.69v-6c0-1.48.62-2.43 1.74-2.43.88 0 1.35.61 1.35 1.92v6.48zm5.36 0V30.19h-2.69v10.42zm.13-13.53a1.48 1.48 0 10-1.47 1.42 1.44 1.44 0 001.47-1.42zm10.83 9.09v-1c0-3-1.44-5.19-4.25-5.19s-4.42 2.32-4.42 5.37 1.32 5.44 4.81 5.44a9.65 9.65 0 003.29-.61l-.08-2a6.19 6.19 0 01-2.73.83c-1.61 0-2.66-.81-2.7-2.83zm-2.51-1.61h-3.61c0-1.92.8-2.79 1.85-2.79 1.2 0 1.76.83 1.76 2.6v.19zm13.21 6v-7.22c0-2.28-1.31-3.33-3.11-3.33a2.89 2.89 0 00-2.79 1.84c0-.3 0-1.43-.06-1.66H759c0 .61.1 1.42.1 2.18v8.24h2.69v-6c0-1.48.62-2.43 1.73-2.43.89 0 1.36.61 1.36 1.92v6.48zm11.74-5.33c0-3-1.29-5.27-3.66-5.27a3 3 0 00-2.77 1.66v-6.15h-2.68v13.27c0 .62 0 1.25-.08 1.87h2.56c0-.28.08-1.31.08-1.61a3 3 0 002.75 1.78c2.44 0 3.76-2.12 3.76-5.5zm-2.75.08c0 2.17-.52 3.44-1.84 3.44s-1.84-1.27-1.84-3.44.61-3.43 1.84-3.43 1.84 1.27 1.84 3.43zm13.48 5.3c0-.5-.1-1.25-.1-2v-8.42h-2.66v6.14c0 1.34-.55 2.27-1.74 2.27-.91 0-1.35-.59-1.35-1.92v-6.49h-2.69v7.28c0 2.3 1.31 3.35 3.11 3.35a2.85 2.85 0 002.82-1.82c0 .3 0 1.43.08 1.65zm8.21-8.14V30a1.72 1.72 0 00-.31 0 2.79 2.79 0 00-2.81 1.88c0-.3-.05-1.47-.06-1.7h-2.55c0 .61.1 1.52.1 2.65v7.77h2.69v-5.32c0-1.82.87-2.91 2.1-2.91a3.41 3.41 0 01.87.1zm10.2-2.28h-2.52c0 .29-.11 1.36-.11 1.62a3 3 0 00-2.68-1.8c-2.41 0-3.84 2.1-3.84 5.21 0 3.44 1.27 5.46 3.78 5.46a2.93 2.93 0 002.74-1.9V40c0 1.88-.76 3.09-2.86 3.09a6 6 0 01-3.05-.93l-.11 2.3a11.25 11.25 0 003.5.67c3.19 0 5.05-1.66 5.05-4.93v-7.8c0-.82.06-1.55.1-2.18zm-2.77 5.17c0 2.15-.44 3.4-1.84 3.4s-1.8-1.27-1.8-3.46.5-3.29 1.79-3.29 1.88 1.19 1.88 3.35z"></path>
  <path class="cls-21" d="M877.69 137.62h-2.47l-2 10.66-2-10.66h-3.35l-2 10.66-1.9-10.66h-2.73l2.93 14.09h3.27l2.1-11.47 2.06 11.47h3.32l2.83-14.09zm4.31 14.09v-10.42h-2.69v10.42zm.12-13.53a1.48 1.48 0 10-1.48 1.42 1.44 1.44 0 001.48-1.42zm8.14 13.47v-1.91a2.16 2.16 0 01-1 .2c-.71 0-1.13-.41-1.13-1.43v-5.28h2.08v-1.94h-2.08v-3l-2.67.81v2.16h-1.73v1.94h1.73v5.9a2.54 2.54 0 002.87 2.79 7.46 7.46 0 001.92-.27zm7.55 0v-1.91a2.13 2.13 0 01-1 .2c-.7 0-1.13-.41-1.13-1.43v-5.28h2.08v-1.94h-2.08v-3l-2.66.81v2.16h-1.74v1.94H893v5.9a2.54 2.54 0 002.86 2.79 7.39 7.39 0 001.92-.27zm10.19-4.38v-1c0-3-1.43-5.19-4.24-5.19s-4.42 2.32-4.42 5.37 1.31 5.44 4.81 5.44a9.65 9.65 0 003.29-.61l-.08-2a6.19 6.19 0 01-2.73.83c-1.62 0-2.67-.81-2.71-2.83zm-2.5-1.61h-3.6c0-1.92.81-2.79 1.86-2.79s1.76.83 1.76 2.6v.19zm13.21 6.05v-7.27c0-2.28-1.31-3.33-3.11-3.33a2.88 2.88 0 00-2.79 1.84c0-.3 0-1.44-.06-1.66h-2.54c0 .61.1 1.42.1 2.18v8.24H913v-6c0-1.47.63-2.42 1.74-2.42.89 0 1.35.61 1.35 1.92v6.48zm10.85 0a17.74 17.74 0 01-.1-2v-4.95c0-1.6-.51-3.7-4-3.7a7.38 7.38 0 00-3.41.77l.14 2.1a4.62 4.62 0 012.84-1c1.6 0 2 .89 2 1.86v.4h-1c-3.6 0-5.14 1.35-5.14 3.54a2.94 2.94 0 003.09 3.17 3.58 3.58 0 003-1.62c0 .24.1 1.17.12 1.41zm-2.53-4.26c0 1.22-.56 2.65-2.14 2.65a1.36 1.36 0 01-1.49-1.54c0-1.21 1-1.94 2.83-1.94h.8v.81zm13.62 4.26c0-.5-.1-1.25-.1-2v-8.45h-2.65v6.14c0 1.34-.54 2.27-1.74 2.27-.91 0-1.35-.59-1.35-1.92v-6.49h-2.69v7.28c0 2.3 1.32 3.35 3.11 3.35a2.85 2.85 0 002.79-1.86c0 .3 0 1.43.08 1.65z"></path>
  <path class="cls-22" d="M1209.16 50.86a3.16 3.16 0 00-2.75-3.39 3.16 3.16 0 002.48-3.3c0-2.1-1.33-3.45-4.18-3.45h-4.46v14.1h4.4c2.89 0 4.51-1.54 4.51-3.92zm-3-6.3c0 1.35-.87 2-2.33 2h-.83v-3.88h1.18a1.8 1.8 0 012.06 1.88zm.26 6.1a2 2 0 01-2.22 2.08h-1.2v-4.18h1.46a1.91 1.91 0 012 2.1zm13.47-.33v-1c0-2.95-1.43-5.19-4.24-5.19s-4.42 2.32-4.42 5.37 1.31 5.43 4.8 5.43a9.68 9.68 0 003.3-.6l-.08-2a6.31 6.31 0 01-2.73.82c-1.62 0-2.67-.8-2.71-2.83zm-2.5-1.61h-3.62c0-1.92.81-2.79 1.86-2.79s1.76.83 1.76 2.61v.18zm10.42-2.08V44.2a1.62 1.62 0 00-.3 0 2.76 2.76 0 00-2.81 1.87c0-.3 0-1.47-.06-1.69h-2.54c0 .6.1 1.51.1 2.64v7.78h2.68v-5.35c0-1.82.87-2.91 2.1-2.91a3.35 3.35 0 01.87.1zm10.36 8.14v-7.27c0-2.29-1.31-3.33-3.11-3.33a2.89 2.89 0 00-2.76 1.82c0-.3 0-1.43-.06-1.65h-2.54c0 .6.1 1.41.1 2.18v8.24h2.68v-6c0-1.48.63-2.43 1.74-2.43.89 0 1.36.61 1.36 1.92v6.49zm10.85 0a17.94 17.94 0 01-.1-2v-5c0-1.6-.51-3.69-4-3.69a7.54 7.54 0 00-3.41.76l.14 2.1a4.73 4.73 0 012.85-1c1.59 0 2 .89 2 1.86v.41h-1c-3.6 0-5.13 1.35-5.13 3.53a2.93 2.93 0 003.09 3.17 3.62 3.62 0 003-1.61c0 .24.1 1.17.12 1.41zm-2.52-4.26c0 1.21-.57 2.64-2.14 2.64a1.36 1.36 0 01-1.5-1.53c0-1.21 1-1.94 2.83-1.94h.81v.81zm13.61 4.26c0-.51-.1-1.25-.1-2v-8.42h-2.67v6.14c0 1.33-.54 2.26-1.73 2.26-.91 0-1.36-.59-1.36-1.92v-6.48h-2.68v7.27c0 2.3 1.31 3.35 3.11 3.35a2.87 2.87 0 002.79-1.86c0 .31 0 1.44.08 1.66z"></path>
  <path class="cls-21" d="M1469.68 314.29a7.83 7.83 0 00-1.84-.21c-1.95 0-3 1-3 3.09v1.88h-1.76V321h1.76v8.48h2.66V321h1.92v-1.94h-1.92v-1.49c0-1 .32-1.48 1.21-1.48a2.41 2.41 0 011 .22v-2zm9.7 10.74v-1c0-2.95-1.44-5.19-4.24-5.19s-4.43 2.32-4.43 5.37 1.32 5.44 4.81 5.44a9.65 9.65 0 003.29-.61l-.08-2a6.19 6.19 0 01-2.73.83c-1.61 0-2.66-.81-2.7-2.83zm-2.51-1.61h-3.61c0-1.92.81-2.79 1.86-2.79s1.75.83 1.75 2.6v.19zm7.48 6.05v-15.14h-2.69v15.14zm11.41 0c0-.62-.08-1.25-.08-1.87v-13.27H1493v6.2a2.92 2.92 0 00-2.76-1.66c-2.39 0-3.66 2.26-3.66 5.27 0 3.38 1.29 5.5 3.76 5.5a3 3 0 002.75-1.78c0 .3.06 1.33.08 1.61zm-2.75-5.25c0 2.17-.6 3.44-1.83 3.44s-1.84-1.27-1.84-3.44.52-3.43 1.84-3.43 1.83 1.27 1.83 3.43zm13.6.81v-1c0-2.95-1.44-5.19-4.25-5.19s-4.42 2.32-4.42 5.37 1.32 5.44 4.81 5.44a9.65 9.65 0 003.29-.61l-.08-2a6.19 6.19 0 01-2.73.83c-1.61 0-2.66-.81-2.7-2.83zm-2.51-1.61h-3.61c0-1.92.8-2.79 1.85-2.79 1.2 0 1.76.83 1.76 2.6v.19zM1463.55 313.31l-4.55-14.09h-3.07l-4.71 14.09h2.78l1-3.33h4.76l.93 3.33zm-4.4-5.45h-3.62l1.88-6.28 1.7 6.28zm14.44 5.45V306c0-2.28-1.31-3.33-3.11-3.33a2.89 2.89 0 00-2.65 1.56v-6.1h-2.68v15.14h2.68v-6c0-1.47.63-2.42 1.74-2.42.89 0 1.36.61 1.36 1.92v6.48zm8.3-8.14v-2.44a1.62 1.62 0 00-.3 0 2.78 2.78 0 00-2.81 1.88c0-.3 0-1.47-.06-1.7h-2.54c0 .61.1 1.52.1 2.65v7.77h2.68V308c0-1.82.87-2.91 2.1-2.91a3.3 3.3 0 01.87.1zm9.82 3.7v-1c0-2.95-1.43-5.19-4.24-5.19s-4.42 2.32-4.42 5.37 1.31 5.44 4.8 5.44a9.6 9.6 0 003.29-.61l-.08-2a6.11 6.11 0 01-2.72.83c-1.62 0-2.67-.81-2.71-2.83zm-2.51-1.61h-3.61c0-1.92.81-2.79 1.86-2.79s1.75.83 1.75 2.6v.19zm13.22 6.05V306c0-2.28-1.32-3.33-3.12-3.33a2.87 2.87 0 00-2.78 1.84c0-.31 0-1.44-.06-1.66h-2.55c0 .61.1 1.42.1 2.18v8.24h2.69v-6c0-1.47.62-2.42 1.74-2.42.88 0 1.35.61 1.35 1.92v6.48zm9.13-3.13a2.72 2.72 0 00-2.06-2.78l-.91-.35c-1-.38-1.48-.74-1.48-1.33s.59-1.09 1.5-1.09a6.08 6.08 0 012.3.54l.1-2a7.73 7.73 0 00-2.56-.43c-2.61 0-3.86 1.43-3.86 3.23a2.75 2.75 0 002.1 2.81l1.11.45c.93.36 1.25.7 1.25 1.25s-.58 1.09-1.72 1.09a5.4 5.4 0 01-2.6-.75l-.08 2.18a8.34 8.34 0 003 .55c2.72 0 3.9-1.36 3.9-3.34zm6.62-1.57v-2.12h-4.78v2.12zM1544.66 392.09V378h-2.78v5.71h-4V378h-2.78v14.09h2.78V386h4v6.14zm12-5.21c0-3-1.41-5.39-4.69-5.39s-4.68 2.36-4.68 5.39 1.39 5.42 4.68 5.42 4.69-2.37 4.69-5.42zm-2.79 0c0 2.06-.48 3.48-1.9 3.48s-1.9-1.42-1.9-3.48.47-3.47 1.9-3.47 1.9 1.43 1.9 3.47zm-2.36-8.12a1.23 1.23 0 00-1.21-1.23 1.23 1.23 0 100 2.46 1.22 1.22 0 001.21-1.23zm3.43 0a1.22 1.22 0 00-1.21-1.23 1.23 1.23 0 100 2.46 1.21 1.21 0 001.21-1.23zm12.46 13.33v-7.27c0-2.28-1.31-3.33-3.11-3.33a2.87 2.87 0 00-2.78 1.84c0-.31 0-1.44-.06-1.66h-2.55c0 .61.1 1.42.1 2.18v8.24h2.69v-6c0-1.47.62-2.42 1.73-2.42.89 0 1.36.61 1.36 1.92v6.48zm11.64-5.21c0-3-1.41-5.39-4.69-5.39s-4.68 2.36-4.68 5.39 1.39 5.42 4.68 5.42 4.69-2.37 4.69-5.42zm-2.79 0c0 2.06-.48 3.48-1.9 3.48s-1.89-1.42-1.89-3.48.46-3.47 1.89-3.47 1.9 1.43 1.9 3.47zm18.83-5.21h-2.59l-1.61 8-1.64-8h-3.09l-1.64 8-1.63-8H1580l2.79 10.42h3l1.75-8.09 1.81 8.09h2.93l2.75-10.42z"></path>
  <path class="cls-22" d="M1648.85 349.67v-14.09h-2.5v10.66l-4.51-10.66h-3.31v14.09h2.5V339h.06l4.47 10.66zm11.92-5.21c0-3-1.41-5.39-4.69-5.39s-4.68 2.36-4.68 5.39 1.39 5.42 4.68 5.42 4.69-2.36 4.69-5.42zm-2.79 0c0 2.06-.48 3.48-1.9 3.48s-1.9-1.42-1.9-3.48.47-3.47 1.9-3.47 1.9 1.43 1.9 3.47zm10.75-2.93v-2.44a1.72 1.72 0 00-.31 0 2.76 2.76 0 00-2.8 1.88c0-.3 0-1.47-.07-1.7H1663c0 .61.1 1.52.1 2.65v7.77h2.69v-5.33c0-1.82.87-2.91 2.1-2.91a3.41 3.41 0 01.87.1zm10.34 8.14c0-.62-.08-1.25-.08-1.87v-13.27h-2.67v6.2a2.93 2.93 0 00-2.77-1.66c-2.38 0-3.65 2.26-3.65 5.27 0 3.38 1.29 5.5 3.76 5.5a3 3 0 002.74-1.78c0 .3.06 1.33.08 1.61zm-2.75-5.25c0 2.17-.6 3.44-1.84 3.44s-1.83-1.27-1.83-3.44.52-3.43 1.83-3.43 1.84 1.27 1.84 3.43zM1620.05 329.38a3.86 3.86 0 00-2.39-3.64l-1-.53c-1.76-.91-2.1-1.37-2.1-2.18 0-1 .79-1.72 2-1.72a6 6 0 012.65.67l.08-2.24a8.58 8.58 0 00-3-.53c-2.57 0-4.52 1.38-4.52 3.88 0 1.82.56 2.93 3 4.1 2 1 2.45 1.48 2.45 2.49s-.71 1.86-2.23 1.86a6.5 6.5 0 01-2.92-.87l-.12 2.46a10.09 10.09 0 003.35.59c3 0 4.81-1.68 4.81-4.34zm8 4.07v-1.91a2.13 2.13 0 01-1 .2c-.7 0-1.13-.41-1.13-1.44V325h2.08v-1.94h-2.08v-3l-2.66.81v2.16h-1.74V325h1.74v5.9a2.54 2.54 0 002.87 2.79 7 7 0 001.91-.27zm7.62-8.08v-2.44a1.62 1.62 0 00-.3 0 2.77 2.77 0 00-2.81 1.88c0-.3 0-1.47-.06-1.7h-2.54c0 .61.1 1.52.1 2.65v7.77h2.68v-5.33c0-1.82.87-2.91 2.1-2.91a3.35 3.35 0 01.87.1zm9.68 8.15a15.65 15.65 0 01-.11-2v-4.95c0-1.6-.5-3.7-4-3.7a7.42 7.42 0 00-3.42.77l.14 2.1a4.67 4.67 0 012.85-1c1.6 0 2 .89 2 1.86v.4h-1c-3.59 0-5.13 1.35-5.13 3.54a2.94 2.94 0 003.09 3.17 3.58 3.58 0 003-1.62c0 .24.1 1.17.12 1.42zm-2.53-4.27c0 1.22-.56 2.65-2.14 2.65a1.36 1.36 0 01-1.49-1.54c0-1.21 1-1.94 2.82-1.94h.81v.81zm13.62 4.27c0-.51-.11-1.26-.11-2v-8.45h-2.66v6.14c0 1.34-.55 2.27-1.74 2.27-.91 0-1.35-.59-1.35-1.92v-6.49h-2.69v7.28c0 2.3 1.31 3.35 3.11 3.35a2.85 2.85 0 002.79-1.86c0 .3 0 1.43.08 1.66zm9-3.13a2.71 2.71 0 00-2.06-2.79l-.91-.35c-1-.38-1.47-.74-1.47-1.33s.59-1.09 1.5-1.09a6.13 6.13 0 012.3.54l.1-2a8 8 0 00-2.57-.42c-2.6 0-3.85 1.43-3.85 3.23a2.75 2.75 0 002.1 2.81l1.11.45c.93.36 1.25.7 1.25 1.25s-.59 1.09-1.72 1.09a5.4 5.4 0 01-2.6-.75l-.08 2.18a8.3 8.3 0 003 .55c2.72 0 3.89-1.36 3.89-3.33zm11.26-2.21c0-3-1.3-5.27-3.66-5.27a3 3 0 00-2.77 1.66v-6.2h-2.68v13.27c0 .62 0 1.25-.08 1.88h2.56c0-.29.08-1.32.08-1.62a3 3 0 002.75 1.78c2.44 0 3.76-2.12 3.76-5.5zm-2.75.08c0 2.17-.53 3.44-1.84 3.44s-1.84-1.27-1.84-3.44.61-3.43 1.84-3.43 1.84 1.27 1.84 3.43zm13.29.81v-1c0-3-1.43-5.19-4.24-5.19s-4.42 2.32-4.42 5.37 1.31 5.44 4.8 5.44a9.6 9.6 0 003.29-.61l-.08-2a6.11 6.11 0 01-2.72.83c-1.62 0-2.67-.81-2.71-2.83zm-2.5-1.61h-3.62c0-1.92.81-2.79 1.86-2.79s1.76.83 1.76 2.6v.19zm10.42-2.09v-2.44a1.62 1.62 0 00-.3 0 2.77 2.77 0 00-2.81 1.88c0-.3 0-1.47-.06-1.7h-2.55c0 .61.1 1.52.1 2.65v7.77h2.69v-5.33c0-1.82.87-2.91 2.1-2.91a3.35 3.35 0 01.87.1zm10.2-2.28h-2.52c0 .29-.1 1.35-.1 1.62a3 3 0 00-2.69-1.8c-2.41 0-3.84 2.1-3.84 5.21 0 3.44 1.27 5.46 3.78 5.46a3 3 0 002.75-1.9v1.19c0 1.88-.77 3.09-2.87 3.09a6 6 0 01-3.05-.93l-.1 2.3a11.41 11.41 0 003.49.67c3.19 0 5-1.66 5-4.93v-7.8c0-.83.06-1.55.1-2.18zm-2.77 5.17c0 2.15-.44 3.4-1.83 3.4s-1.84-1.27-1.84-3.46.5-3.29 1.8-3.29 1.87 1.19 1.87 3.35zM1653.83 630.45v-2.15h-5.13v-4h4.62v-2.16h-4.62v-3.59h4.87v-2.16H1646v14.09zm8-8.14v-2.44a1.62 1.62 0 00-.3 0 2.77 2.77 0 00-2.81 1.88c0-.3 0-1.47-.06-1.7h-2.55c0 .61.1 1.52.1 2.65v7.77h2.69v-5.33c0-1.82.87-2.91 2.1-2.91a3.35 3.35 0 01.87.1zm10.66 8.14l-3.79-5.69 3.49-4.73h-2.81l-3 4.24v-9h-2.68v15.14h2.68v-5.11l3 5.11zm10 0v-7.27c0-2.28-1.31-3.33-3.11-3.33a2.89 2.89 0 00-2.79 1.84c0-.31 0-1.44-.06-1.66H1674c0 .61.1 1.42.1 2.18v8.24h2.69v-6c0-1.47.62-2.42 1.73-2.42.89 0 1.36.61 1.36 1.92v6.48zm11.01-4.45v-1c0-2.95-1.43-5.19-4.24-5.19s-4.42 2.32-4.42 5.37 1.31 5.44 4.8 5.44a9.71 9.71 0 003.3-.61l-.09-2a6.11 6.11 0 01-2.72.83c-1.62 0-2.67-.81-2.71-2.83zm-2.5-1.61h-3.62c0-1.92.81-2.79 1.86-2.79s1.76.83 1.76 2.6v.19zm10.42-2.09v-2.44a1.62 1.62 0 00-.3 0 2.77 2.77 0 00-2.81 1.88c0-.3 0-1.47-.06-1.7h-2.55c0 .61.11 1.52.11 2.65v7.77h2.68v-5.33c0-1.82.87-2.91 2.1-2.91a3.35 3.35 0 01.87.1zM1496 947.64h-2.46l-2 10.66-2-10.66h-3.35l-2 10.66-1.9-10.66h-2.73l2.93 14.09h3.27l2.1-11.47 2.06 11.47h3.32l2.82-14.09zm9.76 14.09c0-.5-.1-1.25-.1-2v-8.45H1503v6.14c0 1.34-.54 2.27-1.73 2.27-.91 0-1.36-.59-1.36-1.92v-6.49h-2.68v7.28c0 2.3 1.31 3.35 3.11 3.35a2.87 2.87 0 002.79-1.86c0 .3 0 1.43.08 1.65zm9-3.13a2.72 2.72 0 00-2.06-2.78l-.91-.35c-1-.38-1.48-.74-1.48-1.33s.59-1.09 1.5-1.09a6 6 0 012.3.54l.1-2a7.64 7.64 0 00-2.56-.43c-2.61 0-3.86 1.43-3.86 3.23a2.76 2.76 0 002.1 2.81l1.11.44c.93.37 1.25.71 1.25 1.26s-.58 1.09-1.71 1.09a5.44 5.44 0 01-2.61-.75l-.08 2.18a8.34 8.34 0 003 .55c2.73 0 3.9-1.35 3.9-3.34zm7.75 3.07v-1.91a2.11 2.11 0 01-.94.2c-.71 0-1.14-.41-1.14-1.44v-5.27h2.08v-1.94h-2.08v-3l-2.66.81v2.16H1516v1.94h1.74v5.9a2.54 2.54 0 002.87 2.79 7.37 7.37 0 001.91-.27zm10.25-4.38v-1c0-3-1.44-5.19-4.25-5.19s-4.42 2.32-4.42 5.37 1.31 5.44 4.81 5.44a9.65 9.65 0 003.29-.61l-.08-2a6.19 6.19 0 01-2.73.83c-1.61 0-2.66-.81-2.7-2.83zm-2.51-1.61h-3.61c0-1.92.8-2.79 1.85-2.79 1.2 0 1.76.83 1.76 2.6v.19zm10.42-2.09v-2.44a1.62 1.62 0 00-.3 0 2.79 2.79 0 00-2.81 1.88c0-.3 0-1.47-.06-1.7h-2.54c0 .61.1 1.52.1 2.65v7.77h2.68v-5.35c0-1.82.87-2.91 2.11-2.91a3.27 3.27 0 01.86.1zm10.35 8.14v-7.27c0-2.28-1.32-3.33-3.11-3.33a2.89 2.89 0 00-2.65 1.56v-6.1h-2.68v15.14h2.68v-6c0-1.47.63-2.42 1.74-2.42.89 0 1.35.61 1.35 1.92v6.48zm10.84 0a17.74 17.74 0 01-.1-2v-4.95c0-1.6-.5-3.7-4-3.7a7.42 7.42 0 00-3.42.77l.14 2.1a4.67 4.67 0 012.85-1c1.6 0 2 .89 2 1.86v.4h-1c-3.59 0-5.13 1.35-5.13 3.54a2.93 2.93 0 003.09 3.17 3.59 3.59 0 003-1.62c0 .24.1 1.17.12 1.41zm-2.52-4.26c0 1.22-.56 2.65-2.14 2.65a1.36 1.36 0 01-1.49-1.54c0-1.21 1-1.94 2.82-1.94h.81v.81zm13.61 4.26c0-.5-.1-1.25-.1-2v-8.45h-2.66v6.14c0 1.34-.55 2.27-1.74 2.27-.91 0-1.35-.59-1.35-1.92v-6.49h-2.69v7.28c0 2.3 1.31 3.35 3.11 3.35a2.85 2.85 0 002.79-1.86c0 .3 0 1.43.08 1.65zm9-3.13a2.71 2.71 0 00-2.06-2.78l-.91-.35c-1-.38-1.47-.74-1.47-1.33s.58-1.09 1.49-1.09a6.13 6.13 0 012.31.54l.1-2a7.75 7.75 0 00-2.57-.43c-2.6 0-3.85 1.43-3.85 3.23a2.75 2.75 0 002.1 2.81l1.11.44c.93.37 1.25.71 1.25 1.26s-.59 1.09-1.72 1.09a5.36 5.36 0 01-2.6-.75l-.08 2.18a8.24 8.24 0 003 .55c2.73 0 3.9-1.35 3.9-3.34zm10.45-1.31v-1c0-3-1.44-5.19-4.25-5.19s-4.42 2.32-4.42 5.37 1.31 5.44 4.81 5.44a9.65 9.65 0 003.29-.61l-.08-2a6.19 6.19 0 01-2.73.83c-1.61 0-2.66-.81-2.7-2.83zm-2.51-1.61h-3.61c0-1.92.8-2.79 1.85-2.79 1.2 0 1.76.83 1.76 2.6v.19zm13.21 6.05v-7.27c0-2.28-1.31-3.33-3.11-3.33a2.89 2.89 0 00-2.79 1.84c0-.31 0-1.44-.06-1.66h-2.54c0 .61.1 1.42.1 2.18v8.24h2.69v-6c0-1.47.62-2.42 1.73-2.42.89 0 1.36.61 1.36 1.92v6.48zM1524.06 945.57l-5-7.47 4.67-6.62h-3.16l-3.87 5.92v-5.92h-2.79v14.09h2.79V939l4 6.58zm9.84-5.21c0-3-1.42-5.39-4.69-5.39s-4.68 2.36-4.68 5.39 1.39 5.42 4.68 5.42 4.69-2.37 4.69-5.42zm-2.79 0c0 2.06-.48 3.48-1.9 3.48s-1.9-1.42-1.9-3.48.47-3.47 1.9-3.47 1.9 1.43 1.9 3.47zm-2.36-8.12a1.23 1.23 0 00-1.21-1.23 1.23 1.23 0 100 2.46 1.22 1.22 0 001.21-1.23zm3.43 0A1.22 1.22 0 001531 931a1.23 1.23 0 100 2.46 1.21 1.21 0 001.21-1.23zm12.46 13.33v-7.27c0-2.28-1.31-3.33-3.11-3.33a2.87 2.87 0 00-2.78 1.84c0-.31 0-1.43-.06-1.66h-2.54c0 .61.1 1.42.1 2.18v8.24h2.69v-6c0-1.47.62-2.42 1.73-2.42.89 0 1.36.61 1.36 1.92v6.48zm5.36 0v-10.42h-2.69v10.42zm.12-13.53a1.48 1.48 0 10-1.48 1.42 1.45 1.45 0 001.48-1.42zm11.33 3.11h-2.52c0 .29-.1 1.35-.1 1.62a3 3 0 00-2.69-1.8c-2.4 0-3.84 2.1-3.84 5.21 0 3.44 1.27 5.46 3.78 5.46a3 3 0 002.75-1.9v1.19c0 1.88-.77 3.09-2.87 3.09a6 6 0 01-3-.93l-.1 2.3a11.41 11.41 0 003.49.67c3.19 0 5-1.66 5-4.93v-7.8c0-.83.06-1.55.1-2.18zm-2.77 5.17c0 2.15-.44 3.4-1.83 3.4s-1.84-1.28-1.84-3.46.5-3.29 1.8-3.29 1.87 1.19 1.87 3.35zm11.78 2.12a2.72 2.72 0 00-2.06-2.78l-.91-.35c-1-.38-1.48-.74-1.48-1.33s.59-1.09 1.5-1.09a6 6 0 012.3.54l.1-2a7.64 7.64 0 00-2.56-.43c-2.61 0-3.86 1.43-3.86 3.23a2.76 2.76 0 002.1 2.81l1.11.44c.93.37 1.25.71 1.25 1.26s-.58 1.09-1.71 1.09a5.44 5.44 0 01-2.61-.75l-.08 2.18a8.34 8.34 0 003 .55c2.73 0 3.9-1.36 3.9-3.34z"></path>
  <path class="cls-21" d="M1256.42 911.4l-1.63-5c-.45-1.37-.89-1.77-1.72-2v-.06a3.22 3.22 0 002.75-3.29c0-2-1-3.74-4.24-3.74H1247v14.1h2.79v-5.94h.5c1 0 1.54.31 1.92 1.56l1.34 4.38zm-3.43-10a1.93 1.93 0 01-2.08 2h-1.25v-4h1.23a1.87 1.87 0 012.1 2zm13.67 10c0-.5-.1-1.25-.1-2V901h-2.66v6.14c0 1.33-.55 2.26-1.74 2.26-.91 0-1.35-.58-1.35-1.91V901h-2.69v7.27c0 2.3 1.31 3.35 3.11 3.35a2.85 2.85 0 002.79-1.85c0 .3 0 1.43.08 1.65zm11.3 0c0-.62-.08-1.25-.08-1.87v-13.27h-2.67v6.19a2.93 2.93 0 00-2.77-1.65c-2.38 0-3.65 2.26-3.65 5.27 0 3.37 1.29 5.49 3.75 5.49a3 3 0 002.75-1.77c0 .3.06 1.33.08 1.61zm-2.75-5.25c0 2.16-.6 3.44-1.84 3.44s-1.84-1.28-1.84-3.44.53-3.43 1.84-3.43 1.84 1.27 1.84 3.43zm14.3 0c0-3-1.41-5.39-4.68-5.39s-4.69 2.36-4.69 5.39 1.39 5.41 4.69 5.41 4.68-2.36 4.68-5.41zm-2.79 0c0 2.06-.48 3.48-1.89 3.48s-1.9-1.42-1.9-3.48.46-3.47 1.9-3.47 1.89 1.43 1.89 3.47zm18.83-5.21H1303l-1.61 8-1.64-8h-3.09l-1.63 8-1.64-8h-2.77l2.79 10.42h3l1.76-8.1 1.81 8.1h2.93l2.75-10.42z"></path>
  <path class="cls-22" d="M900 1038.71a3.15 3.15 0 00-2.74-3.39 3.16 3.16 0 002.48-3.3c0-2.1-1.33-3.45-4.18-3.45h-4.46v14.1h4.4c2.89 0 4.5-1.54 4.5-3.92zm-3-6.3c0 1.35-.87 2-2.33 2h-.91v-3.86H895c1.37 0 2.06.74 2.06 1.88zm.26 6.1a2 2 0 01-2.22 2.08h-1.28v-4.18h1.46a1.9 1.9 0 012 2.1zm7.9 4.12v-15.15h-2.69v15.15zm10.86 0a17.94 17.94 0 01-.1-2v-5c0-1.6-.5-3.7-4-3.7a7.55 7.55 0 00-3.42.77l.14 2.1a4.67 4.67 0 012.85-1c1.6 0 2 .89 2 1.86v.4h-1c-3.59 0-5.13 1.36-5.13 3.54a2.93 2.93 0 003.09 3.17 3.61 3.61 0 003-1.61c0 .24.1 1.16.12 1.41zm-2.52-4.26c0 1.21-.56 2.64-2.14 2.64a1.36 1.36 0 01-1.49-1.53c0-1.22 1-1.94 2.82-1.94h.81v.81zm13.51 4.26v-7.28c0-2.28-1.31-3.33-3.11-3.33a2.89 2.89 0 00-2.79 1.84c0-.3 0-1.43-.06-1.65h-2.54c0 .6.1 1.41.1 2.18v8.24h2.69v-6c0-1.48.62-2.43 1.73-2.43.89 0 1.36.61 1.36 1.92v6.49zm11.42 0l-3.8-5.7 3.49-4.72h-2.8l-3 4.24v-9h-2.68v15.15h2.68v-5.11l3 5.11zm9.47-4.45v-1c0-3-1.44-5.19-4.24-5.19s-4.42 2.33-4.42 5.38 1.31 5.43 4.8 5.43a9.41 9.41 0 003.29-.61l-.08-2a6.11 6.11 0 01-2.72.83c-1.62 0-2.67-.81-2.71-2.83zm-2.51-1.61h-3.61c0-1.92.81-2.79 1.86-2.79s1.75.83 1.75 2.61v.18zm13.22 6.06v-7.28c0-2.28-1.32-3.33-3.12-3.33a2.87 2.87 0 00-2.78 1.84c0-.3 0-1.43-.06-1.65h-2.55c0 .6.1 1.41.1 2.18v8.24h2.69v-6c0-1.48.62-2.43 1.74-2.43.88 0 1.35.61 1.35 1.92v6.49zm8.42-15.19a8.5 8.5 0 00-1.84-.2c-2 0-3 1-3 3.09v1.88h-1.75v1.93h1.75v8.49h2.67v-8.49h1.92v-1.93h-1.92v-1.5c0-1 .32-1.48 1.21-1.48a2.46 2.46 0 011 .23v-2zm9.69 10.74v-1c0-3-1.43-5.19-4.24-5.19s-4.42 2.33-4.42 5.38 1.31 5.43 4.81 5.43a9.41 9.41 0 003.29-.61l-.08-2a6.19 6.19 0 01-2.73.83c-1.62 0-2.67-.81-2.71-2.83zm-2.5-1.61h-3.62c0-1.92.81-2.79 1.86-2.79s1.76.83 1.76 2.61v.18zm7.47 6.06v-15.15H979v15.15zm11.42 0c0-.63-.09-1.25-.09-1.88v-13.27h-2.66v6.2a2.94 2.94 0 00-2.77-1.66c-2.38 0-3.65 2.26-3.65 5.28 0 3.37 1.29 5.49 3.75 5.49a3 3 0 002.75-1.78c0 .31.06 1.33.08 1.62zm-2.75-5.25c0 2.16-.6 3.43-1.84 3.43s-1.84-1.27-1.84-3.43.53-3.44 1.84-3.44 1.84 1.27 1.84 3.44zm13.59.8v-1c0-3-1.43-5.19-4.24-5.19s-4.42 2.33-4.42 5.38 1.31 5.43 4.8 5.43a9.43 9.43 0 003.3-.61l-.08-2a6.19 6.19 0 01-2.73.83c-1.62 0-2.67-.81-2.71-2.83zm-2.5-1.61h-3.62c0-1.92.81-2.79 1.86-2.79s1.76.83 1.76 2.61v.18z"></path>
  <path class="cls-21" d="M431.27 909.26h-2.47l-2 10.66-2-10.66h-3.35l-2 10.66-1.9-10.66h-2.73l2.93 14.09h3.27l2.1-11.47 2.06 11.47h3.32l2.83-14.09zm9.06 14.09a17.74 17.74 0 01-.1-2v-4.95c0-1.6-.5-3.7-4-3.7a7.42 7.42 0 00-3.42.77l.14 2.1a4.67 4.67 0 012.85-1c1.6 0 2 .89 2 1.86v.4h-1c-3.59 0-5.13 1.35-5.13 3.54a2.93 2.93 0 003.09 3.17 3.59 3.59 0 003-1.62c0 .24.1 1.17.12 1.41zm-2.52-4.26c0 1.22-.56 2.65-2.14 2.65a1.36 1.36 0 01-1.49-1.53c0-1.22 1-2 2.82-2h.81v.81zm13.51 4.26v-7.27c0-2.28-1.31-3.33-3.11-3.33a2.89 2.89 0 00-2.79 1.84c0-.31 0-1.43-.06-1.66h-2.54c0 .61.1 1.42.1 2.18v8.24h2.69v-6c0-1.48.62-2.43 1.73-2.43.89 0 1.36.61 1.36 1.92v6.48zm11.09 0v-7.27c0-2.28-1.31-3.33-3.11-3.33a2.89 2.89 0 00-2.79 1.84c0-.31 0-1.43-.06-1.66h-2.54c0 .61.1 1.42.1 2.18v8.24h2.68v-6c0-1.48.63-2.43 1.74-2.43.89 0 1.36.61 1.36 1.92v6.48zm9.13-3.13a2.71 2.71 0 00-2.06-2.78l-.91-.35c-1-.38-1.47-.74-1.47-1.33s.58-1.09 1.49-1.09a6.13 6.13 0 012.31.54l.1-2a7.75 7.75 0 00-2.57-.43c-2.6 0-3.85 1.43-3.85 3.23a2.75 2.75 0 002.09 2.81l1.12.44c.92.37 1.25.71 1.25 1.26s-.59 1.09-1.72 1.09a5.26 5.26 0 01-2.6-.75l-.08 2.18a8.24 8.24 0 003 .55c2.73 0 3.9-1.36 3.9-3.34zm10.46-1.31v-1c0-3-1.44-5.19-4.25-5.19s-4.42 2.32-4.42 5.37 1.31 5.44 4.81 5.44a9.65 9.65 0 003.29-.61l-.08-2a6.19 6.19 0 01-2.73.83c-1.61 0-2.66-.81-2.71-2.83zm-2.51-1.61h-3.61c0-1.92.8-2.79 1.85-2.79s1.76.83 1.76 2.6v.19zm13 1.61v-1c0-3-1.43-5.19-4.24-5.19s-4.42 2.32-4.42 5.37 1.31 5.44 4.8 5.44A9.6 9.6 0 00492 923l-.08-2a6.11 6.11 0 01-2.72.83c-1.62 0-2.67-.81-2.71-2.83zM490 917.3h-3.62c0-1.92.81-2.79 1.86-2.79s1.76.83 1.76 2.6v.19z"></path>
  <path class="cls-22" d="M232.71 967.41c0-2.64-1.49-4.34-4.66-4.34h-4v14.1h2.78v-5.41h1.4c2.83 0 4.52-1.56 4.52-4.35zm-2.82.07a2.06 2.06 0 01-2.35 2.2h-.83v-4.53h.79a2.09 2.09 0 012.39 2.33zm13.37 4.52c0-3-1.42-5.39-4.69-5.39s-4.68 2.36-4.68 5.39 1.39 5.41 4.68 5.41 4.69-2.36 4.69-5.41zm-2.79 0c0 2.06-.48 3.48-1.9 3.48s-1.9-1.42-1.9-3.48.47-3.48 1.9-3.48 1.9 1.44 1.9 3.48zm10.68 5.15v-1.92a2.12 2.12 0 01-1 .21c-.7 0-1.13-.41-1.13-1.44v-5.27h2.08v-1.94H249v-3l-2.66.81v2.16h-1.74v1.94h1.74v5.9a2.53 2.53 0 002.86 2.78 7.45 7.45 0 001.92-.26zm8.45-3.15a2.74 2.74 0 00-2.06-2.79l-.91-.34c-1-.38-1.48-.75-1.48-1.33s.59-1.1 1.5-1.1a6 6 0 012.3.55l.1-2a7.92 7.92 0 00-2.56-.42c-2.61 0-3.86 1.43-3.86 3.23a2.76 2.76 0 002.1 2.81l1.11.44c.93.36 1.25.71 1.25 1.25s-.58 1.1-1.71 1.1a5.44 5.44 0 01-2.61-.75l-.08 2.18a8.36 8.36 0 003 .54c2.73 0 3.9-1.35 3.9-3.33zm10.91 3.13c0-.62-.09-1.25-.09-1.88V962h-2.66v6.2a2.93 2.93 0 00-2.77-1.65c-2.38 0-3.65 2.26-3.65 5.27 0 3.37 1.29 5.49 3.75 5.49a3 3 0 002.75-1.77c0 .3.06 1.33.08 1.61zm-2.75-5.25c0 2.16-.6 3.43-1.84 3.43s-1.84-1.27-1.84-3.43.53-3.44 1.84-3.44 1.84 1.28 1.84 3.44zm13.51 5.25a17.8 17.8 0 01-.1-2v-5c0-1.59-.5-3.69-4-3.69a7.41 7.41 0 00-3.41.77l.14 2.09a4.73 4.73 0 012.85-1c1.59 0 2 .89 2 1.86v.41h-1c-3.59 0-5.13 1.35-5.13 3.53a2.93 2.93 0 003.09 3.17 3.6 3.6 0 003-1.61c0 .24.1 1.17.12 1.41zm-2.52-4.26c0 1.21-.57 2.65-2.14 2.65a1.37 1.37 0 01-1.5-1.54c0-1.21 1-1.94 2.83-1.94h.81v.81zm18.9 4.26v-7.35c0-2.26-1.31-3.25-3-3.25a3.07 3.07 0 00-2.82 1.67 2.72 2.72 0 00-2.65-1.67 2.88 2.88 0 00-2.77 1.83c0-.3 0-1.43-.06-1.65h-2.54c0 .54.1 1.35.1 2.24v8.18h2.68v-6.06c0-1.47.55-2.34 1.62-2.34.85 0 1.29.54 1.29 1.71v6.69h2.67V971c0-1.31.44-2.18 1.59-2.18.87 0 1.32.54 1.32 1.71v6.69zm17.54 0v-14.1h-2.79v5.72h-3.94v-5.72h-2.78v14.1h2.78V971h3.94v6.14zm12.06-5.33c0-3-1.3-5.27-3.66-5.27a2.94 2.94 0 00-2.77 1.65V962h-2.68v13.27c0 .63 0 1.26-.08 1.88h2.56c0-.28.08-1.31.08-1.61a3 3 0 002.75 1.77c2.44 0 3.76-2.12 3.76-5.49zm-2.75.08c0 2.16-.52 3.43-1.84 3.43s-1.84-1.27-1.84-3.43.61-3.44 1.84-3.44 1.84 1.28 1.84 3.44zm10.79-9.88a8.5 8.5 0 00-1.84-.2c-2 0-3 1-3 3.09v1.88h-1.76v1.94h1.76v8.48h2.67v-8.48H335v-1.94h-1.91v-1.5c0-1 .32-1.47 1.21-1.47a2.5 2.5 0 01.95.22v-2zM590.59 1009.52v-2.2h-9.07v2.2h3.13v11.9h2.81v-11.9zm8.16 7.46v-1c0-3-1.43-5.19-4.24-5.19s-4.42 2.32-4.42 5.37 1.31 5.43 4.8 5.43a9.62 9.62 0 003.29-.6l-.08-2a6.23 6.23 0 01-2.72.83c-1.62 0-2.67-.81-2.71-2.83zm-2.51-1.62h-3.61c0-1.92.81-2.79 1.86-2.79s1.75.83 1.75 2.61v.18zm7.48 6.06v-15.15H601v15.15zm8.26-.06v-1.92a2 2 0 01-1 .21c-.71 0-1.13-.41-1.13-1.44v-5.27h2.08V1011h-2.08v-3l-2.66.81v2.19h-1.74v1.94h1.74v5.9a2.53 2.53 0 002.86 2.78 7.45 7.45 0 001.92-.26zm10.95-5.15c0-3-1.41-5.39-4.69-5.39s-4.68 2.36-4.68 5.39 1.39 5.41 4.68 5.41 4.69-2.36 4.69-5.41zm-2.79 0c0 2.06-.48 3.48-1.9 3.48s-1.9-1.42-1.9-3.48.47-3.47 1.9-3.47 1.9 1.43 1.9 3.47zM639 1011h-2.59l-1.61 8-1.64-8H630l-1.64 8-1.63-8h-2.77l2.79 10.42h3l1.75-8.1h.05l1.81 8.1h2.93L639 1011zm14.93 6.28a3.85 3.85 0 00-2.39-3.63l-1-.53c-1.76-.91-2.1-1.37-2.1-2.18 0-1 .79-1.72 2-1.72a5.83 5.83 0 012.65.67l.08-2.24a8.37 8.37 0 00-3-.53c-2.57 0-4.52 1.37-4.52 3.88 0 1.82.56 2.93 3 4.1 2 1 2.45 1.48 2.45 2.49s-.71 1.85-2.23 1.85a6.5 6.5 0 01-2.92-.86l-.12 2.46a10.12 10.12 0 003.35.58c3 0 4.81-1.67 4.81-4.34zm8 4.08v-1.92a2 2 0 01-.94.21c-.71 0-1.14-.41-1.14-1.44v-5.27h2.08V1011h-2.08v-3l-2.66.81v2.19h-1.74v1.94h1.74v5.9a2.53 2.53 0 002.86 2.78 7.45 7.45 0 001.92-.26zm10.17.06a15.42 15.42 0 01-.11-2v-4.94c0-1.6-.5-3.7-4-3.7a7.42 7.42 0 00-3.42.77l.14 2.1a4.68 4.68 0 012.85-1c1.6 0 2 .89 2 1.87v.4h-1c-3.59 0-5.13 1.35-5.13 3.53a2.93 2.93 0 003.09 3.17 3.57 3.57 0 003-1.61c0 .24.1 1.17.12 1.41zm-2.53-4.26c0 1.21-.56 2.65-2.14 2.65a1.36 1.36 0 01-1.49-1.54c0-1.21 1-1.94 2.82-1.94h.81v.81zm13.82 4.26c0-.62-.08-1.25-.08-1.87v-13.28h-2.67v6.2a2.93 2.93 0 00-2.77-1.65c-2.38 0-3.65 2.26-3.65 5.27 0 3.37 1.29 5.49 3.75 5.49a3 3 0 002.75-1.77c0 .3.06 1.33.08 1.61zm-2.75-5.25c0 2.16-.6 3.44-1.84 3.44s-1.84-1.28-1.84-3.44.53-3.43 1.84-3.43 1.84 1.27 1.84 3.43zm10.91 5.19v-1.92a2.05 2.05 0 01-1 .21c-.71 0-1.13-.41-1.13-1.44v-5.27h2.08V1011h-2.08v-3l-2.67.81v2.19H685v1.94h1.73v5.9c0 1.9 1.09 2.78 2.87 2.78a7.52 7.52 0 001.92-.26z"></path>
  <path class="cls-23" d="M1281.13 1011.14a19.67 19.67 0 11-19.67-19.67 19.69 19.69 0 0119.67 19.67"></path>
  <path class="cls-24" d="M1281.13 1011.14a19.67 19.67 0 11-19.67-19.67 19.69 19.69 0 0119.67 19.67"></path>
  <path d="M1269.51 1004.23l-3.65 3.81 2.68 14.07-1.86 1.94-1.29-3.54-3.84-8.31c-1.52 1.36-3.69 3.22-5.33 4.43l-.31 4.27-1.47 1.52-1.44-3.81-3.85-1.44 1.56-1.47 4.23-.31c1.25-1.64 3.07-3.85 4.43-5.29l-8.31-3.92-3.54-1.25 1.94-1.86 14.07 2.64 3.81-3.61c1.4-1.32 4.16-3.69 5-2.88s-1.52 3.61-2.84 5z"></path>
  <path class="cls-20" d="M1254.76 1052.54a3.17 3.17 0 00-2.74-3.4 3.15 3.15 0 002.48-3.29c0-2.1-1.33-3.45-4.18-3.45h-4.46v14.09h4.4c2.89 0 4.5-1.53 4.5-3.91zm-3-6.31c0 1.36-.87 2-2.33 2h-.91v-3.86h1.17c1.38 0 2.07.75 2.07 1.88zm.26 6.1a2 2 0 01-2.22 2.09h-1.28v-4.19h1.48a1.91 1.91 0 012 2.1zm13.27 4.12v-2.16h-5.13v-4h4.62v-2.16h-4.62v-3.59h4.87v-2.16h-7.62v14.09zm12.06 0l-1.64-5c-.44-1.37-.89-1.77-1.71-2v-.07a3.22 3.22 0 002.74-3.29c0-2-1-3.73-4.24-3.73h-4.62v14.09h2.78v-5.94h.51c1 0 1.53.31 1.92 1.56l1.33 4.38zm-3.43-10a1.93 1.93 0 01-2.09 2h-1.25v-4h1.23a1.88 1.88 0 012.11 2z"></path>
  <path class="cls-23" d="M865.14 423.32a19.68 19.68 0 11-19.68-19.67 19.7 19.7 0 0119.68 19.67z"></path>
  <path class="cls-24" d="M865.14 423.32a19.68 19.68 0 11-19.68-19.67 19.7 19.7 0 0119.68 19.67z"></path>
  <path d="M854.32 438.84h-18.13l.51-1.54h2.9v-1.55h1.59v1.55h8.12v-1.55h1.58v1.55h2.95l.48 1.54zM846.14 409.43l.45 1.57h-1.96l-.45-1.57h-3.61l.51-1.54h8.38l.48 1.54h-3.8zM853.63 417.53c-.6-1.6-2.21-4.31-3.53-4.82a31.91 31.91 0 00-9.69 0c-1.33.51-2.93 3.22-3.53 4.82a21.93 21.93 0 00-1 7.2c0 2-.07 4.6 1.83 7.12l1.94 2.36h11.3l1.94-2.36c1.91-2.52 1.82-5.13 1.83-7.12a21.92 21.92 0 00-1-7.2zm-8.38-3.67a1.27 1.27 0 11-1.38 1.26 1.33 1.33 0 011.38-1.26zm-4.67 15.93a1.27 1.27 0 111.39-1.26 1.32 1.32 0 01-1.39 1.26zm9.34 0a1.27 1.27 0 111.39-1.26 1.32 1.32 0 01-1.39 1.26zm2.46-4.51s-4.67-.27-7.13-.28-7.13.3-7.13.3a13.61 13.61 0 011.15-7.13 57.81 57.81 0 016-.49 59.72 59.72 0 016 .5 13.3 13.3 0 011.14 7.1zM839.3 469.25v-14.1h-2.78v5.72h-3.94v-5.72h-2.79v14.1h2.79v-6.14h3.94v6.14zm12.08-3.92a3.16 3.16 0 00-2.74-3.39 3.15 3.15 0 002.48-3.29c0-2.1-1.33-3.46-4.18-3.46h-4.47v14.1h4.41c2.89 0 4.5-1.53 4.5-3.92zm-3-6.3c0 1.36-.87 2-2.32 2h-.91v-3.86h1.17a1.8 1.8 0 012.06 1.88zm.27 6.1a2 2 0 01-2.23 2.08h-1.27V463h1.46a1.91 1.91 0 012 2.1zm12.7-7.82v-2.16h-7.31v14.1h2.75v-6.1h4.36V461h-4.36v-3.68z"></path>
  <path class="cls-19" d="M671.16 369.31l13.61 6.8V362.5l-13.61 6.81zM754.64 369.31l-13.62-6.81v13.61l13.62-6.8zM703.87 377.3l-2-6c-.53-1.65-1.07-2.13-2.06-2.38v-.07a3.86 3.86 0 003.29-3.95c0-2.35-1.18-4.48-5.09-4.48h-5.54v16.88h3.34v-7.12h.6c1.17 0 1.85.36 2.31 1.86l1.6 5.26zm-4.12-12a2.31 2.31 0 01-2.5 2.38h-1.5v-4.78h1.48a2.24 2.24 0 012.52 2.4zm9.89 12v-12.5h-3.22v12.5zm.14-16.23a1.77 1.77 0 10-1.76 1.69 1.72 1.72 0 001.76-1.69zM723 377.3v-8.72c0-2.74-1.57-4-3.73-4a3.46 3.46 0 00-3.35 2.2c0-.36 0-1.72-.07-2h-3c0 .72.12 1.69.12 2.61v9.89h3.22v-7.17c0-1.77.75-2.91 2.09-2.91 1.06 0 1.62.73 1.62 2.3v7.78zm13.72-12.5h-3c0 .34-.12 1.62-.12 1.93a3.54 3.54 0 00-3.22-2.15c-2.88 0-4.6 2.52-4.6 6.25 0 4.12 1.52 6.55 4.53 6.55a3.51 3.51 0 003.29-2.28v1.43c0 2.25-.92 3.71-3.44 3.71a7.27 7.27 0 01-3.66-1.12l-.12 2.77a13.8 13.8 0 004.19.79c3.83 0 6.06-2 6.06-5.91v-9.36c0-1 .07-1.86.12-2.61zm-3.32 6.2c0 2.57-.53 4.08-2.2 4.08s-2.21-1.53-2.21-4.15.61-3.95 2.16-3.95 2.25 1.43 2.25 4zM1005.43 705l13.62 6.81V698.2l-13.62 6.8zM1088.91 705l-13.61-6.8v13.61l13.61-6.81zM1038.15 713l-2-6c-.53-1.65-1.06-2.14-2.06-2.38v-.07a3.87 3.87 0 003.3-3.95c0-2.35-1.19-4.49-5.09-4.49h-5.55V713h3.34v-7.13h.61c1.16 0 1.84.37 2.3 1.87l1.6 5.26zm-4.15-12a2.32 2.32 0 01-2.5 2.38h-1.5v-4.78h1.47a2.24 2.24 0 012.53 2.4zm9.88 12v-12.5h-3.22V713zm.15-16.24a1.77 1.77 0 10-1.77 1.7 1.73 1.73 0 001.77-1.7zm13.22 16.24v-8.72c0-2.74-1.58-4-3.74-4a3.44 3.44 0 00-3.34 2.2h-.05c0-.36 0-1.72-.07-2h-3c0 .72.12 1.69.12 2.61V713h3.22v-7.17c0-1.77.75-2.91 2.08-2.91 1.07 0 1.63.72 1.63 2.3V713zm13.75-12.5h-3c0 .33-.12 1.62-.12 1.93a3.55 3.55 0 00-3.22-2.15c-2.89 0-4.61 2.52-4.61 6.25 0 4.12 1.53 6.54 4.53 6.54a3.53 3.53 0 003.3-2.27v1.43c0 2.25-.92 3.71-3.44 3.71a7.21 7.21 0 01-3.66-1.12l-.13 2.76a13.6 13.6 0 004.2.8c3.83 0 6-2 6-5.91v-9.36c0-1 .08-1.86.13-2.61zm-3.32 6.2c0 2.57-.54 4.07-2.21 4.07s-2.2-1.52-2.2-4.14.6-4 2.15-4 2.26 1.43 2.26 4z"></path>
  <path class="cls-23" d="M632.35 485.94a19.67 19.67 0 11-19.67-19.67 19.69 19.69 0 0119.67 19.67"></path>
  <path class="cls-24" d="M632.35 485.94a19.67 19.67 0 11-19.67-19.67 19.69 19.69 0 0119.67 19.67"></path>
  <path d="M619.08 497.16h-12.8v1.56a1.47 1.47 0 01-1.42 1.42h-.74a1.49 1.49 0 01-1.57-1.55v-1.42a.9.9 0 01-.75-.75 9.85 9.85 0 01-.4-1.85 99.43 99.43 0 01-.19-10.64c0-1.64.11-3.29.19-4.93.06-1.44.14-2.88.26-4.32a4.73 4.73 0 01.33-1.21 1.67 1.67 0 011.71-1h4.37a.49.49 0 00.44-.18 1.55 1.55 0 011.44-.59h6a.46.46 0 01.43.17 1.54 1.54 0 001.46.6h3.58a5.94 5.94 0 01.72.05 1.44 1.44 0 011.2 1 4.87 4.87 0 01.34 1.35c.12 1.76.19 3.53.29 5.3.2 3.52.19 7.05.16 10.57 0 1.33-.12 2.65-.23 4a9.46 9.46 0 01-.38 1.72.89.89 0 01-.75.73v1.45a1.45 1.45 0 01-1.19 1.48 4.57 4.57 0 01-1.43 0 1.42 1.42 0 01-1.12-1.42v-1.5m3.25-7.6a136.46 136.46 0 00-.3-13.73h-18.64c0 .48-.07.95-.09 1.42-.09 2.36-.21 4.73-.27 7.09v4.91c0 .31 0 .31.32.31h19zm-16.74 2.4h-1.47a.65.65 0 00-.68.68v1.34a.65.65 0 00.68.69H607a.65.65 0 00.7-.66v-1.38a.65.65 0 00-.7-.67h-1.47m14.27 0h-1.44a.63.63 0 00-.7.63v1.45a.63.63 0 00.68.63h3a.65.65 0 00.66-.71v-1.33a.66.66 0 00-.7-.7h-1.48"></path>
  <path d="M612.41 488.21c.09-1.52 2-3 3.82-3.09a4 4 0 014 3.11h-1.5a.3.3 0 01-.23-.13 2.44 2.44 0 00-4.35 0 .26.26 0 01-.19.14h-1.54M604.26 531.87v-2.16h-5.86l5.75-9.66v-2.28h-8.58v2.16H601l-5.57 9.52v2.42zm13.37-7.11c0-4.81-2.59-7.19-5.7-7.19s-5.77 2.26-5.77 7.31c0 4.81 2.6 7.19 5.69 7.19s5.78-2.26 5.78-7.31zm-2.89 0c0 3.54-1.15 5.21-2.89 5.21-2 0-2.83-2.26-2.83-5.09 0-3.53 1.17-5.21 2.91-5.21 2 0 2.81 2.28 2.81 5.09zm14.44 3.24a3.16 3.16 0 00-2.74-3.39 3.15 3.15 0 002.48-3.29c0-2.11-1.33-3.46-4.18-3.46h-4.47v14.1h4.41c2.89 0 4.5-1.53 4.5-3.92zm-3-6.3c0 1.36-.87 2-2.32 2H623v-3.86h1.17a1.8 1.8 0 012.06 1.88zm.27 6.1a2 2 0 01-2.23 2.08H623v-4.18h1.45a1.91 1.91 0 012.05 2.1z"></path>
  <path class="cls-19" d="M904.29 713l-4.56-6.83 4.19-5.67h-3.37l-3.55 5.09v-10.77h-3.22V713H897v-6.13l3.64 6.13zm8.7-9.77v-2.93a2.36 2.36 0 00-.36 0 3.32 3.32 0 00-3.37 2.25c0-.36-.05-1.77-.07-2h-3.06c0 .72.13 1.81.13 3.17V713h3.22v-6.4c0-2.18 1-3.49 2.52-3.49a4.07 4.07 0 011 .12zm11.78 4.44v-1.16c0-3.54-1.72-6.23-5.09-6.23s-5.3 2.78-5.3 6.44 1.57 6.52 5.76 6.52a11.7 11.7 0 004-.72l-.1-2.45a7.5 7.5 0 01-3.27 1c-1.94 0-3.2-1-3.25-3.4zm-3-1.94h-4.34c0-2.3 1-3.35 2.23-3.35 1.43 0 2.11 1 2.11 3.13v.22zm16 7.27c0-.6-.12-1.5-.12-2.37V700.5h-3.2v7.36c0 1.61-.65 2.72-2.09 2.72-1.09 0-1.62-.7-1.62-2.3v-7.78h-3.22v8.72c0 2.76 1.57 4 3.73 4a3.43 3.43 0 003.35-2.22c0 .36 0 1.71.1 2zm11.1 0v-2.49h-5.31l5.19-7.33v-2.68h-8.39v2.5h5l-5.22 7.23V713zM903.42 685.81a4.63 4.63 0 00-2.86-4.36l-1.22-.63c-2.1-1.09-2.52-1.65-2.52-2.62 0-1.24.95-2.06 2.43-2.06a7 7 0 013.17.8l.1-2.69a10.36 10.36 0 00-3.66-.63c-3.08 0-5.43 1.65-5.43 4.65 0 2.19.68 3.52 3.59 4.93 2.4 1.16 2.93 1.77 2.93 3s-.85 2.23-2.67 2.23a7.87 7.87 0 01-3.51-1l-.15 3a12.1 12.1 0 004 .7c3.61 0 5.77-2 5.77-5.21zm13.16 5c-.05-.6-.12-1.5-.12-2.37v-10.16h-3.2v7.37c0 1.59-.66 2.71-2.09 2.71-1.09 0-1.62-.7-1.62-2.3v-7.78h-3.22V687c0 2.76 1.57 4 3.73 4a3.43 3.43 0 003.35-2.22c0 .36 0 1.71.1 2zm-5.75-16a1.46 1.46 0 00-1.45-1.47 1.48 1.48 0 100 3 1.46 1.46 0 001.45-1.48zm4.13 0a1.46 1.46 0 00-1.46-1.47 1.48 1.48 0 100 3 1.47 1.47 0 001.46-1.48zm15.17 16c0-.75-.1-1.5-.1-2.25V672.6h-3.2v7.44a3.51 3.51 0 00-3.32-2c-2.86 0-4.38 2.71-4.38 6.32 0 4 1.55 6.59 4.5 6.59a3.56 3.56 0 003.3-2.13h.07c0 .37.07 1.6.1 1.94zm-3.3-6.3c0 2.6-.72 4.12-2.2 4.12s-2.21-1.52-2.21-4.12.63-4.12 2.21-4.12 2.2 1.53 2.2 4.12zm11.73.65v-2.54h-5.74v2.54zM603.85 603.54l-4.56-6.83 4.19-5.67h-3.36l-3.57 5.09v-10.76h-3.22v18.17h3.22v-6.13l3.64 6.13zm8.7-9.77v-2.93a2.36 2.36 0 00-.36 0 3.33 3.33 0 00-3.37 2.25h-.05c0-.36 0-1.77-.07-2h-3.05c0 .73.12 1.81.12 3.17v9.33H609v-6.39c0-2.19 1-3.5 2.52-3.5a4.07 4.07 0 011 .12zm11.78 4.44v-1.16c0-3.54-1.72-6.23-5.09-6.23s-5.3 2.79-5.3 6.45 1.57 6.52 5.76 6.52a11.4 11.4 0 003.95-.73l-.09-2.45a7.45 7.45 0 01-3.28 1c-1.94 0-3.2-1-3.24-3.4zm-3-1.93H617c0-2.31 1-3.35 2.23-3.35 1.43 0 2.11 1 2.11 3.13v.22zm16 7.26c0-.6-.12-1.5-.12-2.37V591H634v7.37c0 1.6-.65 2.71-2.08 2.71-1.1 0-1.63-.7-1.63-2.3V591h-3.22v8.72c0 2.77 1.57 4 3.73 4a3.44 3.44 0 003.35-2.23c0 .36 0 1.72.09 2zm11.1 0v-2.49h-5.31l5.19-7.32V591h-8.41v2.52h5l-5.21 7.22v2.76zM612 564.41h-3l-2.43 12.79-2.43-12.79h-4l-2.38 12.79-2.27-12.79h-3.28l3.52 16.91h3.92l2.53-13.76 2.48 13.76h4l3.34-16.91zM623.22 576v-1.16c0-3.54-1.72-6.23-5.09-6.23s-5.31 2.79-5.31 6.45 1.58 6.52 5.77 6.52a11.45 11.45 0 003.95-.73l-.1-2.45a7.45 7.45 0 01-3.27 1c-1.94 0-3.2-1-3.25-3.4zm-3-1.94h-4.34c0-2.3 1-3.34 2.23-3.34 1.43 0 2.11 1 2.11 3.13v.21zm13.5 3.52a3.26 3.26 0 00-2.47-3.35l-1.09-.41c-1.21-.46-1.77-.9-1.77-1.6s.7-1.31 1.79-1.31a7.38 7.38 0 012.77.65l.12-2.44a9.58 9.58 0 00-3.08-.51c-3.13 0-4.63 1.72-4.63 3.88 0 1.57.63 2.62 2.52 3.37l1.33.53c1.12.44 1.51.85 1.51 1.5s-.71 1.31-2.06 1.31a6.51 6.51 0 01-3.13-.89l-.1 2.61a9.78 9.78 0 003.61.66c3.28 0 4.68-1.63 4.68-4zm9.31 3.68v-2.3a2.5 2.5 0 01-1.14.24c-.85 0-1.36-.48-1.36-1.72v-6.33H643v-2.32h-2.5v-3.56l-3.19 1v2.6h-2.09v2.32h2.09v7.08c0 2.28 1.31 3.35 3.44 3.35a8.67 8.67 0 002.3-.32zm7.71-5.57v-2.55H645v2.55zM1214.67 615.42l-4.56-6.84 4.19-5.67h-3.37l-3.56 5.09v-10.76h-3.22v18.18h3.22v-6.13l3.64 6.13zm8.7-9.77v-2.93a1.63 1.63 0 00-.37 0 3.33 3.33 0 00-3.37 2.26c0-.37 0-1.77-.08-2h-3c0 .73.12 1.82.12 3.18v9.33h3.22V609c0-2.18 1-3.49 2.52-3.49a4.15 4.15 0 011 .12zm11.78 4.43v-1.16c0-3.54-1.72-6.23-5.09-6.23s-5.31 2.79-5.31 6.45 1.58 6.52 5.77 6.52a11.45 11.45 0 004-.73l-.1-2.44a7.53 7.53 0 01-3.27 1c-1.94 0-3.2-1-3.25-3.4zm-3-1.93h-4.34c0-2.31 1-3.35 2.23-3.35 1.43 0 2.11 1 2.11 3.13v.22zm16 7.27c0-.61-.13-1.5-.13-2.38v-10.13h-3.19v7.37c0 1.6-.66 2.72-2.09 2.72-1.09 0-1.62-.71-1.62-2.31v-7.78h-3.22v8.73c0 2.76 1.57 4 3.73 4a3.41 3.41 0 003.34-2.23c0 .36 0 1.72.1 2zm11.1 0v-2.5h-5.31l5.19-7.32v-2.69h-8.39v2.52h5l-5.21 7.23v2.76zM1231.25 584.67c0-5.77-3.1-8.63-6.84-8.63s-6.93 2.71-6.93 8.77c0 5.77 3.12 8.63 6.83 8.63 3.86 0 6.94-2.71 6.94-8.77zm-3.47 0c0 4.24-1.38 6.25-3.47 6.25-2.4 0-3.39-2.71-3.39-6.11 0-4.24 1.41-6.25 3.49-6.25 2.38 0 3.37 2.74 3.37 6.11zm14.18 4.77a3.26 3.26 0 00-2.47-3.34l-1.09-.42c-1.22-.46-1.77-.89-1.77-1.6s.7-1.31 1.79-1.31a7.09 7.09 0 012.76.66l.12-2.45a9.46 9.46 0 00-3.07-.51c-3.13 0-4.63 1.72-4.63 3.88 0 1.58.63 2.62 2.52 3.37l1.33.53c1.12.44 1.5.85 1.5 1.51s-.7 1.31-2.06 1.31a6.39 6.39 0 01-3.12-.9l-.1 2.62a10 10 0 003.61.65c3.27 0 4.68-1.62 4.68-4zm9.31 3.68v-2.3a2.5 2.5 0 01-1.14.25c-.85 0-1.36-.49-1.36-1.73V583h2.5v-2.33h-2.5v-3.56l-3.19 1v2.59h-2.09v2.3h2.09v7.08c0 2.27 1.3 3.34 3.43 3.34a8.69 8.69 0 002.31-.32zm7.71-5.57V585h-5.75v2.54zM928.5 392.64c0-3.62-1.55-6.33-4.39-6.33a3.52 3.52 0 00-3.32 2v-7.44h-3.22v15.92c0 .75 0 1.5-.09 2.26h3.07c0-.34.1-1.58.1-1.94h.05a3.54 3.54 0 003.29 2.13c2.94 0 4.51-2.54 4.51-6.59zm-3.29.09c0 2.6-.63 4.13-2.21 4.13s-2.21-1.53-2.21-4.13.73-4.12 2.21-4.12 2.21 1.53 2.21 4.12zm12.8-3.46v-2.93a1.67 1.67 0 00-.37 0 3.33 3.33 0 00-3.37 2.25c0-.36 0-1.76-.07-2h-3c0 .73.12 1.82.12 3.17V399h3.22v-6.39c0-2.19 1-3.5 2.52-3.5a3.69 3.69 0 011 .13zm12.53 9.73c0-.61-.13-1.51-.13-2.38v-10.09h-3.19v7.37c0 1.6-.66 2.71-2.09 2.71-1.09 0-1.62-.7-1.62-2.3v-7.78h-3.22v8.73c0 2.76 1.57 4 3.73 4a3.41 3.41 0 003.34-2.23c0 .36.05 1.72.1 2zm13.18 0v-8.72c0-2.74-1.57-4-3.73-4a3.43 3.43 0 00-3.34 2.21c0-.37-.05-1.72-.08-2h-3c0 .73.12 1.69.12 2.61v9.9h3.23v-7.17c0-1.77.75-2.91 2.08-2.91 1.07 0 1.62.73 1.62 2.3V399zm13.28 0v-8.72c0-2.74-1.57-4-3.73-4a3.45 3.45 0 00-3.35 2.21h-.05c0-.37 0-1.72-.07-2h-3.05c.05.73.12 1.69.12 2.61v9.9h3.22v-7.17c0-1.77.75-2.91 2.09-2.91 1.06 0 1.62.73 1.62 2.3V399zm13.11-5.33v-1.16c0-3.54-1.72-6.23-5.09-6.23s-5.3 2.79-5.3 6.45 1.57 6.52 5.76 6.52a11.46 11.46 0 004-.73l-.1-2.45a7.45 7.45 0 01-3.27 1c-1.94 0-3.2-1-3.25-3.4zm-3-1.93h-4.31c0-2.31 1-3.35 2.23-3.35 1.43 0 2.11 1 2.11 3.13v.22zM1003 399v-8.72c0-2.74-1.57-4-3.73-4a3.45 3.45 0 00-3.35 2.21c0-.37 0-1.72-.08-2h-3c0 .73.12 1.69.12 2.61v9.9h3.22v-7.17c0-1.77.75-2.91 2.09-2.91 1.06 0 1.62.73 1.62 2.3V399zM930.87 376.14v-8.87h-5.72v2.49h2.57V374a4.22 4.22 0 01-1.8.36c-2.91 0-4.63-2.37-4.63-6.2s2.06-5.92 5.19-5.92a7.84 7.84 0 013.83 1l.12-2.89a11 11 0 00-4.17-.72c-5.41 0-8.43 3.53-8.43 8.75s3.1 8.65 8.38 8.65a12.9 12.9 0 004.66-.92zm13.33-4.66v-1.16c0-3.54-1.72-6.23-5.09-6.23s-5.31 2.79-5.31 6.45 1.58 6.52 5.77 6.52a11.45 11.45 0 003.95-.73l-.1-2.45a7.37 7.37 0 01-3.27 1c-1.94 0-3.2-1-3.25-3.4zm-3-1.93h-4.34c0-2.31 1-3.35 2.23-3.35 1.43 0 2.11 1 2.11 3.13v.22zm13.5 3.51a3.27 3.27 0 00-2.47-3.35l-1.09-.41c-1.21-.46-1.77-.9-1.77-1.6s.7-1.31 1.79-1.31a7.19 7.19 0 012.77.66l.12-2.45a9.53 9.53 0 00-3.08-.51c-3.12 0-4.63 1.72-4.63 3.88 0 1.57.63 2.62 2.52 3.37l1.33.53c1.12.44 1.51.85 1.51 1.51s-.71 1.3-2.06 1.3a6.51 6.51 0 01-3.13-.89l-.09 2.61a9.74 9.74 0 003.61.66c3.27 0 4.67-1.62 4.67-4zm12.85 3.76c0-.61-.12-1.51-.12-2.38v-10.13h-3.2v7.37c0 1.6-.65 2.71-2.08 2.71-1.09 0-1.63-.7-1.63-2.3v-7.78h-3.22V373c0 2.76 1.57 4 3.73 4a3.44 3.44 0 003.35-2.23c0 .36.05 1.72.09 2zm13.19 0v-8.73c0-2.74-1.58-4-3.74-4a3.45 3.45 0 00-3.34 2.21c0-.37-.05-1.72-.07-2h-3c0 .73.12 1.7.12 2.61v9.9h3.22v-7.18c0-1.77.75-2.91 2.08-2.91 1.07 0 1.63.73 1.63 2.3v7.79zm13.67 0c0-.75-.1-1.5-.1-2.26v-15.92h-3.19v7.44a3.54 3.54 0 00-3.33-2c-2.86 0-4.38 2.71-4.38 6.33 0 4.05 1.55 6.59 4.5 6.59a3.57 3.57 0 003.3-2.13c0 .36.07 1.6.1 1.94zm-3.29-6.31c0 2.6-.73 4.13-2.21 4.13s-2.21-1.53-2.21-4.13.63-4.12 2.21-4.12 2.21 1.53 2.21 4.12zm11.73.66v-2.55h-5.75v2.55z"></path>
  <path d="M320.57 336.92a4.63 4.63 0 00-5.1-1.06l-1.31.41c-2.26.72-3 .62-3.63-.07-.88-.87-.79-2.12.26-3.17a7.06 7.06 0 012.81-1.68l-1.84-2a10.46 10.46 0 00-3 2.14c-2.18 2.18-2.67 5-.55 7.13 1.54 1.54 3 2 6 1 2.52-.88 3.32-.83 4.18 0s1 2.18-.31 3.46a7.7 7.7 0 01-3.22 1.75l2 2.19a12 12 0 003.34-2.34c2.55-2.56 2.66-5.5.39-7.77zm10.27-3.34l-1.66-1.58a2.43 2.43 0 01-.64 1c-.6.6-1.3.62-2.17-.25l-4.48-4.48 1.77-1.76-1.66-1.69-1.76 1.77-2.52-2.52-1.57 2.93 1.84 1.83-1.48 1.47 1.65 1.65 1.47-1.48 5 5c1.61 1.61 3.28 1.44 4.79-.07a9.14 9.14 0 001.41-1.85zm8.67-8.57a21.84 21.84 0 01-1.75-1.58l-4.19-4.2c-1.36-1.35-3.57-2.7-6.57.29a9 9 0 00-2.24 3.55l1.9 1.66a5.65 5.65 0 011.54-3.29c1.35-1.35 2.49-1 3.31-.15l.34.34-.82.83c-3 3.05-3.21 5.5-1.35 7.35a3.52 3.52 0 005.31.07 4.34 4.34 0 001.18-3.93c.21.21 1.08.91 1.3 1.1l2-2zm-5.76-1.48c1 1 1.77 2.73.43 4.07a1.64 1.64 0 01-2.57 0c-1-1-.79-2.5.75-4 .19-.19.59-.59.71-.67l.68.68zm15.34-8.1c-.54-.52-1.13-1-1.66-1.53l-11.26-11.26-2.26 2.26 3.5 3.5c.34.34 1.59 1.56 1.8 1.73a3.52 3.52 0 00-3.75.95c-2 2-1.19 5 1.37 7.57 2.86 2.87 5.76 3.57 7.85 1.48a3.55 3.55 0 00.82-3.84c.25.26 1.18 1.08 1.44 1.31l2.15-2.16zm-6.78-2.13c1.83 1.84 2.4 3.43 1.35 4.48s-2.64.48-4.47-1.36-2.47-3.36-1.36-4.47 2.64-.48 4.48 1.35zm13.69-4.85l-1.67-1.59a2.49 2.49 0 01-.63 1c-.6.6-1.3.61-2.18-.26l-4.52-4.5 1.76-1.76-1.64-1.64-1.76 1.76-2.52-2.52-1.58 2.95 1.83 1.83-1.47 1.48 1.64 1.64 1.48-1.48 5 5c1.61 1.61 3.28 1.44 4.79-.07a9.14 9.14 0 001.41-1.85zm.32-17.91l-2.14 2.14c.21.28 1.06 1.24 1.29 1.46a3.55 3.55 0 00-3.8.76c-2 2-1.48 5 1.16 7.68 2.92 2.91 5.71 3.54 7.83 1.42a3.51 3.51 0 00.73-3.94l1 1c1.6 1.6 2 3.28.19 5.06a7.29 7.29 0 01-3.38 1.8l1.87 2a13.87 13.87 0 003.53-2.4c2.71-2.71 2.88-5.69.1-8.47l-6.61-6.61c-.71-.71-1.27-1.37-1.77-1.94zm2 6.74c1.82 1.81 2.51 3.25 1.33 4.44s-2.64.48-4.5-1.38-2.36-3.22-1.27-4.32 2.61-.58 4.44 1.26zm6.84-11.74l-2.07-2.08a2.45 2.45 0 00-.28.24 3.34 3.34 0 00-.79 4c-.26-.25-1.28-1.21-1.49-1.38l-2.16 2.15c.55.48 1.37 1.2 2.33 2.16l6.6 6.6 2.28-2.28-4.58-4.51c-1.54-1.55-1.73-3.21-.68-4.25a3.49 3.49 0 01.82-.65zm11.47-5.2l-.82-.82c-2.51-2.5-5.63-3.19-8-.8s-1.78 5.72.81 8.31 5.72 3.49 8.68.53a11.65 11.65 0 002.29-3.31l-1.8-1.66a7.71 7.71 0 01-1.61 3c-1.37 1.37-2.95 1.57-4.7-.11l5.16-5.16zm-3.5.76l-3.07 3.07c-1.61-1.65-1.68-3.06-.79-3.95s2.2-.79 3.71.72l.15.16zm16.36-6.1l-6.17-6.17c-1.93-1.94-3.94-1.71-5.46-.19a3.44 3.44 0 00-.81 3.92c-.25-.26-1.25-1.18-1.45-1.35l-2.16 2.15c.55.48 1.29 1.12 1.94 1.77l7 7 2.28-2.28-5.08-5.07c-1.25-1.25-1.52-2.59-.58-3.53.75-.76 1.66-.64 2.78.48l5.5 5.5 2.26-2.26zm7.94-7.94l-1.77-1.76-3.75 3.75-1.51-8.84-1.9-1.91-5.93 5.94 1.78 1.78 3.57-3.57 1.42 8.8 2 2 6.14-6.14zm5.09-12.63l-.82-.82c-2.51-2.5-5.62-3.19-8-.81s-1.78 5.72.81 8.31 5.72 3.5 8.69.54a11.8 11.8 0 002.28-3.31l-1.8-1.66a7.42 7.42 0 01-1.61 3c-1.37 1.38-2.95 1.58-4.7-.1l5.16-5.16zm-3.5.76l-3.02 3.1c-1.62-1.65-1.69-3.06-.79-4s2.19-.79 3.7.72l.15.16zm5.18-19.17l-1.63 1.63 9.34 15.35 1.61-1.61-9.32-15.29zm3.94-3.94l-1.63 1.63 9.34 15.29 1.62-1.61-9.33-15.29zm16.06-8.83a5.6 5.6 0 00-2 1.32c-3.89 3.89-1 9 .8 10.85s4.15 2.16 6.24.07a8.36 8.36 0 001.53-2.28l-1.1-1.54a6.29 6.29 0 01-1.41 2.33c-1.16 1.17-2.5 1.17-3.84-.17s-3.72-5.3-1.25-7.77a3.85 3.85 0 012-1.14l-.94-1.67zm1.44-7.26a1.14 1.14 0 00-1.66 0 1.37 1.37 0 000 1.9 1.15 1.15 0 001.67 0 1.36 1.36 0 000-1.9zm2 3.43l-1.44 1.43 6.89 10.59 1.44-1.44-6.89-10.58zm6.39-6.4l-1.8 1.8-1.73-2.69-1.1 2 1.39 2.17-1.39 1.39.93 1.4 1.38-1.39 4.43 6.83a5.88 5.88 0 00.63.8c1 1 2 .74 3.07-.36a6 6 0 001-1.4l-.91-1.42a3.13 3.13 0 01-.76 1.13.85.85 0 01-1.4 0 4.68 4.68 0 01-.58-.76l-4.07-6.25 1.8-1.8-.92-1.41zm7.88-7.88l-1.49 1.49 3.83 10.47-7.59-6.71-1.46 1.46 9.75 8 .72 2c.5 1.35.31 1.89-.1 2.3a2.42 2.42 0 01-.92.58l.95 1.64a5.44 5.44 0 001.07-.86c1.09-1.09 1.28-2.34.55-4.59l-5.27-15.78zm4.09-12.35l-1.44 1.44 10.13 15.58 1.44-1.44L446 192.79zm5.43-2.59a1.14 1.14 0 00-1.66 0 1.36 1.36 0 000 1.9 1.14 1.14 0 001.66 0 1.37 1.37 0 000-1.91zm2 3.43l-1.43 1.44 6.89 10.59 1.44-1.44-6.89-10.59zm15.2-9.61a7.12 7.12 0 00-.92-1.17c-1.29-1.29-2.56-1.18-3.64-.1A4.28 4.28 0 00463 187a2.23 2.23 0 00-3.34.19 4.11 4.11 0 00-1.05 4l-1.11-1.6-1.45 1.41c.39.5 1.06 1.44 1.61 2.3l5.35 8.22 1.44-1.44-3.52-5.39c-1.63-2.49-1.73-4.62-.65-5.7.63-.63 1.1-.65 1.71 0a7.8 7.8 0 011 1.3l4.44 6.84 1.44-1.44-3.52-5.4c-1.62-2.48-1.74-4.59-.65-5.69.64-.63 1.1-.65 1.72 0a8.42 8.42 0 011 1.3l4.44 6.84 1.44-1.44-4.69-7.3zm0-11a1.14 1.14 0 00-1.66 0 1.36 1.36 0 000 1.9 1.14 1.14 0 001.66 0 1.37 1.37 0 000-1.91zm2 3.43l-1.44 1.44 6.81 10.63 1.44-1.44-6.89-10.59zm6.39-6.39l-1.8 1.8-1.73-2.69-1.1 1.95 1.39 2.18-1.38 1.39.92 1.4 1.39-1.39 4.42 6.82a5.32 5.32 0 00.64.81c1 1 2 .74 3.06-.36a6.09 6.09 0 001-1.41l-.91-1.42a3.15 3.15 0 01-.75 1.14.87.87 0 01-1.41 0 5.33 5.33 0 01-.58-.76l-4.06-6.26 1.79-1.8-.92-1.4zm6.48-6.1a6.64 6.64 0 00-2.09 1.47c-2 2-2.09 4.66-.48 6.27 2.16 2.16 4.77-1.16 6.43.5a1.58 1.58 0 01.55 1.23 3.28 3.28 0 01-1 2.17 4.82 4.82 0 01-2.49 1.35l.86 1.57a6.5 6.5 0 002.77-1.74c2.2-2.2 1.89-4.94.42-6.41-2.13-2.13-4.89 1-6.36-.47a2.16 2.16 0 01.31-3.12 5.21 5.21 0 012-1.28l-.89-1.54zM1418 975.14a4.65 4.65 0 00-5.11-1.06l-1.3.41c-2.27.72-3 .62-3.64-.07-.87-.87-.79-2.12.26-3.17a7.06 7.06 0 012.81-1.68l-1.83-2a10.37 10.37 0 00-3 2.14c-2.17 2.18-2.67 5-.55 7.13 1.55 1.54 3 2 6 1 2.52-.88 3.33-.83 4.18 0s1 2.18-.31 3.46a7.7 7.7 0 01-3.22 1.75l2 2.19a12 12 0 003.34-2.34c2.55-2.56 2.66-5.5.4-7.77zm10.26-3.34l-1.66-1.59a2.51 2.51 0 01-.63 1c-.6.6-1.31.62-2.18-.25l-4.48-4.48 1.77-1.76-1.64-1.65-1.77 1.77-2.52-2.52-1.57 2.94 1.83 1.84-1.47 1.47 1.64 1.65 1.47-1.48 5 5c1.61 1.61 3.29 1.44 4.8-.07a9 9 0 001.4-1.85zm8.67-8.57a20.27 20.27 0 01-1.74-1.58l-4.2-4.2c-1.36-1.35-3.57-2.7-6.56.29a8.93 8.93 0 00-2.25 3.55L1424 963a5.65 5.65 0 011.54-3.29c1.36-1.35 2.49-1 3.31-.15l.35.34-.83.83c-3.05 3.05-3.2 5.5-1.35 7.35a3.52 3.52 0 005.31.06 4.32 4.32 0 001.19-3.92c.21.2 1.08.9 1.3 1.09l2-2zm-5.75-1.48c1 1 1.76 2.73.43 4.07a1.64 1.64 0 01-2.57 0c-1-1-.79-2.5.75-4 .19-.19.58-.59.7-.67l.69.68zm15.34-8.1c-.55-.51-1.13-1-1.67-1.53l-11.26-11.26-2.26 2.26 3.5 3.5c.34.34 1.59 1.56 1.8 1.73a3.53 3.53 0 00-3.75 1c-2 2-1.18 5 1.37 7.57 2.86 2.87 5.76 3.57 7.85 1.48a3.57 3.57 0 00.83-3.84c.26.26 1.18 1.08 1.44 1.31l2.16-2.16zm-6.79-2.13c1.84 1.84 2.4 3.43 1.35 4.48s-2.64.48-4.47-1.36-2.47-3.36-1.36-4.47 2.65-.48 4.48 1.35zm13.66-4.85l-1.66-1.59a2.65 2.65 0 01-.64 1c-.6.6-1.3.61-2.17-.26l-4.48-4.48 1.77-1.76-1.65-1.64-1.76 1.76-2.52-2.52-1.58 3 1.84 1.83-1.48 1.47 1.65 1.65 1.47-1.48 5 5c1.61 1.61 3.29 1.44 4.79-.07a8.87 8.87 0 001.41-1.85zm.33-17.91l-2.14 2.14c.2.28 1.06 1.24 1.28 1.46a3.57 3.57 0 00-3.8.76c-2 2-1.47 5 1.17 7.68 2.91 2.91 5.7 3.54 7.83 1.42a3.53 3.53 0 00.72-3.94l1 1c1.6 1.6 2 3.28.19 5.06a7.26 7.26 0 01-3.37 1.8l1.86 2a13.7 13.7 0 003.53-2.4c2.71-2.71 2.88-5.69.11-8.47l-6.62-6.61c-.7-.71-1.27-1.37-1.76-1.94zm2 6.74c1.81 1.81 2.5 3.25 1.32 4.44s-2.64.48-4.49-1.38-2.37-3.22-1.27-4.32 2.6-.58 4.44 1.26zm6.83-11.74l-2.07-2.08a1.64 1.64 0 00-.27.24 3.33 3.33 0 00-.79 4c-.25-.25-1.28-1.21-1.49-1.38l-2.16 2.15c.55.48 1.37 1.2 2.33 2.16l6.6 6.6 2.28-2.28-4.52-4.52c-1.55-1.55-1.74-3.21-.69-4.25a3.71 3.71 0 01.82-.65zm11.47-5.2l-.82-.82c-2.51-2.5-5.62-3.19-8-.8s-1.78 5.72.81 8.31 5.72 3.49 8.69.53a11.66 11.66 0 002.28-3.31l-1.8-1.66a7.46 7.46 0 01-1.61 3c-1.37 1.37-3 1.57-4.7-.11l5.16-5.16zm-3.5.76l-3.06 3.07c-1.62-1.65-1.69-3.06-.79-3.95s2.19-.79 3.7.72l.15.16zm16.35-6.07l-6.17-6.17c-1.93-1.94-3.94-1.71-5.46-.19a3.45 3.45 0 00-.81 3.92c-.26-.26-1.25-1.18-1.46-1.35l-2.16 2.16c.55.47 1.29 1.11 1.94 1.76l7 7 2.28-2.28-5.07-5.07c-1.26-1.25-1.53-2.59-.59-3.53.76-.75 1.67-.63 2.78.48l5.5 5.5 2.26-2.26zm7.94-7.94l-1.76-1.76-3.76 3.75-1.51-8.84-1.9-1.91-5.93 5.94 1.78 1.78 3.57-3.57 1.42 8.8 2 2 6.14-6.14zm5.09-12.63l-.82-.82c-2.5-2.5-5.62-3.19-8-.81s-1.79 5.73.8 8.31 5.72 3.5 8.69.54a11.8 11.8 0 002.28-3.31l-1.8-1.66a7.46 7.46 0 01-1.61 3c-1.37 1.37-3 1.57-4.7-.11l5.16-5.16zm-3.49.76l-3.07 3.06c-1.61-1.64-1.68-3-.79-3.94s2.19-.79 3.7.72l.16.16zm5.17-19.17l-1.58 1.63 9.33 15.27 1.62-1.61-9.33-15.29zm4-3.94l-1.63 1.63 9.34 15.27 1.61-1.61-9.32-15.29zm16-8.83a5.47 5.47 0 00-2 1.32c-3.89 3.9-1 9 .81 10.85s4.14 2.16 6.23.07a8.14 8.14 0 001.53-2.28l-1.1-1.54a6.4 6.4 0 01-1.4 2.33c-1.17 1.17-2.51 1.17-3.84-.17s-3.72-5.3-1.26-7.77a3.83 3.83 0 012-1.14l-1-1.67zm1.44-7.26a1.14 1.14 0 00-1.66 0 1.36 1.36 0 000 1.9 1.14 1.14 0 001.66 0 1.36 1.36 0 000-1.9zm2 3.42l-1.44 1.44 6.89 10.59 1.44-1.44-6.91-10.59zm6.39-6.39l-1.8 1.8-1.73-2.69-1.1 2 1.39 2.17-1.38 1.39.92 1.4 1.39-1.39 4.42 6.83a5.19 5.19 0 00.64.8c1 1 2 .74 3.06-.36a6 6 0 001-1.4l-.91-1.42a3.11 3.11 0 01-.75 1.13.86.86 0 01-1.41 0 4.68 4.68 0 01-.58-.76l-4.07-6.25 1.8-1.8-.92-1.41zm7.89-7.88l-1.49 1.49 3.82 10.47-7.59-6.71-1.46 1.46 9.76 8 .72 2c.49 1.35.3 1.88-.11 2.3a2.35 2.35 0 01-.92.58l1 1.64a5.41 5.41 0 001.06-.86c1.1-1.09 1.28-2.34.55-4.59l-5.26-15.78zm4.14-12.38l-1.44 1.44 10.08 15.55 1.44-1.44-10.13-15.56zm5.44-2.59a1.14 1.14 0 00-1.66 0 1.35 1.35 0 000 1.9 1.14 1.14 0 001.66 0 1.38 1.38 0 000-1.91zm2 3.43l-1.44 1.44 6.89 10.59 1.44-1.44-6.89-10.59zm15.2-9.62a6.91 6.91 0 00-.92-1.16c-1.29-1.29-2.55-1.18-3.63-.1a4.27 4.27 0 00-1.07 4.21 2.24 2.24 0 00-3.34.19 4.08 4.08 0 00-1 4l-1.11-1.6-1.39 1.39c.39.5 1.06 1.44 1.61 2.3l5.35 8.22 1.44-1.44-3.52-5.39c-1.62-2.49-1.73-4.62-.65-5.69.64-.64 1.1-.66 1.72 0a8.42 8.42 0 011 1.3l4.44 6.84 1.44-1.44-3.51-5.4c-1.63-2.48-1.75-4.59-.66-5.69.64-.63 1.1-.65 1.72 0a7.83 7.83 0 011 1.3l4.44 6.84 1.44-1.44-4.68-7.22zm0-11a1.14 1.14 0 00-1.66 0 1.35 1.35 0 000 1.9 1.14 1.14 0 001.66 0 1.38 1.38 0 000-1.91zm2 3.43l-1.44 1.44 6.89 10.59 1.44-1.44-6.89-10.59zm6.39-6.39l-1.8 1.8-1.73-2.69-1.09 2 1.38 2.18-1.38 1.39.92 1.4L1572 813l4.42 6.82a6 6 0 00.64.81c1 1 2 .74 3.06-.36a6.25 6.25 0 001-1.4l-.91-1.42a3.19 3.19 0 01-.75 1.13.87.87 0 01-1.41 0 6.18 6.18 0 01-.58-.76l-4.06-6.26 1.8-1.8-.93-1.4zm6.48-6.1a6.64 6.64 0 00-2.09 1.47c-2 2-2.09 4.66-.48 6.27 2.16 2.16 4.77-1.16 6.43.5a1.59 1.59 0 01.55 1.24 3.23 3.23 0 01-1 2.16 4.76 4.76 0 01-2.48 1.35l.85 1.57a6.59 6.59 0 002.78-1.74c2.19-2.2 1.88-4.94.41-6.41-2.13-2.13-4.89 1-6.36-.47a2.17 2.17 0 01.31-3.12 5.41 5.41 0 012-1.28l-.89-1.54z"></path>
  <path class="cls-22" d="M1734.28 518.22h66.38v66.37h-66.38v-66.37z"></path>
  <path class="cls-6" d="M1776.93 576.87a36.64 36.64 0 01-5.75.48 29.34 29.34 0 01-11-1.93 20.93 20.93 0 01-8-5.43 23.81 23.81 0 01-4.83-8.47 34.57 34.57 0 01-1.66-11 32.48 32.48 0 011.7-10.72 23.41 23.41 0 014.87-8.33 21.69 21.69 0 017.92-5.36 28.52 28.52 0 0110.77-1.92 29.11 29.11 0 017.27.78 39.12 39.12 0 014.54 1.36l-.39 8.88a21.45 21.45 0 00-4.54-2 18.87 18.87 0 00-5.94-.9 16.11 16.11 0 00-6.25 1.17 13.13 13.13 0 00-4.85 3.4 15.67 15.67 0 00-3.18 5.57 23.78 23.78 0 00-1.12 7.6 27.56 27.56 0 001 7.71 17.71 17.71 0 003 6.07 13.37 13.37 0 005 3.93 16.37 16.37 0 007 1.39 18 18 0 006-1 19.18 19.18 0 004.22-2l.31 9.25a48.69 48.69 0 01-6 1.37"></path>
  <path class="cls-22" d="M113.81 518.22h66.37v66.37h-66.37v-66.37z"></path>
  <path class="cls-6" d="M156.45 576.87a36.55 36.55 0 01-5.75.48 29.37 29.37 0 01-11-1.93 21 21 0 01-8-5.43 23.83 23.83 0 01-4.84-8.47 34.57 34.57 0 01-1.66-11 32.48 32.48 0 011.7-10.72 23.71 23.71 0 014.87-8.33 21.77 21.77 0 017.92-5.36 28.57 28.57 0 0110.78-1.92 29.22 29.22 0 017.27.78 40.41 40.41 0 014.54 1.36l-.39 8.88a21.68 21.68 0 00-4.54-2 18.87 18.87 0 00-5.94-.9 16.16 16.16 0 00-6.26 1.17 13.13 13.13 0 00-4.85 3.4 15.66 15.66 0 00-3.17 5.57 23.77 23.77 0 00-1.13 7.6 27.55 27.55 0 001 7.71 17.53 17.53 0 003 6.07 13.34 13.34 0 005 3.93 16.37 16.37 0 007 1.39 18 18 0 006-1 18.75 18.75 0 004.22-2l.31 9.25a48.28 48.28 0 01-6 1.37"></path>
  <path class="cls-21" d="M1508.82 518.22h66.38v66.37h-66.38v-66.37z"></path>
  <path class="cls-6" d="M1560.46 563.21q0 6.82-4.41 10.84c-3 2.67-7.18 4-12.71 4h-16.74V525h17q8.15 0 12 3.52a12.09 12.09 0 013.87 9.41 14.08 14.08 0 01-.74 4.72 11.44 11.44 0 01-2 3.59 10.9 10.9 0 01-3.06 2.5 15.71 15.71 0 01-3.79 1.51v.15a12.59 12.59 0 017.69 4.06c2 2.19 2.93 5.12 2.93 8.8M1549 539.6a6.52 6.52 0 00-1.89-4.89q-1.89-1.85-5.67-1.85h-4.31v13.85h3.34a10.2 10.2 0 006.27-1.7c1.5-1.14 2.26-2.94 2.26-5.41m1 22.83a8.3 8.3 0 00-1.86-5.63q-1.86-2.17-5.65-2.17h-5.35v15.52h4.68c2.78 0 4.83-.73 6.17-2.18a7.85 7.85 0 002-5.54"></path>
  <path class="cls-21" d="M397.69 518.22h66.38v66.37h-66.38v-66.37z"></path>
  <path class="cls-6" d="M449.34 563.21q0 6.82-4.42 10.84c-2.95 2.67-7.18 4-12.71 4h-16.74V525h17q8.15 0 12 3.52a12.05 12.05 0 013.87 9.41 13.84 13.84 0 01-.74 4.72 11.24 11.24 0 01-2 3.59 11 11 0 01-3.05 2.5 15.78 15.78 0 01-3.8 1.51v.15a12.08 12.08 0 0110.63 12.86m-11.53-23.66a6.49 6.49 0 00-1.9-4.89q-1.89-1.85-5.67-1.85H426v13.85h3.35a10.19 10.19 0 006.26-1.7q2.26-1.71 2.27-5.41m1 22.83a8.34 8.34 0 00-1.88-5.63c-1.25-1.45-3.13-2.17-5.66-2.17H426v15.52h4.68q4.17 0 6.18-2.18a7.89 7.89 0 002-5.54"></path>
  <path class="cls-19" d="M799.49 518.22h66.38v66.37h-66.38v-66.37z"></path>
  <path class="cls-6" d="M845 578l-3.5-12.56h-18L819.75 578h-10.28l17.74-53.12h11.56L855.89 578zm-12.1-44.21h-.15l-7.08 23.74h13.63l-6.39-23.74z"></path>
</svg>
