<svg xmlns="http://www.w3.org/2000/svg" xmlns:xlink="http://www.w3.org/1999/xlink" version="1.1" x="0px" y="0px" viewBox="0 0 91 91" enable-background="new 0 0 91 91" xml:space="preserve" fill="currentColor"><g><path d="M19.024,62.061c2.964,1.452,4.308,4.553,4.897,7.003c0.187,0.779,0.882,1.301,1.649,1.301c0.13,0,0.265-0.014,0.397-0.048   c0.912-0.22,1.473-1.134,1.253-2.046c-0.912-3.786-2.7-6.635-5.216-8.4c2.169-2.197,3.474-5.18,3.474-8.38   c0-6.581-5.353-11.933-11.932-11.933c-6.579,0-11.932,5.352-11.932,11.933c0,3.296,1.376,6.354,3.661,8.562   c-2.194,1.855-3.93,4.667-4.9,8.053c-0.259,0.9,0.262,1.84,1.165,2.1c0.155,0.043,0.312,0.065,0.465,0.065   c0.74,0,1.419-0.486,1.63-1.231c1.174-4.098,3.228-6.049,4.533-6.928c0.208,0.107,0.406,0.233,0.625,0.328   c0.219,0.1,0.45,0.144,0.676,0.144c0.654,0,1.277-0.384,1.557-1.021c0.373-0.858-0.021-1.859-0.88-2.231   c-3.122-1.359-5.139-4.436-5.139-7.839c0-4.71,3.832-8.54,8.538-8.54c4.707,0,8.537,3.83,8.537,8.54   c0,3.374-1.988,6.44-5.067,7.808c-0.857,0.38-1.241,1.383-0.862,2.239c0.381,0.853,1.377,1.245,2.239,0.86   C18.616,62.302,18.815,62.173,19.024,62.061z"/><path d="M13.598,56.276c1.118,0,2.355-0.313,3.577-1.188c0.76-0.547,0.937-1.607,0.389-2.371c-0.545-0.758-1.605-0.932-2.367-0.389   c-1.587,1.139-2.979,0.232-3.249,0.035c-0.737-0.566-1.793-0.438-2.37,0.293C9,53.396,9.127,54.462,9.865,55.042   C10.585,55.61,11.967,56.276,13.598,56.276z"/><path d="M12.611,49.278c0-1.037-0.843-1.879-1.879-1.879c-1.033,0-1.874,0.842-1.874,1.879c0,1.033,0.841,1.875,1.874,1.875   C11.768,51.153,12.611,50.312,12.611,49.278z"/><path d="M18.244,49.278c0-1.037-0.843-1.879-1.877-1.879c-1.035,0-1.879,0.842-1.879,1.879c0,1.033,0.844,1.875,1.879,1.875   C17.4,51.153,18.244,50.312,18.244,49.278z"/><path d="M9.471,71.032l2.991,2.934c0.332,0.323,0.761,0.484,1.189,0.484c0.427,0,0.858-0.161,1.187-0.482l3.002-2.934   c0.484-0.476,0.64-1.189,0.397-1.821l-2.897-7.571c-0.249-0.649-0.869-1.082-1.565-1.09c-0.758-0.004-1.326,0.412-1.591,1.055   l-3.096,7.57C8.827,69.815,8.979,70.549,9.471,71.032z M13.703,66.857l0.968,2.528l-1.018,0.994l-0.992-0.975L13.703,66.857z"/><path d="M32.084,82.146c0.155,0.044,0.313,0.065,0.471,0.065c0.737,0,1.417-0.484,1.628-1.229c1.334-4.652,3.693-6.836,5.149-7.792   c0.259,0.136,0.504,0.289,0.773,0.407c0.221,0.096,0.449,0.14,0.675,0.14c0.657,0,1.278-0.38,1.558-1.02   c0.375-0.861-0.021-1.859-0.88-2.233c-3.505-1.522-5.769-4.976-5.769-8.797c0-5.287,4.298-9.588,9.585-9.588   c5.285,0,9.586,4.301,9.586,9.588c0,3.789-2.235,7.227-5.692,8.762c-0.856,0.378-1.242,1.381-0.862,2.239   c0.382,0.854,1.372,1.243,2.24,0.86c0.265-0.115,0.505-0.271,0.76-0.404c3.382,1.611,4.906,5.114,5.572,7.875   c0.188,0.775,0.884,1.299,1.649,1.299c0.132,0,0.265-0.016,0.398-0.049c0.912-0.219,1.472-1.134,1.253-2.045   c-1.017-4.217-3.027-7.357-5.859-9.273c2.454-2.398,3.935-5.708,3.935-9.264c0-7.158-5.821-12.98-12.98-12.98   c-7.157,0-12.978,5.822-12.978,12.98c0,3.652,1.552,7.038,4.122,9.451c-2.463,2.02-4.416,5.135-5.496,8.91   C30.664,80.946,31.184,81.888,32.084,82.146z"/><path d="M45.325,66.79c1.202,0,2.531-0.338,3.843-1.278c0.762-0.547,0.937-1.607,0.39-2.367c-0.545-0.761-1.604-0.937-2.368-0.392   c-1.891,1.359-3.583,0.182-3.782,0.035c-0.735-0.568-1.796-0.435-2.37,0.295c-0.578,0.736-0.454,1.803,0.284,2.383   C42.094,66.074,43.575,66.79,45.325,66.79z"/><path d="M44.068,59.247c0-1.049-0.851-1.9-1.899-1.9c-1.044,0-1.893,0.852-1.893,1.9c0,1.041,0.849,1.891,1.893,1.891   C43.217,61.138,44.068,60.288,44.068,59.247z"/><path d="M50.274,59.247c0-1.049-0.85-1.9-1.894-1.9c-1.046,0-1.897,0.852-1.897,1.9c0,1.041,0.852,1.891,1.897,1.891   C49.425,61.138,50.274,60.288,50.274,59.247z"/><path d="M44.196,86.333c0.332,0.324,0.76,0.484,1.189,0.484c0.427,0,0.856-0.16,1.185-0.482l3.31-3.23   c0.487-0.473,0.643-1.189,0.4-1.82l-3.191-8.345c-0.249-0.649-0.871-1.082-1.567-1.09c-0.739-0.021-1.326,0.411-1.591,1.054   l-3.414,8.342c-0.261,0.641-0.11,1.375,0.381,1.857L44.196,86.333z M45.45,78.155l1.263,3.3l-1.325,1.293l-1.297-1.272   L45.45,78.155z"/><path d="M77.052,39.558c-6.578,0-11.932,5.352-11.932,11.933c0,3.28,1.392,6.344,3.666,8.554c-2.198,1.857-3.938,4.673-4.907,8.061   c-0.259,0.899,0.264,1.84,1.164,2.1c0.155,0.043,0.313,0.065,0.466,0.065c0.74,0,1.42-0.486,1.633-1.231   c1.175-4.098,3.228-6.049,4.53-6.928c0.373,0.191,0.741,0.385,1.138,0.535c0.198,0.078,0.403,0.113,0.604,0.113   c0.684,0,1.328-0.417,1.584-1.096c0.333-0.875-0.107-1.857-0.981-2.188c-3.293-1.252-5.504-4.461-5.504-7.985   c0-4.71,3.832-8.54,8.539-8.54c4.706,0,8.537,3.83,8.537,8.54c0,3.374-1.992,6.44-5.069,7.808   c-0.858,0.378-1.244,1.381-0.864,2.239c0.379,0.854,1.38,1.245,2.239,0.86c0.22-0.096,0.418-0.227,0.634-0.337   c2.96,1.45,4.307,4.553,4.897,7.005c0.186,0.777,0.881,1.299,1.647,1.299c0.134,0,0.265-0.014,0.398-0.048   c0.91-0.22,1.472-1.134,1.253-2.046c-0.912-3.786-2.701-6.635-5.218-8.4c2.172-2.197,3.477-5.18,3.477-8.38   C88.983,44.91,83.63,39.558,77.052,39.558z"/><path d="M77.102,56.276c1.117,0,2.354-0.313,3.574-1.188c0.761-0.547,0.938-1.607,0.391-2.371   c-0.545-0.758-1.605-0.932-2.367-0.389c-1.59,1.141-2.979,0.232-3.249,0.033c-0.736-0.564-1.791-0.436-2.367,0.295   c-0.58,0.738-0.455,1.805,0.284,2.385C74.087,55.61,75.47,56.276,77.102,56.276z"/><path d="M76.112,49.278c0-1.037-0.843-1.879-1.879-1.879c-1.035,0-1.876,0.842-1.876,1.879c0,1.033,0.841,1.875,1.876,1.875   C75.27,51.153,76.112,50.312,76.112,49.278z"/><path d="M81.743,49.278c0-1.037-0.84-1.879-1.873-1.879c-1.037,0-1.881,0.842-1.881,1.879c0,1.033,0.844,1.875,1.881,1.875   C80.903,51.153,81.743,50.312,81.743,49.278z"/><path d="M72.971,71.032l2.995,2.934c0.33,0.323,0.758,0.484,1.187,0.484c0.43,0,0.857-0.161,1.188-0.482l3.002-2.934   c0.482-0.476,0.64-1.189,0.397-1.821l-2.896-7.571c-0.248-0.647-0.868-1.082-1.563-1.09c-0.729-0.004-1.328,0.412-1.591,1.055   l-3.101,7.57C72.329,69.815,72.478,70.549,72.971,71.032z M77.204,66.857l0.967,2.528l-1.017,0.994l-0.992-0.975L77.204,66.857z"/><path d="M42.457,40.533c1.094,0.149,2.219,0.226,3.339,0.226c2.154,0,4.983-0.263,6.23-1.509l3.362-3.359   c0.911-0.916,1.412-2.132,1.412-3.429c0-1.292-0.499-2.508-1.466-3.481c-0.048-0.042-0.216-0.185-0.265-0.222l-5.431-3.977   c-1.846-1.665-4.911-1.595-6.674,0.176c0,0-3.855,3.884-4.01,4.102c-1.852-0.843-4.969-2.792-6.757-6.185   c0.332-0.278,0.671-0.57,0.895-0.793l3.493-3.497c0.918-0.911,1.423-2.131,1.423-3.432c0-1.227-0.456-2.391-1.282-3.285   l-4.064-5.199c-0.064-0.093-0.217-0.28-0.298-0.358c-1.831-1.821-5.004-1.833-6.86,0.004l-3.205,3.208   c-1.143,1.139-1.943,4.085-1.945,7.163c-0.004,4.134,1.305,10.372,7.561,16.621C32.93,38.327,38.591,40.007,42.457,40.533z    M24.7,11.922l3.198-3.206c0.284-0.28,0.642-0.429,1.036-0.429c0.397,0,0.754,0.149,0.978,0.366c0,0,4.263,5.454,4.304,5.498   c0.261,0.271,0.4,0.617,0.4,1c0,0.398-0.147,0.751-0.426,1.031c0,0-3.546,3.545-3.565,3.563l-0.911-1.991   c-0.39-0.851-1.394-1.23-2.248-0.836c-0.851,0.39-1.226,1.396-0.837,2.25l1.931,4.222c3.339,5.846,8.041,8.603,10.827,9.427   c0,0.002,0.002,0.002,0.004,0.004l3.93,1.044c0.147,0.039,0.294,0.058,0.437,0.058c0.75,0,1.438-0.501,1.641-1.261   c0.24-0.905-0.298-1.833-1.206-2.075l-1.625-0.431l2.799-2.801c0.537-0.536,1.477-0.544,2.027-0.027   c0.051,0.048,5.588,4.097,5.588,4.097c0.279,0.282,0.427,0.64,0.427,1.038c0,0.398-0.146,0.755-0.421,1.03l-3.314,3.314   c-0.263,0.182-1.558,0.557-3.877,0.557c-0.953,0-1.952-0.066-2.884-0.192c-3.347-0.456-8.25-1.913-12.599-6.264   C21.197,21.797,24.014,12.782,24.7,11.922z"/><path d="M44.484,18.557c0.932,0,1.697-0.762,1.697-1.696c0-0.935-0.765-1.696-1.697-1.696c-0.934,0-1.696,0.762-1.696,1.696   C42.788,17.795,43.55,18.557,44.484,18.557z"/><path d="M64.849,15.165c-0.951,0-1.697,0.762-1.697,1.696c0,0.934,0.746,1.696,1.697,1.696c0.934,0,1.695-0.762,1.695-1.696   C66.544,15.926,65.782,15.165,64.849,15.165z"/><path d="M58.06,18.557c0.936,0,1.699-0.762,1.699-1.696c0-0.935-0.764-1.696-1.699-1.696c-0.931,0-1.695,0.762-1.695,1.696   C56.364,17.795,57.129,18.557,58.06,18.557z"/><path d="M51.272,18.557c0.935,0,1.698-0.762,1.698-1.696c0-0.935-0.764-1.696-1.698-1.696s-1.698,0.762-1.698,1.696   C49.574,17.795,50.338,18.557,51.272,18.557z"/></g></svg>
