<svg width="25" height="25" fill="currentColor" aria-hidden="true" transform="scale(-1 1)" viewBox="0 0 32 32"><path d="M21.4 14H2.6c-.3 0-.6.3-.6.6v2.8c0 .3.3.6.6.6h18.8c.3 0 .6-.3.6-.6v-2.8c0-.3-.3-.6-.6-.6zm8 0h-2.8c-.3 0-.6.3-.6.6v2.8c0 .3.3.6.6.6h2.8c.3 0 .6-.3.6-.6v-2.8c0-.3-.3-.6-.6-.6zm-8 8H2.6c-.3 0-.6.3-.6.6v2.8c0 .3.3.6.6.6h18.8c.3 0 .6-.3.6-.6v-2.8c0-.3-.3-.6-.6-.6zm8 0h-2.8c-.3 0-.6.3-.6.6v2.8c0 .3.3.6.6.6h2.8c.3 0 .6-.3.6-.6v-2.8c0-.3-.3-.6-.6-.6zm-8-16H2.6c-.3 0-.6.3-.6.6v2.8c0 .3.3.6.6.6h18.8c.3 0 .6-.3.6-.6V6.6c0-.3-.3-.6-.6-.6zm8 0h-2.8c-.3 0-.6.3-.6.6v2.8c0 .3.3.6.6.6h2.8c.3 0 .6-.3.6-.6V6.6c0-.3-.3-.6-.6-.6z"/></svg>