<svg width="150px" height="25px" viewBox="0 0 220 38" aria-hidden="true">
  <title>Tarifcheck logo</title>
  <path fill="#0056A4" d="M0 16.04v-5.063h20.424v5.063h-7.313v20.808H7.313V16.04H0zm27.64-5.064h5.248l11.088 25.872h-5.951l-2.365-5.766H24.72l-2.366 5.766h-5.803L27.64 10.976zm6.105 15.374-3.555-9.02-3.579 9.02h7.134zm11.521-15.374h11.827c3.276 0 5.79.875 7.54 2.624 1.478 1.479 2.216 3.45 2.216 5.916v.072c0 2.094-.51 3.801-1.533 5.119-1.022 1.318-2.359 2.285-4.01 2.9l6.328 9.24h-6.66l-5.59-8.349h-4.426v8.349h-5.691l-.001-25.871zm11.457 12.567c1.405 0 2.482-.334 3.234-.998.751-.666 1.127-1.553 1.127-2.662v-.072c0-1.23-.394-2.157-1.183-2.771-.789-.615-1.885-.924-3.29-.924h-5.655v7.43l5.767-.003zM69.43 10.976h5.592v25.872H69.43V10.976zm40.369 26.315c-1.897 0-3.658-.346-5.285-1.035-1.625-.689-3.031-1.633-4.213-2.826-1.184-1.195-2.107-2.604-2.772-4.234-.665-1.625-.998-3.358-.998-5.209v-.071c0-1.853.333-3.578.998-5.193a13.342 13.342 0 0 1 2.772-4.25c1.182-1.22 2.598-2.18 4.25-2.883 1.65-.702 3.475-1.053 5.47-1.053 1.208 0 2.31.099 3.308.295.998.198 1.903.468 2.717.813s1.563.764 2.255 1.256a15.009 15.009 0 0 1 1.889 1.626l-3.59 4.177c-1.01-.911-2.039-1.626-3.084-2.144-1.05-.518-2.226-.776-3.532-.776-1.084 0-2.088.209-3.012.628a7.147 7.147 0 0 0-2.384 1.738 8.1 8.1 0 0 0-1.553 2.568 8.757 8.757 0 0 0-.554 3.123v.074c0 1.105.185 2.154.554 3.145.37.982.881 1.846 1.534 2.586a7.2 7.2 0 0 0 2.365 1.754c.924.435 1.94.646 3.049.646 1.478 0 2.729-.271 3.751-.813 1.021-.541 2.039-1.278 3.05-2.217l3.622 3.656a18.586 18.586 0 0 1-2.07 1.922 12.22 12.22 0 0 1-2.348 1.463c-.85.404-1.779.715-2.789.924s-2.142.31-3.4.31zm12.542-26.315h5.692v10.311h10.496V10.976h5.692v25.872h-5.692V26.35h-10.496v10.498h-5.692zm24.464 0h19.355v5.063h-13.739v5.248h12.448v5.063h-12.448v5.437h13.739v5.063h-19.355V10.976zm33.914 26.315c-1.898 0-3.658-.346-5.283-1.035a13.004 13.004 0 0 1-4.215-2.826 12.816 12.816 0 0 1-2.771-4.234c-.664-1.625-.997-3.358-.997-5.209v-.071c0-1.853.333-3.578.997-5.193a13.357 13.357 0 0 1 2.771-4.25c1.182-1.219 2.6-2.18 4.25-2.883 1.65-.702 3.475-1.053 5.471-1.053 1.205 0 2.312.099 3.31.295a13.88 13.88 0 0 1 2.716.813c.813.345 1.566.764 2.258 1.256a15.613 15.613 0 0 1 1.922 1.626l-3.623 4.177c-1.012-.911-2.039-1.626-3.086-2.144s-2.226-.776-3.527-.776c-1.086 0-2.09.209-3.014.628a7.17 7.17 0 0 0-2.387 1.738 8.133 8.133 0 0 0-1.552 2.568 8.737 8.737 0 0 0-.558 3.123v.074c0 1.105.188 2.154.558 3.145a8.3 8.3 0 0 0 1.534 2.586 7.164 7.164 0 0 0 2.361 1.754c.926.435 1.941.646 3.051.646 1.479 0 2.729-.271 3.75-.813 1.023-.541 2.039-1.278 3.054-2.217l3.62 3.656a18.57 18.57 0 0 1-2.068 1.922 12.13 12.13 0 0 1-2.348 1.463c-.852.404-1.779.715-2.791.924-1.015.207-2.145.31-3.403.31zm-103.116-.443h5.691V26.35H93.95v-5.063H83.294V16.04H95.24v-5.064H77.603z"/>
  <path fill="#F98600" d="m213.118.709-13.369 23.352V10.976h-6.453v25.872h6.022L220 .709z"/>
  <path fill="#0056A4" d="m205.488 30.576 4.578 6.272h7.353l-8.711-11.897z"/>
</svg>
