<svg width="150px" height="34px" viewBox="0 0 150 34" aria-hidden="true">
  <title>Feather logo</title>
  <defs>
    <path id="feather-1" d="M25.274 0C13.826 4.905 3.294 23.379.577 31.663c-.604 1.84-1.136 3.855.608.642 1.045-1.926 3.631-4.636 9.53-5.61 4.718-.777 6.694-1.788 9.72-5.227-1.395.5-3.197 1.546-7.043.347 5.334.469 9.01-2.692 10.446-7.19-3.522 1.598-6.503.48-7.284.069 4.805.12 8.856-2.935 9.831-8.024.568-2.966-.342-5.697-1.111-6.67Z"/>
  </defs>
  <g fill="none" fill-rule="evenodd" stroke="none" stroke-width="1">
    <g id="feather-colour">
      <path id="Path" fill="#4C4C53" fill-rule="nonzero" d="M38.03 16.702h-1.905a1.062 1.062 0 0 1-1.063-1.062v-.843c0-.587.476-1.062 1.063-1.062h1.905v-2.173c0-2.345.54-4.15 1.622-5.415 1.101-1.265 2.682-1.897 4.742-1.897a9.14 9.14 0 0 1 1.805.184c.317.05.608.114.873.191.44.127.68.574.623 1.029l-.106.843c-.085.68-.784 1.098-1.457.971a7.388 7.388 0 0 0-1.371-.128c-1.122 0-1.938.367-2.447 1.102-.51.734-.765 1.896-.765 3.487v1.806h3.404c.587 0 1.062.475 1.062 1.062v.843c0 .587-.475 1.062-1.062 1.062h-3.404v11.42c0 .587-.476 1.063-1.063 1.063h-1.393a1.063 1.063 0 0 1-1.063-1.062v-11.42Z"/>
      <path id="Path" fill="#4C4C53" fill-rule="nonzero" d="M83.83 16.702h-2.18a1.062 1.062 0 0 1-1.063-1.062v-.843c0-.587.476-1.062 1.063-1.062h2.18V7.424c0-.587.476-1.063 1.063-1.063h1.393c.587 0 1.063.476 1.063 1.063v6.31h2.884c.587 0 1.062.476 1.062 1.063v.843c0 .587-.475 1.062-1.062 1.062h-2.884v11.42c0 .587-.476 1.063-1.063 1.063h-1.393a1.062 1.062 0 0 1-1.063-1.062v-11.42Z"/>
      <path id="Path" fill="#4C4C53" fill-rule="nonzero" d="M92.955 7.301c0-.587.476-1.062 1.063-1.062h1.393c.587 0 1.063.475 1.063 1.062v8.239a4.39 4.39 0 0 1 1.866-1.683c.816-.408 1.754-.612 2.815-.612 1.856 0 3.274.571 4.252 1.713 1 1.122 1.5 2.744 1.5 4.865v8.3c0 .586-.476 1.062-1.063 1.062h-1.393a1.062 1.062 0 0 1-1.063-1.062v-7.658c0-1.387-.265-2.417-.795-3.09-.51-.673-1.306-1.01-2.386-1.01-1.184 0-2.101.388-2.754 1.163s-.98 1.856-.98 3.243v7.352c0 .586-.475 1.062-1.062 1.062h-1.393a1.062 1.062 0 0 1-1.063-1.062V7.3Z"/>
      <path id="Path" fill="#4C4C53" fill-rule="nonzero" d="M126.362 14.797c0-.587.476-1.062 1.063-1.062h1.253c.582 0 1.056.468 1.062 1.05l.019 1.55c.428-.918 1.02-1.621 1.774-2.111.775-.49 1.662-.734 2.662-.734a5.357 5.357 0 0 1 1.049.116c.46.092.724.54.676 1.005l-.11 1.081c-.073.713-.83 1.153-1.544 1.09a5.018 5.018 0 0 0-.438-.019c-1.244 0-2.213.46-2.907 1.377-.693.898-1.04 2.152-1.04 3.763v6.22c0 .586-.476 1.062-1.062 1.062h-1.394a1.063 1.063 0 0 1-1.063-1.062V14.797Z"/>
      <path id="Shape" fill="#4C4C53" d="M76.501 27.217a7.649 7.649 0 1 1 0-11.36l.038-.95c.023-.57.492-1.02 1.062-1.02h.976c.587 0 1.062.476 1.062 1.063v13.173c0 .586-.475 1.062-1.062 1.062H77.6c-.57 0-1.039-.45-1.062-1.02l-.038-.948Zm-.415-5.68a4.707 4.707 0 1 1-9.414-.001 4.707 4.707 0 0 1 9.414 0Z"/>
      <path id="Shape" fill="#4C4C53" fill-rule="nonzero" d="M124.309 21.303c0 .038 0 .057-.004.1-.04.489-.484.933-.973.973-.043.003-.082.003-.16.003h-11.13c.213 1.144.767 2.056 1.66 2.734.913.66 2.04.99 3.38.99 1.093 0 2.063-.23 2.91-.69.584-.317.877-.476 1.035-.508.323-.064.485-.035.765.138.137.085.293.264.605.622.23.264.345.396.413.578.098.264.06.678-.086.919-.1.166-.202.246-.405.406a6.85 6.85 0 0 1-1.71.977c-1.07.427-2.273.64-3.614.64-1.71 0-3.215-.34-4.516-1.018-1.302-.678-2.312-1.619-3.03-2.821-.7-1.222-1.05-2.598-1.05-4.13 0-1.513.34-2.87 1.02-4.072a7.406 7.406 0 0 1 2.885-2.85c1.224-.68 2.603-1.018 4.138-1.018 1.515 0 2.865.339 4.05 1.018a6.875 6.875 0 0 1 2.797 2.82c.68 1.203 1.02 2.6 1.02 4.19Zm-7.867-5.119c-1.166 0-2.157.35-2.973 1.047-.796.679-1.282 1.59-1.457 2.734h8.83c-.156-1.124-.632-2.036-1.428-2.734-.797-.698-1.787-1.047-2.972-1.047Z"/>
      <path id="Shape" fill="#4C4C53" fill-rule="nonzero" d="M62.507 21.303c0 .038 0 .057-.004.1-.04.489-.484.933-.973.973-.043.003-.082.003-.16.003H50.24c.213 1.144.767 2.056 1.66 2.734.913.66 2.04.99 3.38.99 1.093 0 2.062-.23 2.91-.69.584-.317.876-.476 1.034-.508.323-.064.485-.035.765.138.138.085.293.264.605.622.23.264.346.396.414.578a1.21 1.21 0 0 1-.086.919c-.1.166-.202.246-.405.406a6.846 6.846 0 0 1-1.711.977c-1.068.427-2.273.64-3.613.64-1.71 0-3.215-.34-4.517-1.018-1.301-.678-2.311-1.619-3.03-2.821-.7-1.222-1.049-2.598-1.049-4.13 0-1.513.34-2.87 1.02-4.072a7.401 7.401 0 0 1 2.885-2.85c1.223-.68 2.602-1.018 4.137-1.018 1.515 0 2.865.339 4.05 1.018a6.873 6.873 0 0 1 2.798 2.82c.68 1.203 1.02 2.6 1.02 4.19Zm-7.868-5.119c-1.166 0-2.156.35-2.972 1.047-.796.679-1.282 1.59-1.457 2.734h8.829c-.155-1.124-.631-2.036-1.428-2.734-.796-.698-1.787-1.047-2.972-1.047Z"/>
      <g>
        <mask id="feather-mask-2" fill="#fff">
          <use href="#feather-1"/>
        </mask>
        <g mask="url(#feather-mask-2)">
          <g transform="translate(-5.667 -13.458)">
            <path id="Path" fill="#6160A2" fill-rule="nonzero" d="M29.958 13.913C18.895 19.415 8.884 37.075 6.243 45.122c-.604 1.84-1.135 3.855.608.642 1.046-1.926 3.632-4.637 9.53-5.61 3.92-.646 5.947-1.453 8.256-3.68.409-.394.625-1.211.085-1.035-.625.204-1.27-.656-.668-.922 2.183-.963 3.836-2.728 4.871-4.948.26-.557-.329-1.107-.923-.954a8.754 8.754 0 0 1-2.924.248c-.747-.062-.637-.958.091-1.136 2.203-.536 4.403-1.635 5.669-3.014 1.178-1.283.836-2.61 1.214-4.585.436-2.28 0-4.421-.575-5.732-.257-.586-.947-.767-1.52-.483Z"/>
            <path id="Shape" fill="#90DF9B" fill-rule="evenodd" d="M40.204 20.416c0 11.103-8.881 20.247-20.013 20.247C9.06 40.663.178 31.52.178 20.416S9.059.17 20.191.17c11.132 0 20.013 9.144 20.013 20.247ZM20.191 35.351c8.12 0 14.7-6.687 14.7-14.935 0-8.248-6.58-14.934-14.7-14.934-8.119 0-14.7 6.686-14.7 14.934s6.581 14.935 14.7 14.935Z"/>
            <path id="Path" fill="#8E8CEE" fill-rule="nonzero" d="M34.892 20.416c0 8.248-6.582 14.935-14.7 14.935-8.12 0-14.702-6.687-14.702-14.935 0-8.248 6.582-14.934 14.701-14.934 8.12 0 14.7 6.686 14.7 14.934Z"/>
          </g>
        </g>
      </g>
    </g>
  </g>
</svg>
